<svg xmlns="http://www.w3.org/2000/svg" xmlns:xlink="http://www.w3.org/1999/xlink" viewBox="0 0 2345.41 7495.02"><defs><style>.cls-1,.cls-10{fill:#fff;}.cls-2,.cls-8{opacity:0.7;}.cls-2{fill:url(#未命名漸層_80);}.cls-3,.cls-4{opacity:0.3;}.cls-3{fill:url(#未命名漸層_87);}.cls-4{fill:url(#未命名漸層_87-2);}.cls-11,.cls-5,.cls-6,.cls-9{fill:none;stroke-width:5px;}.cls-5,.cls-6,.cls-9{stroke-linecap:round;stroke-linejoin:round;}.cls-5{stroke:url(#未命名漸層_95);}.cls-6{stroke:url(#未命名漸層_96);}.cls-7{fill:url(#未命名漸層_48);}.cls-8{fill:url(#未命名漸層_37);}.cls-11,.cls-9{stroke:#fff;}.cls-10,.cls-11{opacity:0.15;}.cls-11{stroke-miterlimit:10;}</style><linearGradient id="未命名漸層_80" x1="15621.59" y1="7706.62" x2="12807.89" y2="2833.16" gradientTransform="translate(-13042.03 -339.57)" gradientUnits="userSpaceOnUse"><stop offset="0" stop-color="#fff9b1" stop-opacity="0"/><stop offset="0.21" stop-color="#fff9b1" stop-opacity="0"/><stop offset="0.28" stop-color="#fff9b1" stop-opacity="0.24"/><stop offset="0.34" stop-color="#fff9b1" stop-opacity="0.44"/><stop offset="0.39" stop-color="#fff9b1" stop-opacity="0.58"/><stop offset="0.44" stop-color="#fff9b1" stop-opacity="0.67"/><stop offset="0.46" stop-color="#fff9b1" stop-opacity="0.7"/><stop offset="0.48" stop-color="#fff5a9" stop-opacity="0.69"/><stop offset="0.7" stop-color="#fac751" stop-opacity="0.63"/><stop offset="0.8" stop-color="#f8b52e" stop-opacity="0.6"/></linearGradient><linearGradient id="未命名漸層_87" x1="2573.49" y1="7144.57" x2="-641.73" y2="5288.25" gradientUnits="userSpaceOnUse"><stop offset="0" stop-color="#fff9b1" stop-opacity="0.3"/><stop offset="0.35" stop-color="#fcd974" stop-opacity="0.39"/><stop offset="0.8" stop-color="#f8b52e" stop-opacity="0.5"/></linearGradient><linearGradient id="未命名漸層_87-2" x1="15410.4" y1="7666.72" x2="12492.13" y2="5981.86" gradientTransform="matrix(-1, 0, 0, 1, 15404.58, 0)" xlink:href="#未命名漸層_87"/><linearGradient id="未命名漸層_95" x1="13253.85" y1="3824.63" x2="14443.02" y2="3824.63" gradientTransform="translate(14293.42 8185.58) rotate(180)" gradientUnits="userSpaceOnUse"><stop offset="0" stop-color="#fff" stop-opacity="0"/><stop offset="0.36" stop-color="#fff" stop-opacity="0.34"/><stop offset="0.66" stop-color="#fff" stop-opacity="0.6"/><stop offset="0.8" stop-color="#fff" stop-opacity="0.7"/></linearGradient><linearGradient id="未命名漸層_96" x1="973.87" y1="5637.28" x2="2492.16" y2="5637.28" gradientUnits="userSpaceOnUse"><stop offset="0" stop-color="#f8b52e" stop-opacity="0"/><stop offset="0.25" stop-color="#f8b52e" stop-opacity="0.14"/><stop offset="0.76" stop-color="#f8b52e" stop-opacity="0.4"/><stop offset="1" stop-color="#f8b52e" stop-opacity="0.5"/></linearGradient><linearGradient id="未命名漸層_48" x1="138.77" y1="2441.83" x2="1749.33" y2="-347.73" gradientUnits="userSpaceOnUse"><stop offset="0" stop-color="#fff9b1" stop-opacity="0.8"/><stop offset="0.24" stop-color="#fde388" stop-opacity="0.86"/><stop offset="0.56" stop-color="#faca57" stop-opacity="0.94"/><stop offset="0.83" stop-color="#f9bb39" stop-opacity="0.98"/><stop offset="1" stop-color="#f8b52e"/></linearGradient><linearGradient id="未命名漸層_37" x1="1325.57" y1="771.04" x2="1914.4" y2="-248.84" gradientUnits="userSpaceOnUse"><stop offset="0" stop-color="#fbce6f" stop-opacity="0.6"/><stop offset="0.17" stop-color="#fbcd6b" stop-opacity="0.62"/><stop offset="0.4" stop-color="#fac860" stop-opacity="0.69"/><stop offset="0.65" stop-color="#f9c14e" stop-opacity="0.8"/><stop offset="0.93" stop-color="#f8b835" stop-opacity="0.95"/><stop offset="1" stop-color="#f8b52e"/></linearGradient></defs><title>background</title><g id="背景"><rect class="cls-1" x="-5.7" y="2361.7" width="2356.83" height="5133.31"/><rect class="cls-2" x="-5.7" y="2361.7" width="2356.83" height="5137.23" transform="translate(2345.43 9860.64) rotate(180)"/><polygon class="cls-3" points="-1.77 4179.8 2351.13 5137.96 2348.84 7533.69 -5.7 7533.69 -1.77 4179.8"/><polygon class="cls-4" points="2492.6 5319.46 -152.6 6430.52 -150.02 7495.02 2497.03 7495.02 2492.6 5319.46"/><line class="cls-5" x1="1037.08" y1="4602.07" x2="-147.1" y2="4119.84"/><line class="cls-6" x1="976.37" y1="5955.09" x2="2489.66" y2="5319.46"/><polygon class="cls-7" points="2347.63 1300.07 0 2361.7 0 -1.91 751.8 0.45 2347.63 -2.3 2347.63 1300.07"/><polygon class="cls-8" points="2347.63 1361.13 409.32 -2.3 2345.41 0 2347.63 1361.13"/><line class="cls-9" x1="2067.41" y1="653.38" x2="878.49" y2="1489.67"/><line class="cls-9" x1="2374.65" y1="317.94" x2="1993.05" y2="586.36"/><line class="cls-9" x1="512.22" y1="510.58" x2="130.62" y2="779.01"/><line class="cls-9" x1="475.59" y1="1323.45" x2="-164.5" y2="1773.69"/><line class="cls-9" x1="556.66" y1="1124.8" x2="394.51" y2="1238.85"/><circle class="cls-10" cx="1599.54" cy="1607.68" r="126.59"/><circle class="cls-10" cx="593.72" cy="1553.81" r="126.59"/><circle class="cls-10" cx="291" cy="492.34" r="420.88"/><circle class="cls-11" cx="768.79" cy="1417.13" r="209.8"/></g><g id="物件"><polygon class="cls-1" points="2347.63 1300.07 0 2361.7 2345.41 2361.7 2347.63 1300.07"/></g></svg>