<svg xmlns="http://www.w3.org/2000/svg" viewBox="0 0 59.96 60.06"><defs><style>.cls-1{fill:#f0efef;}</style></defs><title>fbIcon</title><g id="物件"><path class="cls-1" d="M60,30q0,12.38,0,24.77c0,3.78-1.46,5.23-5.23,5.26C51.14,60,47.55,60,44,60c-1.55,0-2-.54-2-2q.09-9.38,0-18.76c0-1.55.42-2.2,2.11-2.25,4.73-.15,4.73-.22,5.8-4.71.86-3.58.27-4.3-3.53-4.35-4.3-.06-6.58-4.16-4.3-7.87,1-1.6,2.67-2,4.48-2.1C49.76,17.83,51,16.5,51,13.35S49.61,8.93,46.32,9C44,9,41.8,8.8,39.46,9.65,34,11.64,32.29,15.91,32,21c-.33,6.25-.19,6.25-6.3,7-.57.07-1.43,0-1.49.62-.21,2.46-.72,5,.27,7.37.58,1.38,2.15,1,3.37,1,4.05.08,4.06.07,4.06,4.17,0,5.42-.06,10.84,0,16.26,0,1.87-.4,2.67-2.47,2.64C21.41,59.93,13.32,60,5.23,60A5.44,5.44,0,0,1,0,54.73Q0,30,0,5.19A5.49,5.49,0,0,1,5.37.08C12.12,0,18.88,0,25.63,0H54.4C58.58,0,60,1.36,60,5.46Q60,17.72,60,30Z"/></g></svg>