<svg xmlns="http://www.w3.org/2000/svg" viewBox="0 0 60.08 60.16"><defs><style>.cls-1{fill:#f0efef;}</style></defs><title>igIcon</title><g id="物件"><path class="cls-1" d="M29.9,60.15c-3.59,0-7.17-.05-10.76,0C11.22,60.29,5.31,56.9,1.68,49.9a14.29,14.29,0,0,1-1.6-6.41c0-8.59-.19-17.18,0-25.76A17.49,17.49,0,0,1,13.21.92C17.95-.3,22.63.36,27.32.14c4.91-.23,9.84-.15,14.75,0C49.7.45,56,4.19,58.69,11.61a20.5,20.5,0,0,1,1.39,7.26c-.11,7.5-.06,15,0,22.51,0,8.37-5,16.15-13.29,18a23.48,23.48,0,0,1-4.85.75c-4,0-8,0-12,0Zm0-14.08a16.91,16.91,0,0,0,16-15.92c.35-7.64-8-16.18-15.74-15.8-8.66.43-15.69,6-15.82,15.69C14.18,39.1,20.71,45.2,29.88,46.07ZM43,14.12c0,1.57,1.92,4.79,2.88,4.85.66,0,3.17-3.36,3.19-4.33,0-1.49-2-3.68-3.49-3.53A2.68,2.68,0,0,0,43,14.12Z"/><path class="cls-1" d="M30,40.07a10.48,10.48,0,0,1-9.83-10.13c-.11-4.54,5.23-9.79,9.55-9.76,4.78,0,10.28,5.38,10.25,10S34.47,40.13,30,40.07Z"/></g></svg>