<svg xmlns="http://www.w3.org/2000/svg" viewBox="0 0 83.61 60.03"><defs><style>.cls-1{fill:#f0efef;}</style></defs><title>mailIcon</title><g id="物件"><path class="cls-1" d="M41.94,59.93q-15.59,0-31.18,0c-5.17,0-10.59-4.86-10.65-10Q-.11,30,.11,10C.17,5.13,5.41.08,10.28.06q31.65-.12,63.3,0c4.69,0,9.87,5.12,9.92,9.83.14,13.41.16,26.82,0,40.22-.06,4.51-5.12,10.07-10.36,9.9C62.74,59.7,52.34,59.93,41.94,59.93ZM77.39,11.44A3.44,3.44,0,0,0,75,7.75c-1.86-.55-3.77-.68-5.53.88-2.55,2.28-4.35,5.18-6.7,7.62-5,5.19-10.47,10-14.86,15.71-3.73,4.82-8.14,5.07-12.2.83-3.7-3.88-6.8-8.26-10.68-12S17.58,12.62,13.79,8.59,6.65,6.93,5.57,10.44C4.78,13,7.16,14.83,8.65,16.39c7.56,7.86,14.64,16.17,22.1,24.13,5.59,6,16.39,6.37,21.78,0,3-3.6,6.56-6.77,9.54-10.47,3.29-4.07,7.27-7.58,10.83-11.45C74.83,16.5,76.78,14.36,77.39,11.44Z"/></g></svg>