<svg xmlns="http://www.w3.org/2000/svg" viewBox="0 0 188.17 45.52"><defs><style>.cls-1{fill:none;}.cls-2{fill:#e3883a;}.cls-3{fill:#fff;}</style></defs><title>logo</title><g id="物件"><path class="cls-1" d="M15,23.68l-.15.58H16.7l-.92-3.62C15.51,21.68,15.24,22.7,15,23.68Z"/><path class="cls-1" d="M146.44,24.5c-.28,1-.56,2-.81,3l-.15.58h1.85l-.15-.57C147,26.71,146.72,25.64,146.44,24.5Z"/><path class="cls-2" d="M73.2,2H69.78A1.81,1.81,0,0,0,68,3.76s0,18,0,22.39a1.15,1.15,0,0,1-2.21.45L59.62,12A1.81,1.81,0,0,0,58,10.94H53.4a1.81,1.81,0,0,0-1.81,1.81v29a1.81,1.81,0,0,0,1.81,1.81h3.42a1.81,1.81,0,0,0,1.81-1.81V28.37a1.14,1.14,0,0,1,.92-1.13l.24,0a1.14,1.14,0,0,1,1.05.7L67,42.46a1.81,1.81,0,0,0,1.67,1.11H73.2A1.81,1.81,0,0,0,75,41.76v-38A1.81,1.81,0,0,0,73.2,2Z"/><path class="cls-3" d="M73.2,0H69.78A3.76,3.76,0,0,0,66,3.76s0,11.58,0,18.42l-4.61-10.9A3.75,3.75,0,0,0,58,9H53.4a3.76,3.76,0,0,0-3.76,3.76v29a3.76,3.76,0,0,0,3.76,3.76h3.42a3.76,3.76,0,0,0,3.76-3.76V32.33l4.61,10.89a3.75,3.75,0,0,0,3.46,2.3H73.2A3.76,3.76,0,0,0,77,41.76v-38A3.76,3.76,0,0,0,73.2,0ZM75,41.76a1.81,1.81,0,0,1-1.81,1.81H68.64A1.81,1.81,0,0,1,67,42.46L60.82,27.92a1.14,1.14,0,0,0-1.05-.7l-.24,0a1.14,1.14,0,0,0-.92,1.13v13.4a1.81,1.81,0,0,1-1.81,1.81H53.4a1.81,1.81,0,0,1-1.81-1.81v-29a1.81,1.81,0,0,1,1.81-1.81H58A1.81,1.81,0,0,1,59.62,12l6.15,14.55A1.15,1.15,0,0,0,68,26.15c0-4.36,0-22.39,0-22.39A1.81,1.81,0,0,1,69.78,2H73.2A1.81,1.81,0,0,1,75,3.76Z"/><path class="cls-2" d="M110.07,37.38H95.8A1.81,1.81,0,0,1,94,35.57V10A1.81,1.81,0,0,1,95.8,8.14h4a1.81,1.81,0,0,0,1.81-1.81V3.76A1.81,1.81,0,0,0,99.8,2h-19A1.81,1.81,0,0,0,79,3.76V6.33a1.81,1.81,0,0,0,1.81,1.81h4A1.81,1.81,0,0,1,86.6,10V35.57a1.81,1.81,0,0,1-1.81,1.81h-4A1.81,1.81,0,0,0,79,39.19v2.57a1.81,1.81,0,0,0,1.81,1.81h29.28a1.81,1.81,0,0,0,1.81-1.81V39.19A1.81,1.81,0,0,0,110.07,37.38Z"/><path class="cls-3" d="M110.07,35.43H95.94V10.09H99.8a3.76,3.76,0,0,0,3.76-3.76V3.76A3.76,3.76,0,0,0,99.8,0h-19A3.76,3.76,0,0,0,77,3.76V6.33a3.76,3.76,0,0,0,3.76,3.76h3.86V35.43H80.79A3.76,3.76,0,0,0,77,39.19v2.57a3.76,3.76,0,0,0,3.76,3.76h29.28a3.76,3.76,0,0,0,3.76-3.76V39.19A3.76,3.76,0,0,0,110.07,35.43Zm1.81,6.33a1.81,1.81,0,0,1-1.81,1.81H80.79A1.81,1.81,0,0,1,79,41.76V39.19a1.81,1.81,0,0,1,1.81-1.81h4a1.81,1.81,0,0,0,1.81-1.81V10a1.81,1.81,0,0,0-1.81-1.81h-4A1.81,1.81,0,0,1,79,6.33V3.76A1.81,1.81,0,0,1,80.79,2h19a1.81,1.81,0,0,1,1.81,1.81V6.33A1.81,1.81,0,0,1,99.8,8.14h-4A1.81,1.81,0,0,0,94,10V35.57a1.81,1.81,0,0,0,1.81,1.81h14.27a1.81,1.81,0,0,1,1.81,1.81Z"/><path class="cls-2" d="M151.36,12.21a1.81,1.81,0,0,0-1.73-1.28h-6.18a1.81,1.81,0,0,0-1.73,1.28l-9,29a1.81,1.81,0,0,0,1.73,2.35h3.68a1.81,1.81,0,0,0,1.76-1.36l1.29-5a1.81,1.81,0,0,1,1.76-1.36h7a1.81,1.81,0,0,1,1.76,1.37l1.28,5a1.81,1.81,0,0,0,1.76,1.37h4a1.81,1.81,0,0,0,1.73-2.35Zm-2.41,17.14a1.8,1.8,0,0,1-1.43.7h-2.2a1.81,1.81,0,0,1-1.76-2.27l.19-.74c.3-1.19.64-2.43,1-3.61a1.8,1.8,0,0,1,3.49.05c.33,1.34.64,2.62.88,3.56l.19.74A1.8,1.8,0,0,1,148.94,29.35Z"/><path class="cls-3" d="M162.37,41.14a3.86,3.86,0,0,0-.12-.5l-9-29h0A3.75,3.75,0,0,0,149.62,9h-6.18a3.75,3.75,0,0,0-3.59,2.65l-9,29a3.76,3.76,0,0,0,3.59,4.88h3.68a3.76,3.76,0,0,0,3.65-2.83L143,37.76h6.79l1.26,4.93a3.76,3.76,0,0,0,3.65,2.83h4a3.77,3.77,0,0,0,3.74-3.32,3.77,3.77,0,0,1,0-.44Zm-2.25,1.69a1.8,1.8,0,0,1-1.46.74h-4a1.81,1.81,0,0,1-1.76-1.37l-1.28-5a1.81,1.81,0,0,0-1.76-1.37h-7a1.81,1.81,0,0,0-1.76,1.36l-1.29,5a1.81,1.81,0,0,1-1.76,1.36h-3.68a1.81,1.81,0,0,1-1.73-2.35l9-29a1.81,1.81,0,0,1,1.73-1.28h6.18a1.81,1.81,0,0,1,1.73,1.28l9,29A1.8,1.8,0,0,1,160.12,42.83Z"/><path class="cls-3" d="M149.08,27c-.24-.94-.55-2.22-.88-3.56a1.8,1.8,0,0,0-3.49-.05c-.33,1.18-.67,2.42-1,3.61l-.19.74a1.81,1.81,0,0,0,1.76,2.27h2.2a1.81,1.81,0,0,0,1.76-2.26Zm-3.6,1.06.15-.58c.25-1,.53-2,.81-3,.28,1.14.54,2.21.75,3l.15.57Z"/><path class="cls-2" d="M184.4,37.38H173.5a1.82,1.82,0,0,1-1.81-1.81V6.33a1.82,1.82,0,0,0-1.81-1.81h-3.74a1.82,1.82,0,0,0-1.81,1.81V41.76a1.82,1.82,0,0,0,1.81,1.81H184.4a1.82,1.82,0,0,0,1.81-1.81V39.19A1.82,1.82,0,0,0,184.4,37.38Z"/><path class="cls-3" d="M184.4,35.43H173.64V6.33a3.77,3.77,0,0,0-3.76-3.76h-3.74a3.77,3.77,0,0,0-3.76,3.76V41.76a3.79,3.79,0,0,0,3.76,3.76H184.4a3.77,3.77,0,0,0,3.76-3.76V39.19A3.77,3.77,0,0,0,184.4,35.43Zm1.81,6.33a1.82,1.82,0,0,1-1.81,1.81H166.13a1.82,1.82,0,0,1-1.81-1.81V6.33a1.82,1.82,0,0,1,1.81-1.81h3.74a1.82,1.82,0,0,1,1.81,1.81V35.56a1.82,1.82,0,0,0,1.81,1.81h10.9a1.82,1.82,0,0,1,1.81,1.81Z"/><path class="cls-2" d="M128.21,2.73h-4.55a1.82,1.82,0,0,0-1.75,1.33l-2.85,10.25-1.18,4.5-1.2-4.52L113.86,4.06a1.82,1.82,0,0,0-1.75-1.33h-4.55a1.82,1.82,0,0,0-1.81,1.81V31a1.81,1.81,0,0,0,1.81,1.81h2.52A1.81,1.81,0,0,0,111.89,31V21.41a1.15,1.15,0,0,1,2.24-.36l1.45,4.42a1.81,1.81,0,0,0,1.72,1.25h1A1.81,1.81,0,0,0,120,25.46l1.55-4.81a1.14,1.14,0,0,1,1.09-.8h.18a1.14,1.14,0,0,1,1,1.13V33.55a1.81,1.81,0,0,0,1.81,1.81h2.62A1.81,1.81,0,0,0,130,33.55v-29A1.82,1.82,0,0,0,128.21,2.73Z"/><path class="cls-3" d="M132,33.55v-29A3.77,3.77,0,0,0,128.21.78h-4.55A3.77,3.77,0,0,0,120,3.53l-2.15,7.75-2.14-7.75A3.77,3.77,0,0,0,112.11.78h-4.55a3.77,3.77,0,0,0-3.76,3.76V31a3.77,3.77,0,0,0,3.76,3.76h2.52A3.77,3.77,0,0,0,113.84,31v-4.6a3.76,3.76,0,0,0,3.46,2.29h1a3.75,3.75,0,0,0,3.57-2.57v7.45a3.77,3.77,0,0,0,3.76,3.76h2.62A3.77,3.77,0,0,0,132,33.55Zm-2,0a1.81,1.81,0,0,1-1.81,1.81h-2.62a1.81,1.81,0,0,1-1.81-1.81V21a1.14,1.14,0,0,0-1-1.13h-.18a1.14,1.14,0,0,0-1.09.8L120,25.46a1.81,1.81,0,0,1-1.73,1.26h-1a1.81,1.81,0,0,1-1.72-1.25l-1.45-4.42a1.15,1.15,0,0,0-2.24.36V31a1.81,1.81,0,0,1-1.81,1.81h-2.52A1.81,1.81,0,0,1,105.74,31V4.54a1.82,1.82,0,0,1,1.81-1.81h4.55a1.82,1.82,0,0,1,1.75,1.33l2.83,10.22,1.2,4.52,1.18-4.5,2.85-10.25a1.82,1.82,0,0,1,1.75-1.33h4.55A1.82,1.82,0,0,1,130,4.54Z"/><circle class="cls-2" cx="30.54" cy="12.22" r="2.46"/><path class="cls-3" d="M30.54,16.63a4.41,4.41,0,1,0-4.41-4.41A4.41,4.41,0,0,0,30.54,16.63Zm0-6.87a2.46,2.46,0,1,1-2.46,2.46A2.46,2.46,0,0,1,30.54,9.76Z"/><circle class="cls-2" cx="44.02" cy="12.22" r="2.46"/><path class="cls-3" d="M44,16.63h0a4.41,4.41,0,1,0-4.41-4.41A4.41,4.41,0,0,0,44,16.63Zm2.46-4.41A2.46,2.46,0,1,1,44,9.76,2.46,2.46,0,0,1,46.48,12.22Z"/><path class="cls-2" d="M46.13,38.66H41.79a1.67,1.67,0,0,1-1.49-1.81V27.93a2.37,2.37,0,0,1,.11-.76l.11-.31.28-.18a4.41,4.41,0,0,1,1.73-.57,2.33,2.33,0,0,0,1-.31l0,0a1.26,1.26,0,0,0,.3-.38h0a2.84,2.84,0,0,0,.14-1v-.1a20.86,20.86,0,0,0,0-2.57,2.07,2.07,0,0,0-1.49-1.81,15.7,15.7,0,0,0-5.15-.73,16.33,16.33,0,0,0-5.33.73,2.2,2.2,0,0,0-1.49,1.81,10.55,10.55,0,0,0,0,1.87c0,.28,0,.52,0,.71a2,2,0,0,0,.4,1.22l0,0a1.07,1.07,0,0,0,.16.17l.15.12a2.44,2.44,0,0,0,.91.29,5.08,5.08,0,0,1,1.51.48l.39.21.1.43a3.09,3.09,0,0,1,.06.67v8.92a1.67,1.67,0,0,1-1.49,1.81H29L20.71,8.34A1.8,1.8,0,0,0,19,7.09H12.8a1.8,1.8,0,0,0-1.72,1.26L2,41.21a1.81,1.81,0,0,0,1.72,2.36h3.7A1.79,1.79,0,0,0,9.2,42.24l2.59-9A1.8,1.8,0,0,1,13.54,32H18a1.83,1.83,0,0,1,1.76,1.39l2.55,8.83a1.82,1.82,0,0,0,1.76,1.39H46.13a1.67,1.67,0,0,0,1.49-1.81V40.47A1.67,1.67,0,0,0,46.13,38.66ZM18.31,25.5a1.8,1.8,0,0,1-1.43.7H14.66a1.81,1.81,0,0,1-1.75-2.26h0l.19-.75c.25-1,.53-2,.81-3.13l.12-.46a1.81,1.81,0,0,1,3.5,0l1.1,4.33A1.8,1.8,0,0,1,18.31,25.5Z"/><path class="cls-3" d="M46.13,36.71H42.25V28.15c.19,0,.4-.09.61-.12a3.88,3.88,0,0,0,1.89-.71l.13-.11a3.19,3.19,0,0,0,.76-1l0,0a4.52,4.52,0,0,0,.3-1.65v-.1a23,23,0,0,0,0-2.84,4,4,0,0,0-2.71-3.44,17.59,17.59,0,0,0-5.86-.86,17.72,17.72,0,0,0-6.07.87,4.14,4.14,0,0,0-2.68,3.31,12,12,0,0,0,0,2.28c0,.23,0,.43,0,.6a4,4,0,0,0,.78,2.39,2.88,2.88,0,0,0,.43.47,3.61,3.61,0,0,0,.32.26,4,4,0,0,0,1.69.62l.48.1v8.55H30.54L22.59,7.81v0A3.74,3.74,0,0,0,19,5.14H12.8A3.74,3.74,0,0,0,9.21,7.78l-9,32.89a3.76,3.76,0,0,0,3.6,4.85h3.7a3.73,3.73,0,0,0,3.63-2.77l2.56-8.85h4.23l2.54,8.78a3.76,3.76,0,0,0,3.64,2.83H46.13a3.61,3.61,0,0,0,3.44-3.76V40.47A3.61,3.61,0,0,0,46.13,36.71Zm1.49,5a1.67,1.67,0,0,1-1.49,1.81H24.06a1.82,1.82,0,0,1-1.76-1.39l-2.55-8.83A1.83,1.83,0,0,0,18,32H13.54a1.8,1.8,0,0,0-1.74,1.33l-2.59,9a1.79,1.79,0,0,1-1.74,1.33H3.76A1.81,1.81,0,0,1,2,41.21l9-32.86A1.8,1.8,0,0,1,12.8,7.09H19a1.8,1.8,0,0,1,1.72,1.26L29,38.66h3.7a1.67,1.67,0,0,0,1.49-1.81V27.93a3.09,3.09,0,0,0-.06-.67l-.1-.43-.39-.21a5.08,5.08,0,0,0-1.51-.48,2.44,2.44,0,0,1-.91-.29l-.15-.12a1.07,1.07,0,0,1-.16-.17l0,0a2,2,0,0,1-.4-1.22c0-.19,0-.42,0-.71a10.55,10.55,0,0,1,0-1.87A2.2,2.2,0,0,1,32,19.93a16.33,16.33,0,0,1,5.33-.73,15.7,15.7,0,0,1,5.15.73A2.07,2.07,0,0,1,44,21.74a20.86,20.86,0,0,1,0,2.57v.1a2.84,2.84,0,0,1-.14,1h0a1.26,1.26,0,0,1-.3.38l0,0a2.33,2.33,0,0,1-1,.31,4.41,4.41,0,0,0-1.73.57l-.28.18-.11.31a2.37,2.37,0,0,0-.11.76v8.92a1.67,1.67,0,0,0,1.49,1.81h4.34a1.67,1.67,0,0,1,1.49,1.81Z"/><path class="cls-3" d="M17.53,19.62a1.81,1.81,0,0,0-3.5,0l-.12.46c-.28,1.08-.55,2.13-.81,3.13l-.19.75h0a1.81,1.81,0,0,0,1.75,2.26h2.21a1.81,1.81,0,0,0,1.75-2.26Zm-2.69,4.63.15-.58c.25-1,.51-2,.78-3l.92,3.62Z"/></g></svg>