<svg xmlns="http://www.w3.org/2000/svg" xmlns:xlink="http://www.w3.org/1999/xlink" width="424.719" height="852.561" viewBox="0 0 424.719 852.561">
  <defs>
    <clipPath id="clip-path">
      <rect id="Rectangle_228" data-name="Rectangle 228" width="379.473" height="245.925" fill="none"/>
    </clipPath>
    <clipPath id="clip-path-2">
      <rect id="Rectangle_232" data-name="Rectangle 232" width="379.219" height="375.326" fill="none"/>
    </clipPath>
    <clipPath id="clip-path-3">
      <rect id="Rectangle_231" data-name="Rectangle 231" width="558.181" height="238.529" fill="none"/>
    </clipPath>
    <clipPath id="clip-path-4">
      <rect id="Rectangle_230" data-name="Rectangle 230" width="563.08" height="298.18" fill="none"/>
    </clipPath>
    <clipPath id="clip-path-5">
      <rect id="Rectangle_234" data-name="Rectangle 234" width="360.23" height="191.903" fill="none"/>
    </clipPath>
  </defs>
  <g id="Group_226" data-name="Group 226" transform="translate(-1212.7 -137.48)">
    <rect id="Rectangle_226" data-name="Rectangle 226" width="380.846" height="720.824" transform="translate(1235.485 161.488)" fill="#9ecdd9"/>
    <rect id="Rectangle_227" data-name="Rectangle 227" width="371.458" height="653.024" transform="translate(1251.118 272.141)" fill="none"/>
    <g id="Group_172" data-name="Group 172" transform="translate(1237.489 722.478)">
      <g id="Group_171" data-name="Group 171" clip-path="url(#clip-path)">
        <path id="大地" d="M1740.105,996.281c-.117,3.167-36.681,3.633-40.329,3.254-7.684-.8-3.871-1.622-11.772-3.22-24.2-4.9-57.7-7.4-84.926-7.483-50.177-.162-96.128,9.172-141.453,16.419-44.048,7.043-98.6,8.852-145.894,8.507-15.023-.111-148.177-7.4-149.22-3.745.651-2.278,19.788-2.4,20.984-5.115-.058.134-11.765-3.243-12.864-3.862-4.027-2.27-3.979-4.914-4.768-7.525-2.219-7.341.371-15.332,1.416-22.683,2.5-17.587,7.589-35.366,4.122-52.987-4.046-20.559-11.076-39.941-11.176-60.587-.107-22.23-.883-18.479-.291-40.708.181-6.779-1.708-14.277.277-21.019,3.822-12.982,40.074-21.2,62.664-26.388,54.651-12.558,185.529-10.237,289.814-12.19,55.344-1.036,86.722,2.9,109.161,5.761a253.731,253.731,0,0,0,34.071,1.861c9.331-.089,14.494-1.11,24.573-.824,5.864.165,39.016,1.268,42.144,2.72,6.435,2.986,3.27,17.712,4.119,21.694,2.507,11.758,5.139,23.511,7.581,35.271,5.707,27.485,11.658,55.12,11.55,82.718-.034,8.72.089,17.777-5.064,26.308-12.1,20.031-39.335,38.7-53.115,58.8" transform="translate(-1245.827 -731.885)" fill="#7f9d54" stroke="#462b17" stroke-linecap="round" stroke-linejoin="round" stroke-width="1"/>
      </g>
    </g>
    <g id="Group_186" data-name="Group 186" transform="translate(1237.743 457.582)">
      <g id="Group_185" data-name="Group 185" clip-path="url(#clip-path-2)">
        <g id="Group_184" data-name="Group 184" transform="translate(-8.622 80.679)">
          <g id="Group_180" data-name="Group 180" transform="translate(8.622)">
            <g id="Group_179" data-name="Group 179" clip-path="url(#clip-path-3)">
              <g id="Group_178" data-name="Group 178" transform="translate(-2.477 -0.053)">
                <g id="Group_177" data-name="Group 177" clip-path="url(#clip-path-4)">
                  <path id="Path_1292" data-name="Path 1292" d="M1205.738,701.148l481.828,33.833s1.407-13.073-1.6-13.565-34.58-11.146-41.37-11.753-114.043,2.308-121.013-1.2c-6.885-3.464-10.243-6.956-13.886-7.389-7.54-.9-12.412,4.327-18.06,4.261s-16.047-8.449-24.114-9.39-21.8,5.03-28.537,4.383-39.3-14.819-50.006-15.688-48.694,3.429-53.582,3.308-24.1-7.469-29.367-7.956-24.852,6.474-30.194,5.872-39.912-9.874-44.3-10.171" transform="translate(-1243.305 -547.347)" fill="#63765e" stroke="#351d0e" stroke-miterlimit="10" stroke-width="1"/>
                  <g id="Group_173" data-name="Group 173" transform="translate(43.374 76.999)">
                    <path id="Path_1293" data-name="Path 1293" d="M1309.172,632.791s36.083-7.7,43.446-8.482,19.979,1.155,28,25.159c-10.05.408-76.441,10.662-76.441,10.662Z" transform="translate(-1285.987 -624.176)" fill="#545659" stroke="#351d0e" stroke-linecap="round" stroke-linejoin="round" stroke-width="1"/>
                    <path id="Path_1294" data-name="Path 1294" d="M1383.284,697.668s-2.594-29.221-3.636-43.152c-3.823-12.383-13.38-28.722-24.849-27.174s-30.583,5.16-43.615,7.223-21.2,25.454-21.2,25.454l-3.869,37.648Z" transform="translate(-1286.114 -624.186)" fill="#d8333e" stroke="#351d0e" stroke-linecap="round" stroke-linejoin="round" stroke-width="1"/>
                    <line id="Line_25" data-name="Line 25" x1="1.716" y2="33.601" transform="translate(44.691 35.255)" fill="none" stroke="#351d0e" stroke-linecap="round" stroke-linejoin="round" stroke-width="1"/>
                    <path id="Path_1295" data-name="Path 1295" d="M1356.209,627.245c-21.045-.89-24.013,25.088-24.013,25.088" transform="translate(-1285.79 -624.186)" fill="none" stroke="#351d0e" stroke-linecap="round" stroke-linejoin="round" stroke-width="1"/>
                    <path id="Path_1296" data-name="Path 1296" d="M1349.194,635.171v5.038l14.634.445-.843-5Z" transform="translate(-1285.671 -624.212)" fill="#f1f2f0" stroke="#351d0e" stroke-linecap="round" stroke-linejoin="round" stroke-width="1"/>
                    <path id="Path_1297" data-name="Path 1297" d="M1352.165,640.317l-.5,9.206h8.852v-8.951Z" transform="translate(-1285.653 -624.229)" fill="#f1f2f0" stroke="#351d0e" stroke-linecap="round" stroke-linejoin="round" stroke-width="1"/>
                    <path id="Path_1298" data-name="Path 1298" d="M1342.174,666.6l-2.87,3.082,16.872,25.617,2.439-2.123Z" transform="translate(-1285.74 -624.316)" fill="#f1f2f0" stroke="#351d0e" stroke-linecap="round" stroke-linejoin="round" stroke-width="1"/>
                    <path id="Path_1299" data-name="Path 1299" d="M1371.325,667.622l2.543,3.358-16.35,26.821-3.613-.715Z" transform="translate(-1285.638 -624.32)" fill="#f1f2f0" stroke="#351d0e" stroke-linecap="round" stroke-linejoin="round" stroke-width="1"/>
                    <path id="Path_1300" data-name="Path 1300" d="M1336.992,694.217l1.224-28.967h3.433l-.86,28.967Z" transform="translate(-1285.756 -624.312)" fill="#f1f2f0" stroke="#351d0e" stroke-linecap="round" stroke-linejoin="round" stroke-width="1"/>
                    <path id="Path_1301" data-name="Path 1301" d="M1355.022,695.428l1.224-28.967h3.433l-.86,28.967Z" transform="translate(-1285.63 -624.316)" fill="#f1f2f0" stroke="#351d0e" stroke-linecap="round" stroke-linejoin="round" stroke-width="1"/>
                    <path id="Path_1302" data-name="Path 1302" d="M1372.206,694.757l-.72-28.609h3.433L1376,694.757Z" transform="translate(-1285.514 -624.315)" fill="#f1f2f0" stroke="#351d0e" stroke-linecap="round" stroke-linejoin="round" stroke-width="1"/>
                    <path id="Path_1303" data-name="Path 1303" d="M1337.759,664.387v3.4l38.075,1.886-.136-3.585Z" transform="translate(-1285.751 -624.309)" fill="#f1f2f0" stroke="#351d0e" stroke-linecap="round" stroke-linejoin="round" stroke-width="1"/>
                    <path id="Path_1304" data-name="Path 1304" d="M1331.015,652.416l50.441,2.569v6.442l-48.514-1.978-45.1,7.787,1.2-6.789Z" transform="translate(-1286.102 -624.269)" fill="#f1f2f0" stroke="#351d0e" stroke-linecap="round" stroke-linejoin="round" stroke-width="1"/>
                    <path id="Path_1305" data-name="Path 1305" d="M1294.94,674.019l-.347,6.283,4.33-.238,1.046-6.762Z" transform="translate(-1286.054 -624.339)" fill="#f1f2f0" stroke="#351d0e" stroke-linecap="round" stroke-linejoin="round" stroke-width="1"/>
                    <path id="Path_1306" data-name="Path 1306" d="M1314.68,670.266l-.365,8.277,5.116-.358.762-8.9Z" transform="translate(-1285.916 -624.325)" fill="#f1f2f0" stroke="#351d0e" stroke-linecap="round" stroke-linejoin="round" stroke-width="1"/>
                    <path id="Path_1307" data-name="Path 1307" d="M1293.881,671.454l-.695,2.963,8.713-1.243.641-3.486Z" transform="translate(-1286.064 -624.327)" fill="#f1f2f0" stroke="#351d0e" stroke-linecap="round" stroke-linejoin="round" stroke-width="1"/>
                    <path id="Path_1308" data-name="Path 1308" d="M1312.611,667.822v3.362l9.714-1.386.715-3.886Z" transform="translate(-1285.928 -624.314)" fill="#f1f2f0" stroke="#351d0e" stroke-linecap="round" stroke-linejoin="round" stroke-width="1"/>
                    <path id="Path_1309" data-name="Path 1309" d="M1352.734,624.31s-31.464,4.594-45.446,9.092-19.643,24.581-19.643,24.581l42.413-7.722S1334.284,624.89,1352.734,624.31Z" transform="translate(-1286.103 -624.176)" fill="#75777a" stroke="#351d0e" stroke-linecap="round" stroke-linejoin="round" stroke-width="1"/>
                  </g>
                  <g id="Group_174" data-name="Group 174" transform="translate(150.661 71.619)">
                    <path id="Path_1310" data-name="Path 1310" d="M1400.928,645.581l-7.828,56.5,5.584,2.583,8.25-60.574Z" transform="translate(-1392.649 -618.861)" fill="#f1f2f0" stroke="#351d0e" stroke-linecap="round" stroke-linejoin="round" stroke-width="1"/>
                    <path id="Path_1311" data-name="Path 1311" d="M1421.161,641.58l-5.1.541,13.592,61.8,6.89.979Z" transform="translate(-1392.488 -618.853)" fill="#f1f2f0" stroke="#351d0e" stroke-linecap="round" stroke-linejoin="round" stroke-width="1"/>
                    <path id="Path_1312" data-name="Path 1312" d="M1409.432,642.179l2.071,57.283,5.536,1.611L1413.1,641.79Z" transform="translate(-1392.534 -618.853)" fill="#bebfbf" stroke="#351d0e" stroke-linecap="round" stroke-linejoin="round" stroke-width="1"/>
                    <path id="Path_1313" data-name="Path 1313" d="M1397.637,623.592c-6.948,2.48-7.075,23.535,2.438,22.536s19.862-2.829,27.343-3.8,3.653-24.376-4.395-23.524S1397.637,623.592,1397.637,623.592Z" transform="translate(-1392.652 -618.777)" fill="#f1f2f0" stroke="#351d0e" stroke-linecap="round" stroke-linejoin="round" stroke-width="1"/>
                    <path id="Path_1314" data-name="Path 1314" d="M1419.77,624.467s-3.575,7.7,1.567,14.484" transform="translate(-1392.471 -618.796)" fill="#f1f2f0" stroke="#351d0e" stroke-linecap="round" stroke-linejoin="round" stroke-width="1"/>
                    <path id="Path_1315" data-name="Path 1315" d="M1402.954,652.988l-.3,3.221,20.065,2.468-.617-5.7Z" transform="translate(-1392.582 -618.89)" fill="#d4d3d5" stroke="#351d0e" stroke-linecap="round" stroke-linejoin="round" stroke-width="1"/>
                    <path id="Path_1316" data-name="Path 1316" d="M1402.018,663.9l-1.454,3.66,24,4.568-1.016-5.879Z" transform="translate(-1392.597 -618.927)" fill="#d4d3d5" stroke="#351d0e" stroke-linecap="round" stroke-linejoin="round" stroke-width="1"/>
                    <path id="Path_1317" data-name="Path 1317" d="M1399.952,676.43l-.428,3.738,27.455,3.226-.526-4.858Z" transform="translate(-1392.604 -618.968)" fill="#d4d3d5" stroke="#351d0e" stroke-linecap="round" stroke-linejoin="round" stroke-width="1"/>
                    <path id="Path_1318" data-name="Path 1318" d="M1398.727,688.167l-.228,2.68,31.942,4.856-1.223-5.318Z" transform="translate(-1392.611 -619.007)" fill="#d4d3d5" stroke="#351d0e" stroke-linecap="round" stroke-linejoin="round" stroke-width="1"/>
                  </g>
                  <g id="Group_175" data-name="Group 175" transform="translate(163.304 44.129)">
                    <path id="Path_1319" data-name="Path 1319" d="M1433.446,617.741l-3.218,9.009,1.68,2.187,3.668-9.423Z" transform="translate(-1405.031 -591.285)" fill="#b2949b" stroke="#351d0e" stroke-linecap="round" stroke-linejoin="round" stroke-width="1"/>
                    <path id="Path_1320" data-name="Path 1320" d="M1431.424,631.711l-1.074,3.758,4.059,7.036,1.417-4.3Z" transform="translate(-1405.031 -591.331)" fill="#b2949b" stroke="#351d0e" stroke-linecap="round" stroke-linejoin="round" stroke-width="1"/>
                    <path id="Path_1321" data-name="Path 1321" d="M1425.339,625.553c-2.242.537-2.121,10.323,1.146,10.592s9.434-1.732,8.52-6.763S1428.765,624.732,1425.339,625.553Z" transform="translate(-1405.077 -591.309)" fill="#b2949b" stroke="#351d0e" stroke-linecap="round" stroke-linejoin="round" stroke-width="1"/>
                    <path id="Path_1322" data-name="Path 1322" d="M1423.683,621.769s3.556,6.4,4.057,6.468a1.72,1.72,0,0,0,1.7-1.4c.256-1.065-3.792-8.511-3.792-8.511Z" transform="translate(-1405.078 -591.286)" fill="#b2949b" stroke="#351d0e" stroke-linecap="round" stroke-linejoin="round" stroke-width="1"/>
                    <path id="Path_1323" data-name="Path 1323" d="M1422.323,624.1l5.061-7.617L1414.807,591.2l-9.6,11.272Z" transform="translate(-1405.207 -591.197)" fill="#b2949b" stroke="#351d0e" stroke-linecap="round" stroke-linejoin="round" stroke-width="1"/>
                    <path id="Path_1324" data-name="Path 1324" d="M1435.451,634.579l-3.035,7.006,9.955,17.624,3.48-11.448Z" transform="translate(-1405.016 -591.34)" fill="#b2949b" stroke="#351d0e" stroke-linecap="round" stroke-linejoin="round" stroke-width="1"/>
                    <path id="Path_1325" data-name="Path 1325" d="M1432.176,617.513l3.188,6.713,8.56-19.22-4.254-8.625Z" transform="translate(-1405.018 -591.214)" fill="#b2949b" stroke="#351d0e" stroke-linecap="round" stroke-linejoin="round" stroke-width="1"/>
                    <path id="Path_1326" data-name="Path 1326" d="M1423.638,641.173s2.835-6.553,3.424-6.844,1.736,2.124,1.736,2.124l-2.859,7.94Z" transform="translate(-1405.078 -591.339)" fill="#b2949b" stroke="#351d0e" stroke-linecap="round" stroke-linejoin="round" stroke-width="1"/>
                    <path id="Path_1327" data-name="Path 1327" d="M1422.555,636.746l5.778,8.086-8.366,26.149-6.6-11.287Z" transform="translate(-1405.15 -591.347)" fill="#b2949b" stroke="#351d0e" stroke-linecap="round" stroke-linejoin="round" stroke-width="1"/>
                  </g>
                  <g id="Group_176" data-name="Group 176" transform="translate(354.615 131.359)">
                    <path id="Path_1328" data-name="Path 1328" d="M1619.7,684.775l-4.516,21.139h7.689l.976-21.139Z" transform="translate(-1595.044 -678.736)" fill="#2a3126" stroke="#090405" stroke-linecap="round" stroke-linejoin="round" stroke-width="1"/>
                    <path id="Path_1329" data-name="Path 1329" d="M1634.841,684.048l-3.783.725,1.061,21.139,5.042-1.691Z" transform="translate(-1594.932 -678.733)" fill="#2a3126" stroke="#090405" stroke-linecap="round" stroke-linejoin="round" stroke-width="1"/>
                    <rect id="Rectangle_229" data-name="Rectangle 229" width="3.539" height="14.858" transform="translate(0 5.315)" stroke-width="1" stroke="#090405" stroke-linecap="round" stroke-linejoin="round" fill="#2a3126"/>
                    <path id="Path_1330" data-name="Path 1330" d="M1606.014,686.036l-1.135,15.771h6.346V684.775Z" transform="translate(-1595.116 -678.736)" fill="#2a3126" stroke="#090405" stroke-linecap="round" stroke-linejoin="round" stroke-width="1"/>
                    <path id="Path_1331" data-name="Path 1331" d="M1669.6,682.106V698.9h4.638V681.018Z" transform="translate(-1594.661 -678.723)" fill="#2a3126" stroke="#090405" stroke-linecap="round" stroke-linejoin="round" stroke-width="1"/>
                    <path id="Path_1332" data-name="Path 1332" d="M1707.047,682.836v16.669l5.614,1.208-1.342-17.877Z" transform="translate(-1594.398 -678.729)" fill="#2a3126" stroke="#090405" stroke-linecap="round" stroke-linejoin="round" stroke-width="1"/>
                    <path id="Path_1333" data-name="Path 1333" d="M1694.477,680.412l-5,1.208v19.568l3.3-1.208Z" transform="translate(-1594.522 -678.721)" fill="#2a3126" stroke="#090405" stroke-linecap="round" stroke-linejoin="round" stroke-width="1"/>
                    <path id="Path_1334" data-name="Path 1334" d="M1682.1,678.716l-2.685.845.915,20.173,4.455-.846Z" transform="translate(-1594.592 -678.716)" fill="#2a3126" stroke="#090405" stroke-linecap="round" stroke-linejoin="round" stroke-width="1"/>
                    <path id="Path_1335" data-name="Path 1335" d="M1644.147,682.109v14.012l4.15,1.068-1.465-14.355Z" transform="translate(-1594.84 -678.727)" fill="#2a3126" stroke="#090405" stroke-linecap="round" stroke-linejoin="round" stroke-width="1"/>
                    <path id="Path_1336" data-name="Path 1336" d="M1653.313,684.189s-2.45-.7-2.385,1.037,2.385,14.906,2.385,14.906l3.723-.966Z" transform="translate(-1594.792 -678.733)" fill="#2a3126" stroke="#090405" stroke-linecap="round" stroke-linejoin="round" stroke-width="1"/>
                    <path id="Path_1337" data-name="Path 1337" d="M1659.538,682.106v14.254h4.7l-1.532-15.341Z" transform="translate(-1594.732 -678.723)" fill="#2a3126" stroke="#090405" stroke-linecap="round" stroke-linejoin="round" stroke-width="1"/>
                    <path id="Path_1338" data-name="Path 1338" d="M1723.533,687.914l-.488,12.219,5.858,2.276V684.048Z" transform="translate(-1594.286 -678.733)" fill="#2a3126" stroke="#090405" stroke-linecap="round" stroke-linejoin="round" stroke-width="1"/>
                    <path id="Path_1339" data-name="Path 1339" d="M1736.133,684.775v19.206h4.272l-.732-19.206Z" transform="translate(-1594.194 -678.736)" fill="#2a3126" stroke="#090405" stroke-linecap="round" stroke-linejoin="round" stroke-width="1"/>
                    <path id="Path_1340" data-name="Path 1340" d="M1746.92,682.836v21.139h6.59l-1.22-19.931Z" transform="translate(-1594.118 -678.729)" fill="#2a3126" stroke="#090405" stroke-linecap="round" stroke-linejoin="round" stroke-width="1"/>
                    <path id="Path_1341" data-name="Path 1341" d="M1760.017,685.377c-.61.122-1.1,20.535-1.1,20.535h3.295l.732-21.863Z" transform="translate(-1594.034 -678.733)" fill="#2a3126" stroke="#090405" stroke-linecap="round" stroke-linejoin="round" stroke-width="1"/>
                    <path id="Path_1342" data-name="Path 1342" d="M1767.28,685.866v20.052h3.783l-.854-20.052Z" transform="translate(-1593.975 -678.739)" fill="#2a3126" stroke="#090405" stroke-linecap="round" stroke-linejoin="round" stroke-width="1"/>
                    <path id="Path_1343" data-name="Path 1343" d="M1700.512,682.836l-1.465,18.361h4.516V682.836Z" transform="translate(-1594.454 -678.729)" fill="#2a3126" stroke="#090405" stroke-linecap="round" stroke-linejoin="round" stroke-width="1"/>
                  </g>
                  <path id="Path_1344" data-name="Path 1344" d="M1647.6,669.985c.1-1.225-1.093-2.129-2.214-2.472s-2.382-.443-3.258-1.257c-.442-.411-.79-1-1.362-1.148-.6-.153-1.2.251-1.813.307a7,7,0,0,1-2.359-.684c-.8-.219-1.908.159-1.885,1.025a10.242,10.242,0,0,0-5.814-2.662,2.83,2.83,0,0,0-1.877.3c-.44.291-.744.786-1.213,1.025-.794.4-1.735-.063-2.612.024-1.325.132-2.211,1.44-3.306,2.238-2.827,2.06-6.724.551-10.09,1.286-3.2.7-6.057,3.459-9.283,2.9-1.223-.213-2.581-.874-3.6-.135-.639.462-.9,1.349-1.516,1.843-1.015.812-2.443.262-3.694,0s-3.005.283-2.907,1.621a58.048,58.048,0,0,1-9.334.222,1.391,1.391,0,0,0-1.2.312c-.468.565.073,1.488-.192,2.185-.259.678-1.1.8-1.759,1.011-1.964.639-3.049,2.764-4.251,4.518a18.007,18.007,0,0,1-5.147,5,3.147,3.147,0,0,0-1,.836c-.856,1.288.516,2.9,1.74,3.8-2.206,1.048-2.353,4.94-.234,6.168-1.935,1.834-2.005,5.252-.518,7.5a8.165,8.165,0,0,0,6.787,3.393,4.943,4.943,0,0,0-1.037,3.225c.4.737,1.454.241,2.109-.251s1.89-.671,1.977.17c.512-1.6,2.55-1.956,4.125-1.613s3.172,1.1,4.726.664c-.443.878.726,1.814,1.658,1.645a16.325,16.325,0,0,0,2.569-1.233c2.845-1.064,5.635,2.134,8.653,2.065,1.03-.023,2.035-.434,3.064-.373,1.535.093,2.854,1.21,4.367,1.492,2.146.4,4.194-.9,6.213-1.769,3.973-1.7,8.385-1.75,12.674-1.776a8.1,8.1,0,0,1,4.558.876,2.883,2.883,0,0,1,3.186-1.46,8.444,8.444,0,0,1,3.319,1.741,2.516,2.516,0,0,1,1.821-2.5,7.82,7.82,0,0,1,3.229-.074c4.811.478,9.65-.19,14.441-.858,4.29-.6,8.911-1.361,11.969-4.585a13.951,13.951,0,0,1,2.288-2.3,12.636,12.636,0,0,0,2.187-1.3c1.376-1.353.874-3.723.269-5.6" transform="translate(-1240.776 -547.305)" fill="#486934" stroke="#351d0e" stroke-linecap="round" stroke-linejoin="round" stroke-width="1"/>
                  <path id="Path_1345" data-name="Path 1345" d="M1765.882,649.05a5.488,5.488,0,0,0-6.32,1.764,3.375,3.375,0,0,0-2.309-3.56,2.979,2.979,0,0,0-3.325,2.29c-.5-3.2-3.669-5.5-6.427-4.662a15.147,15.147,0,0,1-2.516.866,5.744,5.744,0,0,1-2.861-.688l-8.274-3.577c-1.238-.535-3.338-.3-3.039,1.17.915-.565.783-2.247.006-3.036a4.538,4.538,0,0,0-2.929-1.037l-14.31-1.45c-1.7-.172-3.856-.045-4.5,1.754a2.044,2.044,0,0,0-3.279.505c-3.009-3.776-9.219-3.049-11.492,1.344a10.2,10.2,0,0,0-10.205.013,10.843,10.843,0,0,1-9.41,1.476c-1.938-.614-3.745-1.786-5.74-2.088s-4.384.651-4.931,2.857c-2.341-2.839-7.3-1.389-8.152,2.382l-2.335-.6-1.1,2.7a11.272,11.272,0,0,0-9.211,1.356,5.236,5.236,0,0,0-2.9-1.864,1.989,1.989,0,0,0-2.1,2.263,3.15,3.15,0,0,0-2.932-1.814c.733,1.724-1.2,3.253-2.687,4.148s-2.867,3.443-1.409,4.4c-3.61,1.452-8.029,4.54-6.976,8.734-3.3-1.23-7.011.591-9.356,3.506s-3.59,6.741-4.675,10.5c-1.427-.226-2.762,1.092-3.266,2.631a12.482,12.482,0,0,0-.238,4.876l-6.763.437a4.478,4.478,0,0,1,2.346,4.052c-.009.769-.2,1.525-.206,2.293a9.258,9.258,0,0,0,1.733,4.706c1.792,2.984,3.678,6.068,6.433,7.862s6.646,1.875,8.774-.807c4.374,2.512,9.63,1.659,14.371,3.059,4.335,1.28,8.312,4.459,12.789,4.384,3.976-.066,7.561-2.7,11.471-3.528a25.622,25.622,0,0,1,5.661-.339,45.353,45.353,0,0,1,10.78,1.02c6.109,1.582,12.948,5.551,18.092,1.475a8.056,8.056,0,0,0,6.694,3.437l1.114-1.9c-.063,3.2,3.715,4.264,6.528,4.278l8.476.042c2.531.012,6.065-1.309,5.449-4.105.562,3.745,4.63,5.313,7.957,5.045s6.713-1.593,9.92-.552a1.858,1.858,0,0,1,1.617-2.324,5.919,5.919,0,0,1,2.894,1.016c2.577,1.295,5.452,1.534,8.262,1.755l14.437,1.138c3.088.244,6.318.46,9.148-.967s5.058-5.071,4.132-8.436l5.118-.787-.026-24.036c-.006-5.374-.2-11.313-3.435-15.222-1.585-1.916-3.83-3.225-4.807-5.612-.807-1.972-.57-4.28-.993-6.4-.641-3.216-2.32-2.782-4.282-4.062C1768.675,652.008,1767.821,649.861,1765.882,649.05Z" transform="translate(-1240.535 -547.219)" fill="#486934" stroke="#351d0e" stroke-linecap="round" stroke-linejoin="round" stroke-width="1"/>
                  <path id="Path_1346" data-name="Path 1346" d="M1213.358,718.694c10.671-9.548,24.613-14.684,38.515-18.346,62.463-16.453,128.744-7.044,191.958,6.3s126.463,30.642,191.093,29.718c2.646-.037,5.676.056,7.376,2.063,1.128,1.33,1.353,3.17,1.533,4.9l4.385,42.247c-29.028,7.164-59.49,3.278-89.3.731-96.715-8.264-194-1.918-291.074-.938-17.679.178-35.437.173-52.932-2.352-2.754-.4-5.623-.909-7.83-2.589-2.253-1.715-3.492-4.407-4.5-7.041a75.974,75.974,0,0,1,.045-53.729" transform="translate(-1243.361 -547.4)" fill="#acbb86" stroke="#351d0e" stroke-miterlimit="10" stroke-width="1"/>
                  <path id="Path_1347" data-name="Path 1347" d="M1355.957,700.439c3.175,3.178,5.5,7.455,5.334,11.922-.2,5.517-4,10.145-6.619,15.017a38.326,38.326,0,0,0-2.138,31.163c1.045,2.8,2.553,5.624,5.131,7.179a16.114,16.114,0,0,0,6.858,1.748,255.711,255.711,0,0,0,30.2,1.129c-5.764-4.027-10.95-9.03-14.362-15.142s-4.935-13.407-3.354-20.212c1.159-4.984,3.917-9.6,4.293-14.7.481-6.514-3.011-12.684-7.157-17.767-1.949-2.39-3.935-5.038-6.8-6.212-4.923-2.016-11.344-1.9-17.232-2.2-3.08-.159-3.471.961-1.111,2.825C1351.307,697.014,1353.845,698.325,1355.957,700.439Z" transform="translate(-1242.309 -547.402)" fill="#d0b87f" stroke="#351d0e" stroke-linecap="round" stroke-linejoin="round" stroke-width="1"/>
                  <path id="Path_1348" data-name="Path 1348" d="M1168.278,741.185c.082-5.273,10.517-7.72,18.686-7.279s16.946,2.21,24.167-.287c3.219-1.112,5.942-3.037,9.575-3.293,4.14-.292.234,13.837,32.454,19.49,22.462,3.941,47.353,14.132,90.8,12.248,5.131-.222,34.173-6.909,62-11.62,13.2-2.234,109.274-43.467,122.534-45.538,41.733-6.519,49.773-5.244,91.779-10.991,10.084-1.38,39.025-1.7,49.306-2.2,8.393-.409,54.155,4.584,62.488,5.339,53.7,4.863,58.549,9.731,112.282,5.024,9.673-.847-30.878,13.334-22.033,15.99,16.587,4.98,19.173,19.185,19.573,30.958,2.3,67.517-14.737,167.009-4.256,234.2,3.78,24.236,8.094,48.454,9.876,72.783,2.187,29.861.556,302.813-1.077,332.689-.208,3.79-.511,7.788-3.7,10.979-5.278,5.278-16.278,6.471-25.982,7.11-210.312,13.839-422.358-.641-632.567-15.112-3.964-75.965-41.859-394.975-21.481-469.843,7.429-27.3,22.432-53.461,33.945-80.164,12.223-28.353,2.224-61.287,10.5-90.224" transform="translate(-1243.649 -547.4)" fill="#93af65" stroke="#351d0e" stroke-miterlimit="10" stroke-width="1"/>
                  <path id="Path_1349" data-name="Path 1349" d="M1619.558,760c59.3,59.12,26.074,123.471,27.534,123.638,19.322,2.206,81.891,9.99,101.336,9.537-1.108-6.391,8.342-108.8-96.465-162.17-26.885-13.691-57.3-36.986-73.777-35.612-5.5.459-31.6,2.562-35.344,6.984C1547.581,703.414,1587.505,728.042,1619.558,760Z" transform="translate(-1240.937 -547.412)" fill="#c1ac79" stroke="#351d0e" stroke-linecap="round" stroke-linejoin="round" stroke-width="1"/>
                </g>
              </g>
            </g>
          </g>
          <g id="Group_183" data-name="Group 183" transform="translate(0 199.618)">
            <g id="Group_181" data-name="Group 181" transform="translate(6.626 54.209)">
              <path id="Path_1350" data-name="Path 1350" d="M1245.675,817.694s.2-5.664-2.154-7.463c3.164.067,7.055-.024,7.937,3.786,1.892-3.853,3.374-7.319,7.211-8.984-1.414,5.064-1.347,9.862,0,11.195,1.75-5.93,2.558-9.129,6.193-10.662-.134,5.93,0,9.462,2.491,11.394.673-7.6,3.635-11.927,3.635-11.927s.606,5.378,1.01,9.12c3.3-6.721,6.4-6.388,8.213-4.589-2.49,1.533-4.914,8.13-4.914,8.13" transform="translate(-1243.521 -801.655)" fill="#7f9d54" stroke="#351d0e" stroke-linecap="round" stroke-linejoin="round" stroke-width="1"/>
              <path id="Path_1351" data-name="Path 1351" d="M1288.491,815.7c-1.481-2.532-2.02-6.064-5.184-6.131,3.973-1.866,8.819-1.084,9.83,3.323,1.481-6.254.674-9.253,4.848-11.252-.2,4.6-1.549,9,0,11.728,1.48-4.666,5.386-13.328,9.56-10.2-1.75,2.2-4.982,7.125-4.039,9.526,2.962-3.929,2.289-6.328,6.194-5.795-.135,2.332-2.155,7.729-2.155,7.729,3.635-2.732,4.645-9.995,8.281-8.8-1.607,2.282-2.76,4.646-1.75,7.055,3.03-4.522,4.915-5.721,7-3.256-2.356,2.332-4.646,3.4-4.375,6.064" transform="translate(-1243.241 -801.644)" fill="#7f9d54" stroke="#351d0e" stroke-linecap="round" stroke-linejoin="round" stroke-width="1"/>
              <path id="Path_1352" data-name="Path 1352" d="M1330.471,817.175s-1.566-8.124-4.292-8.124a8.317,8.317,0,0,1,8.937,6.4c.3-4.948.454-8.746-2.121-10.745,6.665,3,5.6,7.6,6.261,10.2.859-3.848,2.474-9.345.859-11.194,3.888,4.6,3.961,7.946,4.025,11.694,1.125-5.947,3.65-13.743,7.033-12.794a44.17,44.17,0,0,0-2.774,11.326c2.774-5.53,4.74-8.825,7.42-8.428-2.171,2.7-4.091,5.547-3.131,9.395,2.272-4.948,3.741-7.047,6.237-7-.885,2.133-3.006,4.9-2,7.2,1.212-3.449,5.252-3.749,5.252-3.749s-2.323,3.505-2.727,5.826" transform="translate(-1242.94 -801.647)" fill="#7f9d54" stroke="#351d0e" stroke-linecap="round" stroke-linejoin="round" stroke-width="1"/>
              <path id="Path_1353" data-name="Path 1353" d="M1364.57,817.311s3.242-4.114-.858-10.985c5.649,3.313,8.2,4.143,8.512,8.361,0-4.278-.542-6.133,4.179-9.867a19.091,19.091,0,0,0,1.43,11.352c2.09-3.31,1.821-5.328,1.434-8.7,3.018,3.012,4.024,2.572,3.637,6.31,3.018-3.13,3.04-8.63,7.838-6.581-2.166,1.506-2.421,2.849-1.646,6.283,1.7-1.747,2.27-4.285,4.642-4.534a4.789,4.789,0,0,0,.31,4.232c2.266-1.284,2.568-2.883,2.72-5.931,2.476,1.9,3.222,4.052,2.371,8.389,0,0,3.268-7.553,9.058-4.573-2.491,1.914-4.713,3.027-5.386,7.035" transform="translate(-1242.677 -801.654)" fill="#7f9d54" stroke="#351d0e" stroke-linecap="round" stroke-linejoin="round" stroke-width="1"/>
              <path id="Path_1354" data-name="Path 1354" d="M1579.366,820.016s.337-3.865-3.837-8.729c4.982.667,6.749,1.67,8.659,4.733-.176-5.2.564-11.463,3.122-13.4-.134,5.8.061,11.545,2.017,14.034.609-3.973,2.628-3.973,1.417-8.238,3.7,2.332,5.224,4.7,4.3,8.483,2.5-4.484,1.091-11.681,6.679-10.349-.674,2.865-2.088,6.2-2.155,9.8,2.356-2.665,5.117-3.332,5.184-8.063.943,3.465,2.654,3.091.451,7.909,3.656-3.91,3.79-4.51,7.965-4.243-2.222,1.665-3.232.419-4.309,5.606" transform="translate(-1241.188 -801.647)" fill="#7f9d54" stroke="#351d0e" stroke-linecap="round" stroke-linejoin="round" stroke-width="1"/>
              <path id="Path_1355" data-name="Path 1355" d="M1531.983,818.382s1.652-7.746-.569-11.611c3.5,1.466,7.2,8.6,7.2,8.6a17.336,17.336,0,0,0-1.414-10.2c4.108,2.4,7.137,9.862,7.137,9.862s1.621-6.388-.808-11.528c4.578,4.931,6.362,12.193,6.362,12.193s1.515-6.131.976-8.929c3.03,1.933,2.828,3.532,2.9,8.329,1.346-7.263,2.828-8.729,5.117-11.594-.2,2.665.808,7.729-.4,11.394,2.424-3.865,2.693-7.263,4.982-7.729-.875,3-1.279,3.864-.269,7.063,2.625-3.732,3.9-3.6,7.136-2.665-1.615,1.133-4.216,2.948-4.216,6.813" transform="translate(-1241.498 -801.65)" fill="#7f9d54" stroke="#351d0e" stroke-linecap="round" stroke-linejoin="round" stroke-width="1"/>
              <path id="Path_1356" data-name="Path 1356" d="M1450.67,819.9s.4-5.437-1.481-9.449c3.77,2.519,5.924,1.64,7.137,7.476a88.657,88.657,0,0,0-2.344-12.9s8,4.934,8.134,12.9c1.213-5.623.809-14.116.809-14.116a36.513,36.513,0,0,1,5.121,13.725,43.95,43.95,0,0,1,5.113-10.964v10.721c1.212-1.926,2.962-9.788,7.675-9.122-1.75,2.4-2.289,5.517-2.154,9.755.808-2.825,6.732-7.476,6.732-7.476a29.192,29.192,0,0,0-1.749,8.783" transform="translate(-1242.076 -801.651)" fill="#7f9d54" stroke="#351d0e" stroke-linecap="round" stroke-linejoin="round" stroke-width="1"/>
              <path id="Path_1357" data-name="Path 1357" d="M1412.776,818.043s-.068-5.6-4.241-4c3.972-2.466,7.2-3.753,8.213,1.856,1.481-2.789,2.222-4.388,1.549-7.253,2.154,2.532,3.5,3.123,2.693,8.391,1.078-4.726,2.02-8.658,6.6-9.391-2.154,3.332-3.82,7.355-1.641,8.808,1.641-2.744,2.381-1.974,2.516-5.125,1.211,2.647,1.431,3.44,1.927,4.675.5-4.627,1.439-8.358,5.074-8.358-.875,1.866-2.2,3.213-1.708,7.7,2.448-1.973,2.718-2.213,2.919-5.425a7.035,7.035,0,0,1,1.616,5.518c1.144-2.665,1.414-2.665,4.848-2.6-1.616,1.532-2.222,1.333-3.3,5.2" transform="translate(-1242.362 -801.664)" fill="#7f9d54" stroke="#351d0e" stroke-linecap="round" stroke-linejoin="round" stroke-width="1"/>
              <path id="Path_1358" data-name="Path 1358" d="M1491.9,819.489s3.18-7.463,0-11.195c3.351,1.466,4.832,2.266,5.237,7,.808-4.531,3.7-3.8,2.76-8.329,2.289,3.8,1.615,4.46,2.49,9.2.471-3.793,1.818-11.794,5.992-11.66-.538,2.465-2.192,6.65-1.466,12.421,2.275-3.359,3.351-5.091,3.082-8.49,1.683,2.466,3.232,2.457,1.885,8.125,2.221-4.26,2.625-6.259,5.723-8.391-.471,4.2-1.414,3.985-1.212,8.756,2.221-3.292,2.491-3.564,3.77-5.466.864,2.571.336,3.726,0,6.115,1.818-3.208,3.569-3.142,6.127-2.608-1.414,1.333-3.164,1.533-3.434,5" transform="translate(-1241.776 -801.653)" fill="#7f9d54" stroke="#351d0e" stroke-linecap="round" stroke-linejoin="round" stroke-width="1"/>
            </g>
            <g id="Group_182" data-name="Group 182">
              <path id="Path_1359" data-name="Path 1359" d="M1238.635,774.365c2.872-.357,19.928.462,23.311,0s38.252-.461,41.791-.077,38.788-.018,41.79.183,37.939-.666,41.79-.463,37.512.632,41.829.494,38.291,1.047,43.836.787c4.32-.2,34.345-1.546,39.706-1.313s36.966.982,41.79.762,38.8.917,45.037.811,23.573.12,26.346.007,4.16,9.29,4.16,9.29a25.281,25.281,0,0,1-2.773,3.7c-.693.463-29.026,1.387-30.98,1.233s-40.432-.77-43.552-.77-32.215-1.233-40.027-.925-40.746,1.773-43.866,1-38.133-1-40.906-.847-37.439.77-42.64.462-33.39-.617-39.748-.617-37.009-.308-41.79-.308-40.666.462-41.791.462-20.537-1.365-23.311-1.839S1236.956,774.573,1238.635,774.365Z" transform="translate(-1236.941 -747.343)" fill="#a57c53" stroke="#351d0e" stroke-miterlimit="10" stroke-width="1"/>
              <path id="Path_1360" data-name="Path 1360" d="M1251.608,811.7s-2.777-42.415-2.256-46.254,7.976-13.961,10.749-13.961,13.867,8.234,13.867,10.121,1.04,48.206,0,50.094S1253.514,812.9,1251.608,811.7Z" transform="translate(-1236.854 -747.269)" fill="#a57c53" stroke="#351d0e" stroke-miterlimit="10" stroke-width="1"/>
              <path id="Path_1361" data-name="Path 1361" d="M1292.857,811.454s-2.641-46.206,0-49.408,9.622-9.492,11.508-10.35,8.68,8.749,9.056,10.807,3.4,46.205,0,48.035S1292.959,813.32,1292.857,811.454Z" transform="translate(-1236.556 -747.269)" fill="#a57c53" stroke="#351d0e" stroke-miterlimit="10" stroke-width="1"/>
              <path id="Path_1362" data-name="Path 1362" d="M1344.856,751.6c2.3.5,11.667,10.068,11.841,11.612s2.427,48.721-1.213,48.721-19.76,1.372-21.147-1.2-2.947-45.633-1.733-47.692S1340.87,750.746,1344.856,751.6Z" transform="translate(-1236.272 -747.269)" fill="#a57c53" stroke="#351d0e" stroke-miterlimit="10" stroke-width="1"/>
              <path id="Path_1363" data-name="Path 1363" d="M1374.75,811.9c1.4,2.142,20.8,2.962,22.36.709s2.6-47.2,1.56-49.6-9.634-12.352-11.751-12.352-11.129,11.151-12.169,13.553S1372.844,808.987,1374.75,811.9Z" transform="translate(-1235.98 -747.266)" fill="#a57c53" stroke="#351d0e" stroke-miterlimit="10" stroke-width="1"/>
              <path id="Path_1364" data-name="Path 1364" d="M1429.165,749.256c1.906,0,10.746,12.352,11.092,14.239s-.693,46.536-2.426,49.43-19.24,3.663-20.627,1.22-2.6-48.076-1.213-50.65S1426.219,749.256,1429.165,749.256Z" transform="translate(-1235.687 -747.262)" fill="#a57c53" stroke="#351d0e" stroke-miterlimit="10" stroke-width="1"/>
              <path id="Path_1365" data-name="Path 1365" d="M1470.905,749.106c2.735-.025,11.2,16.223,11.2,17.938s.582,46.377-1.5,47.578-20.453,2.4-22.707,0-1.387-46.834,0-48.207S1469,749.124,1470.905,749.106Z" transform="translate(-1235.398 -747.261)" fill="#a57c53" stroke="#351d0e" stroke-miterlimit="10" stroke-width="1"/>
              <path id="Path_1366" data-name="Path 1366" d="M1552.352,748.49c2.033-.012,10.047,9.518,11.9,13.545,1.552,3.371,2.348,53.157-1.37,54.206s-19.956.933-22.3-1.369-1.379-48.748-.031-52.951C1541.088,760.231,1549.814,748.5,1552.352,748.49Z" transform="translate(-1234.818 -747.259)" fill="#a57c53" stroke="#351d0e" stroke-miterlimit="10" stroke-width="1"/>
              <path id="Path_1367" data-name="Path 1367" d="M1509.87,747.255c3.005,0,11.039,9.945,12.561,13.9s1.943,53.341,0,54.509-20.974.8-22.575-1.4-2.688-48.419-1.134-51.353S1506.866,747.255,1509.87,747.255Z" transform="translate(-1235.107 -747.255)" fill="#a57c53" stroke="#351d0e" stroke-miterlimit="10" stroke-width="1"/>
              <path id="Path_1368" data-name="Path 1368" d="M1594.126,749.3c1.73-.042,12.368,14.926,12.368,16.974s-.663,46.2-2.065,48.541-20.725,1.633-21.854,0-2.427-42.979,0-48.541S1590.425,749.4,1594.126,749.3Z" transform="translate(-1234.522 -747.262)" fill="#a57c53" stroke="#351d0e" stroke-miterlimit="10" stroke-width="1"/>
            </g>
          </g>
        </g>
      </g>
    </g>
    <rect id="Rectangle_233" data-name="Rectangle 233" width="388.669" height="807.664" transform="translate(1233.174 160.536)" fill="#fff" opacity="0.17"/>
    <g id="Group_187" data-name="Group 187" transform="translate(1313.617 466.48)">
      <path id="Path_1369" data-name="Path 1369" d="M1339.019,425.375l-.181.7h2.26l-1.121-4.371C1339.645,422.967,1339.319,424.2,1339.019,425.375Z" transform="translate(-1320.721 -396.778)" fill="none"/>
      <path id="Path_1370" data-name="Path 1370" d="M1498.313,426.387c-.337,1.211-.68,2.461-.986,3.655l-.181.7h2.261l-.179-.694C1498.974,429.057,1498.652,427.767,1498.313,426.387Z" transform="translate(-1319.609 -396.793)" fill="none"/>
      <path id="Path_1371" data-name="Path 1371" d="M1409.736,399.058h-4.175a2.2,2.2,0,0,0-2.209,2.186s.007,21.776.016,27.038a1.376,1.376,0,0,1-1.12,1.359,1.394,1.394,0,0,1-1.572-.82l-7.508-17.575a2.2,2.2,0,0,0-2.033-1.333h-5.566a2.2,2.2,0,0,0-2.208,2.186v35.043a2.2,2.2,0,0,0,2.208,2.185h4.175a2.2,2.2,0,0,0,2.209-2.185l-.016-16.179a1.377,1.377,0,0,1,1.122-1.36,1.494,1.494,0,0,1,.288-.029,1.387,1.387,0,0,1,1.282.848l7.507,17.57a2.205,2.205,0,0,0,2.034,1.336h5.565a2.2,2.2,0,0,0,2.208-2.186v-45.9A2.2,2.2,0,0,0,1409.736,399.058Z" transform="translate(-1320.409 -396.703)" fill="#de7229"/>
      <path id="Path_1372" data-name="Path 1372" d="M1409.753,396.7h-4.175a4.57,4.57,0,0,0-4.589,4.542s.005,13.982.011,22.246l-5.622-13.161a4.582,4.582,0,0,0-4.225-2.772h-5.566a4.57,4.57,0,0,0-4.588,4.542v35.043a4.569,4.569,0,0,0,4.588,4.54h4.175a4.57,4.57,0,0,0,4.589-4.541l-.011-11.391,5.622,13.158a4.58,4.58,0,0,0,4.226,2.774h5.565a4.57,4.57,0,0,0,4.588-4.541v-45.9A4.57,4.57,0,0,0,1409.753,396.7Zm2.208,50.438a2.2,2.2,0,0,1-2.208,2.186h-5.565a2.205,2.205,0,0,1-2.034-1.336l-7.507-17.57a1.387,1.387,0,0,0-1.282-.848,1.5,1.5,0,0,0-.288.029,1.377,1.377,0,0,0-1.122,1.36l.016,16.179a2.2,2.2,0,0,1-2.209,2.185h-4.175a2.2,2.2,0,0,1-2.208-2.185V412.092a2.2,2.2,0,0,1,2.208-2.186h5.566a2.2,2.2,0,0,1,2.033,1.333l7.508,17.575a1.394,1.394,0,0,0,1.572.82,1.376,1.376,0,0,0,1.12-1.359c-.009-5.263-.016-27.038-.016-27.038a2.2,2.2,0,0,1,2.209-2.186h4.175a2.2,2.2,0,0,1,2.208,2.186Z" transform="translate(-1320.425 -396.695)" fill="#412614"/>
      <path id="Path_1373" data-name="Path 1373" d="M1454.5,441.848h-17.418a2.2,2.2,0,0,1-2.208-2.186V408.724a2.2,2.2,0,0,1,2.208-2.186h4.882a2.2,2.2,0,0,0,2.208-2.186v-3.109a2.2,2.2,0,0,0-2.208-2.186h-23.195a2.2,2.2,0,0,0-2.208,2.186v3.109a2.2,2.2,0,0,0,2.208,2.186h4.883a2.2,2.2,0,0,1,2.208,2.186v30.938a2.2,2.2,0,0,1-2.208,2.186h-4.883a2.2,2.2,0,0,0-2.208,2.186v3.109a2.2,2.2,0,0,0,2.208,2.185h35.73a2.2,2.2,0,0,0,2.207-2.185v-3.109A2.2,2.2,0,0,0,1454.5,441.848Z" transform="translate(-1320.175 -396.703)" fill="#de7229"/>
      <path id="Path_1374" data-name="Path 1374" d="M1454.513,439.485h-17.246v-30.6h4.711a4.57,4.57,0,0,0,4.589-4.541v-3.109a4.57,4.57,0,0,0-4.589-4.541h-23.195a4.57,4.57,0,0,0-4.588,4.541v3.109a4.57,4.57,0,0,0,4.588,4.541h4.712v30.6h-4.712a4.57,4.57,0,0,0-4.588,4.541v3.109a4.569,4.569,0,0,0,4.588,4.54h35.73a4.569,4.569,0,0,0,4.588-4.54v-3.109A4.57,4.57,0,0,0,1454.513,439.485Zm2.207,7.65a2.2,2.2,0,0,1-2.207,2.185h-35.73a2.2,2.2,0,0,1-2.208-2.185v-3.109a2.2,2.2,0,0,1,2.208-2.186h4.883a2.2,2.2,0,0,0,2.208-2.186V408.716a2.2,2.2,0,0,0-2.208-2.186h-4.883a2.2,2.2,0,0,1-2.208-2.186v-3.109a2.2,2.2,0,0,1,2.208-2.186h23.195a2.2,2.2,0,0,1,2.208,2.186v3.109a2.2,2.2,0,0,1-2.208,2.186H1437.1a2.2,2.2,0,0,0-2.208,2.186v30.938a2.2,2.2,0,0,0,2.208,2.186h17.418a2.2,2.2,0,0,1,2.207,2.186Z" transform="translate(-1320.192 -396.695)" fill="#412614"/>
      <path id="Path_1375" data-name="Path 1375" d="M1504.424,411.49a2.2,2.2,0,0,0-2.115-1.54h-7.546a2.2,2.2,0,0,0-2.115,1.54l-11.023,35.03a2.158,2.158,0,0,0,.33,1.952,2.2,2.2,0,0,0,1.784.892h4.5a2.21,2.21,0,0,0,2.145-1.646l1.577-6.081a2.21,2.21,0,0,1,2.145-1.647h8.546a2.21,2.21,0,0,1,2.146,1.651l1.565,6.074a2.208,2.208,0,0,0,2.145,1.65h4.826a2.2,2.2,0,0,0,1.784-.892,2.156,2.156,0,0,0,.33-1.951Zm-2.947,20.7a2.206,2.206,0,0,1-1.748.846h-2.686a2.208,2.208,0,0,1-1.75-.848,2.163,2.163,0,0,1-.395-1.889l.233-.9c.368-1.435.786-2.941,1.182-4.361a2.206,2.206,0,0,1,4.259.065c.4,1.618.781,3.16,1.073,4.3l.231.9A2.16,2.16,0,0,1,1501.477,432.194Z" transform="translate(-1319.719 -396.739)" fill="#de7229"/>
      <path id="Path_1376" data-name="Path 1376" d="M1517.879,446.416a4.466,4.466,0,0,0-.145-.6l-11.022-35.031h0a4.569,4.569,0,0,0-4.387-3.2h-7.546a4.57,4.57,0,0,0-4.387,3.2l-11.023,35.031a4.468,4.468,0,0,0,.686,4.048,4.567,4.567,0,0,0,3.7,1.851h4.5a4.584,4.584,0,0,0,4.45-3.416l1.545-5.958h8.289l1.533,5.951a4.583,4.583,0,0,0,4.452,3.423h4.826a4.567,4.567,0,0,0,3.7-1.851,4.508,4.508,0,0,0,.866-2.159,4.477,4.477,0,0,1-.035-.536Zm-2.747,2.047a2.2,2.2,0,0,1-1.784.892h-4.826a2.208,2.208,0,0,1-2.145-1.65l-1.565-6.074a2.21,2.21,0,0,0-2.146-1.651h-8.546a2.21,2.21,0,0,0-2.145,1.647l-1.577,6.081a2.21,2.21,0,0,1-2.145,1.647h-4.5a2.2,2.2,0,0,1-1.784-.892,2.158,2.158,0,0,1-.33-1.952l11.023-35.03a2.2,2.2,0,0,1,2.115-1.54h7.546a2.2,2.2,0,0,1,2.115,1.54l11.022,35.031A2.156,2.156,0,0,1,1515.132,448.463Z" transform="translate(-1319.735 -396.731)" fill="#412614"/>
      <path id="Path_1377" data-name="Path 1377" d="M1501.552,429.454c-.292-1.138-.676-2.681-1.073-4.3a2.206,2.206,0,0,0-4.259-.065c-.4,1.419-.815,2.925-1.182,4.361l-.233.9a2.163,2.163,0,0,0,.395,1.889,2.208,2.208,0,0,0,1.75.848h2.686a2.206,2.206,0,0,0,1.748-.846,2.16,2.16,0,0,0,.4-1.887Zm-4.389,1.276.181-.7c.306-1.194.648-2.444.986-3.655.339,1.38.661,2.67.914,3.659l.179.694Z" transform="translate(-1319.626 -396.784)" fill="#412614"/>
      <path id="Path_1378" data-name="Path 1378" d="M1544.482,441.858h-13.3a2.206,2.206,0,0,1-2.214-2.192v-35.3a2.206,2.206,0,0,0-2.214-2.192h-4.568a2.206,2.206,0,0,0-2.214,2.192v42.785a2.205,2.205,0,0,0,2.214,2.191h22.3a2.2,2.2,0,0,0,2.214-2.191v-3.1A2.2,2.2,0,0,0,1544.482,441.858Z" transform="translate(-1319.449 -396.713)" fill="#de7229"/>
      <path id="Path_1379" data-name="Path 1379" d="M1544.5,439.5h-13.134V404.354a4.576,4.576,0,0,0-4.594-4.547H1522.2a4.576,4.576,0,0,0-4.594,4.547v42.785a4.477,4.477,0,0,0,.035.536,4.581,4.581,0,0,0,4.559,4.01h22.3a4.575,4.575,0,0,0,4.593-4.546v-3.1A4.575,4.575,0,0,0,1544.5,439.5Zm2.214,7.644a2.2,2.2,0,0,1-2.214,2.191h-22.3a2.205,2.205,0,0,1-2.214-2.191V404.354a2.206,2.206,0,0,1,2.214-2.192h4.568a2.206,2.206,0,0,1,2.214,2.192v35.3a2.206,2.206,0,0,0,2.214,2.192h13.3a2.2,2.2,0,0,1,2.214,2.191Z" transform="translate(-1319.465 -396.705)" fill="#412614"/>
      <path id="Path_1380" data-name="Path 1380" d="M1476.406,400h-5.558a2.215,2.215,0,0,0-2.132,1.6l-3.473,12.38-1.439,5.433-1.463-5.462-3.451-12.349a2.214,2.214,0,0,0-2.133-1.606H1451.2a2.2,2.2,0,0,0-2.213,2.19v31.933a2.2,2.2,0,0,0,2.213,2.19h3.075a2.2,2.2,0,0,0,2.214-2.19V422.567a1.4,1.4,0,0,1,2.733-.434l1.772,5.338a2.206,2.206,0,0,0,2.1,1.506h1.16a2.205,2.205,0,0,0,2.106-1.516l1.9-5.808a1.4,1.4,0,0,1,2.735.427l0,15.144a2.2,2.2,0,0,0,2.212,2.19h3.2a2.2,2.2,0,0,0,2.213-2.19V402.191A2.2,2.2,0,0,0,1476.406,400Z" transform="translate(-1319.947 -396.706)" fill="#de7229"/>
      <path id="Path_1381" data-name="Path 1381" d="M1481.016,437.216V402.183a4.575,4.575,0,0,0-4.593-4.546h-5.558a4.6,4.6,0,0,0-4.425,3.33l-2.626,9.359-2.613-9.354a4.6,4.6,0,0,0-4.427-3.335h-5.556a4.575,4.575,0,0,0-4.592,4.546v31.933a4.574,4.574,0,0,0,4.592,4.545h3.075a4.575,4.575,0,0,0,4.593-4.545v-5.561a4.583,4.583,0,0,0,4.227,2.771h1.16a4.576,4.576,0,0,0,4.355-3.106l0,9a4.575,4.575,0,0,0,4.592,4.546h3.2A4.575,4.575,0,0,0,1481.016,437.216Zm-2.381,0a2.2,2.2,0,0,1-2.213,2.19h-3.2a2.2,2.2,0,0,1-2.212-2.19l0-15.144a1.386,1.386,0,0,0-1.183-1.37,1.406,1.406,0,0,0-1.552.944l-1.9,5.808a2.205,2.205,0,0,1-2.106,1.516h-1.16a2.206,2.206,0,0,1-2.1-1.506l-1.772-5.338a1.4,1.4,0,0,0-2.733.434v11.557a2.2,2.2,0,0,1-2.214,2.19h-3.075a2.2,2.2,0,0,1-2.213-2.19V402.183a2.2,2.2,0,0,1,2.213-2.19h5.556a2.214,2.214,0,0,1,2.133,1.606l3.451,12.349,1.463,5.462,1.439-5.433,3.473-12.38a2.215,2.215,0,0,1,2.132-1.6h5.558a2.2,2.2,0,0,1,2.213,2.19Z" transform="translate(-1319.964 -396.698)" fill="#412614"/>
      <path id="Path_1555" data-name="Path 1555" d="M3,.007A3,3,0,0,1,6,2.984,2.968,2.968,0,0,1,3.012,5.948,3,3,0,0,1,.007,2.971,2.968,2.968,0,0,1,3,.007Z" transform="translate(33.657 12.554) rotate(-13.283)" fill="#de7229"/>
      <path id="Path_1382" data-name="Path 1382" d="M1357.891,416.813a5.325,5.325,0,1,0-5.38-5.324A5.358,5.358,0,0,0,1357.891,416.813Zm0-8.293a2.969,2.969,0,1,1-3,2.969A2.988,2.988,0,0,1,1357.891,408.519Z" transform="translate(-1320.625 -396.726)" fill="#412614"/>
      <path id="Path_1383" data-name="Path 1383" d="M1371.212,411.5a3,3,0,1,0,3-2.969A2.987,2.987,0,0,0,1371.212,411.5Z" transform="translate(-1320.494 -396.734)" fill="#de7229"/>
      <path id="Path_1384" data-name="Path 1384" d="M1374.229,416.813h0a5.325,5.325,0,1,0-5.38-5.324A5.359,5.359,0,0,0,1374.229,416.813Zm3-5.324a3,3,0,1,1-3-2.969A2.988,2.988,0,0,1,1377.229,411.488Z" transform="translate(-1320.51 -396.726)" fill="#412614"/>
      <path id="Path_1385" data-name="Path 1385" d="M1377.122,443.419h-5.3a2.028,2.028,0,0,1-1.814-2.186V430.454a2.829,2.829,0,0,1,.129-.922l.133-.378.337-.219a5.422,5.422,0,0,1,2.115-.687,2.858,2.858,0,0,0,1.234-.377l.05-.042a1.5,1.5,0,0,0,.367-.459l.008-.018a3.4,3.4,0,0,0,.171-1.15l.005-.121a24.768,24.768,0,0,0-.043-3.107,2.51,2.51,0,0,0-1.814-2.186,19.349,19.349,0,0,0-6.279-.881,20.106,20.106,0,0,0-6.509.881,2.661,2.661,0,0,0-1.815,2.186,12.472,12.472,0,0,0-.027,2.254c.015.344.027.627.027.855a2.431,2.431,0,0,0,.484,1.479l.026.037a1.306,1.306,0,0,0,.193.2,2.162,2.162,0,0,0,.181.151,3.006,3.006,0,0,0,1.114.345,6.251,6.251,0,0,1,1.839.574l.478.254.119.524a3.652,3.652,0,0,1,.071.8v10.779a2.029,2.029,0,0,1-1.815,2.186h-4.509L1346.108,406.8a2.2,2.2,0,0,0-2.1-1.519h-7.554a2.195,2.195,0,0,0-2.1,1.519L1323.32,446.5a2.162,2.162,0,0,0,.325,1.962,2.192,2.192,0,0,0,1.778.89h4.51a2.179,2.179,0,0,0,2.129-1.606l3.166-10.813a2.193,2.193,0,0,1,2.13-1.607h5.421a2.228,2.228,0,0,1,2.149,1.679l3.115,10.666a2.216,2.216,0,0,0,2.15,1.68h26.93a2.028,2.028,0,0,0,1.815-2.186v-1.557A2.029,2.029,0,0,0,1377.122,443.419Zm-33.95-15.891a2.2,2.2,0,0,1-1.744.845h-2.7a2.208,2.208,0,0,1-1.745-.845,2.16,2.16,0,0,1-.395-1.885h0l.236-.906c.308-1.2.642-2.475.985-3.777l.145-.55a2.212,2.212,0,0,1,4.275.013l1.34,5.226A2.151,2.151,0,0,1,1343.172,427.528Z" transform="translate(-1320.831 -396.723)" fill="#de7229"/>
      <path id="Path_1386" data-name="Path 1386" d="M1377.139,441.056h-4.733V430.71c.228-.06.489-.1.748-.149a4.774,4.774,0,0,0,2.311-.861c.071-.057.14-.115.159-.134a3.856,3.856,0,0,0,.928-1.219l.026-.058a5.413,5.413,0,0,0,.369-1.989l.005-.118a27.5,27.5,0,0,0-.05-3.433,4.858,4.858,0,0,0-3.313-4.16,25.758,25.758,0,0,0-14.561.011,5.017,5.017,0,0,0-3.265,4,14.3,14.3,0,0,0-.052,2.755c.012.272.023.52.023.72a4.791,4.791,0,0,0,.956,2.886,3.46,3.46,0,0,0,.521.567,4.4,4.4,0,0,0,.386.317,4.924,4.924,0,0,0,2.061.755c.2.04.4.078.583.125v10.331h-2.13l-9.7-34.909-.011-.038a4.563,4.563,0,0,0-4.382-3.19h-7.554a4.561,4.561,0,0,0-4.381,3.19l-11.036,39.722a4.465,4.465,0,0,0,.694,4.015,4.561,4.561,0,0,0,3.7,1.849h4.51a4.542,4.542,0,0,0,4.425-3.341l3.129-10.685h5.162l3.1,10.608a4.577,4.577,0,0,0,4.446,3.418h26.93a4.383,4.383,0,0,0,4.194-4.541V445.6A4.382,4.382,0,0,0,1377.139,441.056Zm1.815,6.1a2.028,2.028,0,0,1-1.815,2.186h-26.93a2.216,2.216,0,0,1-2.15-1.68l-3.115-10.666a2.228,2.228,0,0,0-2.149-1.679h-5.421a2.193,2.193,0,0,0-2.13,1.607l-3.166,10.813a2.179,2.179,0,0,1-2.129,1.606h-4.51a2.192,2.192,0,0,1-1.778-.89,2.162,2.162,0,0,1-.325-1.962l11.028-39.694a2.195,2.195,0,0,1,2.1-1.519h7.554a2.2,2.2,0,0,1,2.1,1.519l10.173,36.618h4.509a2.029,2.029,0,0,0,1.815-2.186V430.447a3.652,3.652,0,0,0-.071-.8l-.119-.524-.478-.254a6.252,6.252,0,0,0-1.839-.574,3.007,3.007,0,0,1-1.114-.345,2.167,2.167,0,0,1-.181-.151,1.308,1.308,0,0,1-.193-.2l-.026-.037a2.43,2.43,0,0,1-.484-1.479c0-.228-.012-.511-.027-.855a12.472,12.472,0,0,1,.027-2.254,2.661,2.661,0,0,1,1.815-2.186,20.107,20.107,0,0,1,6.509-.881,19.35,19.35,0,0,1,6.279.881,2.51,2.51,0,0,1,1.814,2.186,24.768,24.768,0,0,1,.043,3.107l-.005.121a3.4,3.4,0,0,1-.171,1.15l-.008.018a1.5,1.5,0,0,1-.367.459l-.05.042a2.857,2.857,0,0,1-1.234.377,5.422,5.422,0,0,0-2.115.687l-.337.219-.133.378a2.829,2.829,0,0,0-.129.922v10.779a2.028,2.028,0,0,0,1.814,2.186h5.3a2.029,2.029,0,0,1,1.815,2.186Z" transform="translate(-1320.848 -396.716)" fill="#412614"/>
      <path id="Path_1387" data-name="Path 1387" d="M1342.135,420.467a2.212,2.212,0,0,0-4.275-.013l-.145.55c-.342,1.3-.677,2.574-.985,3.777l-.236.906h0a2.16,2.16,0,0,0,.395,1.885,2.208,2.208,0,0,0,1.745.845h2.7a2.2,2.2,0,0,0,1.744-.845,2.151,2.151,0,0,0,.4-1.88Zm-3.28,5.594.181-.7c.3-1.174.625-2.408.958-3.674l1.121,4.371Z" transform="translate(-1320.738 -396.768)" fill="#412614"/>
    </g>
    <g id="Group_189" data-name="Group 189" transform="translate(1256.732 179.169)">
      <g id="Group_188" data-name="Group 188" clip-path="url(#clip-path-5)">
        <g id="雲" transform="translate(39.721 -14.038)">
          <path id="Path_1388" data-name="Path 1388" d="M1456.634,181.134c-9.109.6-16.938,5.663-24.209,10.537-7.051,4.727-14.138,9.481-20.235,15.147a20.611,20.611,0,0,1-5.205,3.995c-2.582,1.194-5.613,1.258-8.5,1.593a40.074,40.074,0,0,0-22.946,10.526c-2.043,1.966-3.817,4.145-5.924,6.058-6.668,6.053-16.066,8.96-24.572,12.826s-17,9.695-18.714,18a3.5,3.5,0,0,0,.41,3,5.152,5.152,0,0,0,2.538,1.333c5.112,1.571,10.99,3.094,15.7.744,4.4-2.195,6.219-7.073,10.321-9.681,5.509-3.5,13.3-1.94,19.626-4.121,5.351-1.846,9.068-6.152,13.931-8.852,4.9-2.722,10.742-3.7,16.286-5.183,15.865-4.238,29.736-12.763,43.307-21.157l22.02-13.619c9.147-5.657,18.405-11.368,28.809-14.96,11-3.8,24.2-5.869,30.434-14.715" transform="translate(-1303.646 -172.604)" fill="#fff"/>
          <path id="Path_1389" data-name="Path 1389" d="M1565.412,185.016c-9.267-2.425-17.166,6.038-26.122,9.244-3.62,1.3-7.582,1.734-11.177,3.083-6.379,2.394-10.978,7.385-16.76,10.758-10.336,6.029-25,7.36-31.26,16.789-2.4,3.614-3.356,8.223-7.2,10.681-2.361,1.509-6.123,3.26-4.8,5.549a4.347,4.347,0,0,0,1.882,1.459c4.9,2.5,11.056,4.474,16.044,2.122,3.316-1.565,5.318-4.723,8.516-6.47,5.321-2.909,12.533-1.252,18.159-3.677,4.174-1.8,6.747-5.507,9.651-8.7,7.433-8.185,18.369-13.834,30.1-15.547,3.313-.484,6.74-.68,9.815-1.869,3.953-1.527,6.881-4.511,10.023-7.118,9.378-7.782,21.344-12.6,33.077-17.287" transform="translate(-1302.651 -172.642)" fill="#fff"/>
          <path id="Path_1390" data-name="Path 1390" d="M1620.683,213.741c-6.527.251-13.752.769-18.249,4.948-2.841,2.638-4.179,6.433-7.442,8.659-4.582,3.127-11.4,2.16-16.353,4.8a21.255,21.255,0,0,0-5.614,4.925l-9.465,10.558c-.571.637-1.176,1.4-.96,2.191a2.626,2.626,0,0,0,1.428,1.381,17.469,17.469,0,0,0,17.455-.934c2.329-1.623,4.12-3.836,6.668-5.179,4.587-2.417,10.372-1.472,15.708-1.756,10.819-.577,20.249-6.387,29.034-11.986" transform="translate(-1301.985 -172.74)" fill="#fff"/>
          <path id="Path_1391" data-name="Path 1391" d="M1559.1,281.8c-6.663-.537-14.533,1.737-20.051,5.075-2.654,1.6-5.006,3.6-7.809,4.993-2.674,1.329-18.125,2.737-20.7,4.2-12.547,7.136-22.707,12.607-36.829,17.484-2.212.763-3,6.892-2.577,8.953,15.854,1.285,29.216-9.529,43.856-15.045,8.558-3.224,17.883-4.682,26.351-8.087s16.434-9.5,17.815-17.615" transform="translate(-1302.628 -172.965)" fill="#fff"/>
          <path id="Path_1392" data-name="Path 1392" d="M1319.2,266.779a24.184,24.184,0,0,0-14.178,6.928,4.464,4.464,0,0,0-1.1,1.582c-.487,1.453.656,3.036,2.2,3.708a9.805,9.805,0,0,0,5.057.415,35.257,35.257,0,0,0,10.721-3.221,12.65,12.65,0,0,0,4.488-3.117,4.338,4.338,0,0,0,.743-4.791c-1.257-2.242-5.036-2.282-7.737-1.516" transform="translate(-1303.803 -172.914)" fill="#fff"/>
          <path id="Path_1393" data-name="Path 1393" d="M1434.579,249.4c-4.324,2.247-8.718,4.692-13.69,5.3a39.521,39.521,0,0,1-7.436-.031c-2.337-.157-5.181-.645-5.909-2.609-.7-1.9,1.123-3.749,2.888-5,6.836-4.827,15.066-7.814,23.172-10.737a23.78,23.78,0,0,1,7.591-1.819c3.28-.055,7.134,1.057,9.468-.976,1.189-1.036,1.565-2.635,2.748-3.676,5.308-4.667,16.366,2.837,7.251,8.214C1452.883,242.655,1442.78,245.136,1434.579,249.4Z" transform="translate(-1303.075 -172.789)" fill="#fff"/>
          <path id="Path_1394" data-name="Path 1394" d="M1583.267,256.516c-3.673-1.295-6.59,3.09-9.076,5.8s-4.458,6.014-7.962,7.633c-2.2,1.017-5.132,1.517-6,3.567-.883,2.081,1.3,4.388,3.773,4.824s4.98-.441,7.258-1.39a83.445,83.445,0,0,0,16.5-9.173,17.781,17.781,0,0,0,4.985-4.8,6.035,6.035,0,0,0,.361-6.272c-1.909-3.11-7.846-3.256-9.948-.244" transform="translate(-1302.003 -172.874)" fill="#fff"/>
        </g>
      </g>
    </g>
    <g id="Group_217" data-name="Group 217" transform="translate(1212.7 137.48)">
      <g id="Group_215" data-name="Group 215">
        <path id="Path_1547" data-name="Path 1547" d="M1583.956,144.861H1282.033c-33.769,0-61.4,27.346-61.4,60.769V936.653c0,33.422,27.63,60.768,61.4,60.768h301.922c33.77,0,61.4-27.346,61.4-60.768V205.63C1645.354,172.207,1617.725,144.861,1583.956,144.861Zm35.6,787.271c0,22.117-18.283,40.211-40.627,40.211H1285.592c-22.345,0-40.627-18.095-40.627-40.211V209.85c0-22.117,18.282-40.211,40.627-40.211h39.225a1.775,1.775,0,0,1,1.769,1.794v3.9a22.6,22.6,0,0,0,22.651,22.419h164.83a22.6,22.6,0,0,0,22.651-22.419v-3.9a1.808,1.808,0,0,1,1.812-1.794h40.4c22.345,0,40.627,18.095,40.627,40.211Z" transform="translate(-1220.635 -144.861)" fill="#f6f6f6"/>
      </g>
      <path id="Path_1548" data-name="Path 1548" d="M1230.409,936.2c.544-5.493-.451-10.942-.449-16.432q.088-222.64.042-445.281,0-126.481.051-252.964c.005-5.908.632-11.817.971-17.725,1.695-12.208,5.978-23.229,15.045-32.043.7-.676,1.5-1.242,2.253-1.857.084,1.493-1.007,2.412-1.773,3.462a54.642,54.642,0,0,0-7.294,14.1c-3.461,9.781-4.33,20.014-4.335,30.24q-.119,277.876.029,555.751c.073,56.18-1.472,112.377,1.005,168.543.349,7.927,3.19,15.235,6.258,22.484,1.272,3,3.507,5.474,4.437,8.616a35.1,35.1,0,0,1-8.491-10.408A55.56,55.56,0,0,1,1230.409,936.2Z" transform="translate(-1220.569 -144.944)" fill="#d4d5d5"/>
      <path id="Path_1549" data-name="Path 1549" d="M1633.051,192.04c3.674,11.049,3.692,22.465,3.69,33.926q-.065,351.527-.093,703.054c0,5.194-.711,10.387-1.091,15.581-1.028,3.472-1.5,7.116-3.089,10.413-3.124,6.485-5.9,13.215-11.926,17.8a2.4,2.4,0,0,1,.6-1.954c2.646-3.284,4.139-7.216,5.674-11.018,4.26-10.552,5.429-21.759,5.433-32.969q.133-337.329.034-674.658c0-12.926.427-25.853-.387-38.787-.483-7.678-.962-15.233-3.183-22.706-2.2-7.408-5.007-14.314-10.591-19.875-.615-.613-1.42-1.143-1.348-2.185,2.107.579,3.249,2.376,4.677,3.76A45.2,45.2,0,0,1,1633.051,192.04Z" transform="translate(-1217.852 -144.94)" fill="#ebebeb"/>
      <path id="Path_1550" data-name="Path 1550" d="M1591.336,156.509c.111,1.15-1.211.824-.923,1.84a10.411,10.411,0,0,1,1.734.277c1.148.379,1.583.477.6,2.036-2.213,3.488-4.982,3.086-8.426,2.785-4.966-.435-9.971-.706-14.989-.7q-137.063.084-274.125.031a146.2,146.2,0,0,0-18.17,1.013,4.832,4.832,0,0,1-5.553-5.407c-3.846-.259-7.138,1.852-11.431,2.893,1.6-1.9,3.434-1.786,4.664-2.722,5.554-4.222,12.22-4.108,18.718-4.844,7.419-.84,14.84-.447,22.256-.451q122.953-.069,245.907-.029c7.212,0,14.425.042,21.637,0a67.344,67.344,0,0,1,11.954,1.152C1587.3,154.755,1588.921,156.759,1591.336,156.509Zm-87.946.559q-70.143-.937-140.161.042c6.9-.6,13.753,1.65,20.656.451a1.428,1.428,0,0,1,1.029.166c1.4,1.159,3.059.811,4.638.812q47.97.018,95.941.038C1491.519,158.588,1497.368,156.555,1503.391,157.068Zm2.053.126a4.016,4.016,0,0,0,3.048.052A4.025,4.025,0,0,0,1505.444,157.194Zm-231.09.883c-.316-.221-.5-.455-.689-.454-.2,0-.4.222-.6.348.164.16.313.425.5.452S1273.984,158.251,1274.354,158.077Zm237.82-.832a1.532,1.532,0,0,0-1.847,0A1.776,1.776,0,0,0,1512.174,157.244Z" transform="translate(-1220.358 -144.888)" fill="#d4d5d5"/>
      <path id="Path_1551" data-name="Path 1551" d="M1581.045,988.379c-3.393-1.173-6.073-3.884-10.05-3.881q-137.335.085-274.67-.079a23.574,23.574,0,0,0-11.191,3.051c-.7.359-1.5.942-1.539,1.742-.051.979,1.074,1.015,1.725,1.41a5.021,5.021,0,0,0,2.619.4c10.1.284,20.222-.514,30.317.482.915.091,1.989.383,2.783-.491q50.139.033,100.279.066,43.148.019,86.3.018c.456-.758,1.22-.613,1.914-.614q17.812-.022,35.623-.024a8.011,8.011,0,0,1,1.313.21c.4-.061.8-.125,1.192-.187-.122-.051-.243-.109-.365-.169a5.486,5.486,0,0,0-.726-.332,5.486,5.486,0,0,1,.726.332c.122.06.243.119.365.169,9.658.078,19.3.813,28.967.583,1.613-.038,2.873-.9,4.356-1.2C1582.2,989.607,1581.635,988.582,1581.045,988.379Z" transform="translate(-1220.193 -147.641)" fill="#d4d5d5"/>
      <g id="Group_216" data-name="Group 216" transform="translate(3.821 5.088)">
        <path id="Path_1552" data-name="Path 1552" d="M1601.143,153.455a98.935,98.935,0,0,0-21.755-3.109c-4.825-.214-9.657-.26-14.486-.381-.626.861-1.557.781-2.445.726-1.953-.124-3.9-.429-5.854-.429q-128.491-.03-256.981-.02a137.531,137.531,0,0,0-28.8,2.7c-.314.3-.52,1.048-1.092.254l-1.014.315c-.319.355-.575.951-1.159.3a56.842,56.842,0,0,0-15.657,7.3c2.462-.194,4.674-1.471,7.068-.6,1.191-.63,2.739-.292,3.77-1.358a82.591,82.591,0,0,1,25.034-4.775,10.76,10.76,0,0,1,4.505-.255c3.22-.076,6.442-.217,9.663-.217q126.746-.019,253.493-.015c1.161,0,2.321-.082,3.482-.126.963.081,1.925.216,2.89.231,5.323.082,10.647.136,15.972.2a3.571,3.571,0,0,1,2.325.171q2.137.085,4.272.171c9.27.381,17.99,3.148,26.686,6.021a2.625,2.625,0,0,1,2.2-.25l1.856-1.164C1610.491,157.184,1606.036,154.79,1601.143,153.455Z" transform="translate(-1224.236 -149.966)" fill="#ebebeb"/>
        <path id="Path_1553" data-name="Path 1553" d="M1245.116,169.582c-5.372,2.981-8.948,7.656-12.12,12.678-1.163,1.844-2.547,3.621-2.869,5.882a68.785,68.785,0,0,0-5.433,23.926c-.559,8.679-.054,17.467-.051,26.208q.021,70.461.052,140.921c0,.881-.1,1.761-.15,2.641q-.03.767-.058,1.535c-.008.191-.015.384-.023.576q-.015,9.568-.029,19.136a1.894,1.894,0,0,1,.046,1.609l.055,2.063c.054,4.153.147,8.306.155,12.461q.033,19.382.006,38.764c0,.879-.113,1.757-.172,2.635-.015.334-.031.668-.045,1a6.186,6.186,0,0,1-.05,3.2c.029,1.861.086,3.722.086,5.582q.006,214.865,0,429.73c0,4.256-.056,8.511-.086,12.766a13.286,13.286,0,0,1,0,6.425c.235,8.939-.1,17.9,1.4,26.783,1.733,10.232,5.845,19.235,13.379,26.579l.015-.152.155.007a5.482,5.482,0,0,0-.786-2.223,57.907,57.907,0,0,1-8.658-23.207,2.454,2.454,0,0,0-.352-.683c-.476.086-.962.472-1.129-.472a115.862,115.862,0,0,1-2.1-23.826c.023-.754-.514-2.1.873-2.026,1.069.059.548,1.288.618,2,.259,2.607-.43,5.27.447,7.845q.116-5.578.231-11.156a14.982,14.982,0,0,1-.035-5.347c-.029-1.24-.086-2.479-.086-3.719q0-335.541,0-671.08c0-.885.052-1.77.08-2.654a19.263,19.263,0,0,1,.009-5.868q0-8,.007-15.993l-.429-.241.441-.207.027-.022q.125-.544.251-1.086.227-2.394.452-4.786a1.282,1.282,0,0,1,.138-1.285,63.741,63.741,0,0,1,6.651-23.2c3.14-4.87,6.372-9.667,10.7-13.627.128-.118.041-.464.054-.7C1246.065,168.748,1245.648,169.286,1245.116,169.582Zm-19.3,405.135q0-167.369.046-334.736-.07,167.367-.045,334.736,0,167.234.049,334.468Q1225.788,741.95,1225.819,574.717Z" transform="translate(-1224.429 -150.029)" fill="#ebebeb"/>
      </g>
      <path id="Path_1554" data-name="Path 1554" d="M1432.9,967.546q-31.052,0-62.1,0c-.893,0-1.788-.067-2.68-.135a2.353,2.353,0,0,1-2.453-2.336c-.038-1.568,1.037-2.371,2.564-2.532a20.6,20.6,0,0,1,2.148-.072q62.372,0,124.745.009c2.024,0,4.707-.346,4.651,2.578-.056,2.9-2.78,2.467-4.767,2.47Q1463.948,967.568,1432.9,967.546Z" transform="translate(-1219.616 -147.568)" fill="#171818"/>
    </g>
  </g>
</svg>
