<svg xmlns="http://www.w3.org/2000/svg" xmlns:xlink="http://www.w3.org/1999/xlink" viewBox="0 0 730 855.39"><defs><style>.cls-1,.cls-13,.cls-3{fill:none;}.cls-2,.cls-27,.cls-29{fill:#fff;}.cls-2,.cls-3{opacity:0.15;}.cls-3{stroke:#fff;stroke-width:5px;}.cls-10,.cls-21,.cls-23,.cls-26,.cls-3{stroke-miterlimit:10;}.cls-4{fill:#aed5e0;}.cls-5{clip-path:url(#clip-path);}.cls-25,.cls-6{fill:#89ac69;}.cls-6{stroke:#57391f;}.cls-11,.cls-12,.cls-13,.cls-14,.cls-15,.cls-16,.cls-17,.cls-18,.cls-19,.cls-20,.cls-22,.cls-24,.cls-25,.cls-6{stroke-linecap:round;stroke-linejoin:round;}.cls-7{clip-path:url(#clip-path-2);}.cls-8{clip-path:url(#clip-path-3);}.cls-9{clip-path:url(#clip-path-4);}.cls-10{fill:#728871;}.cls-10,.cls-11,.cls-12,.cls-13,.cls-14,.cls-15,.cls-16,.cls-17,.cls-18,.cls-20,.cls-21,.cls-22,.cls-23,.cls-24,.cls-25,.cls-26{stroke:#442710;}.cls-11{fill:#67696c;}.cls-12{fill:#e24a50;}.cls-14{fill:#f4f4f3;}.cls-15{fill:#888a8d;}.cls-16{fill:#c9cacb;}.cls-17{fill:#dcdcdd;}.cls-18{fill:#c1a6ab;}.cls-19{fill:#353f33;stroke:#060001;}.cls-20{fill:#527c45;}.cls-21{fill:#b5c799;}.cls-22{fill:#d5c593;}.cls-23{fill:#9cbc7a;}.cls-24{fill:#c9bb8d;}.cls-26{fill:#b28f67;}.cls-27{opacity:0.17;}.cls-28{clip-path:url(#clip-path-5);}.cls-30{fill:#f7f8f8;}.cls-31{fill:#dcdddd;}.cls-32{fill:#efefef;}.cls-33{fill:#1e1f1e;}.cls-34{clip-path:url(#clip-path-6);}.cls-35{clip-path:url(#clip-path-7);}.cls-36{font-size:16px;fill:#484441;font-family:MicrosoftJhengHeiBold, Microsoft JhengHei;font-weight:700;letter-spacing:0.1em;}.cls-37{letter-spacing:0.09em;}.cls-38{fill:#e3883a;}.cls-39{fill:#52331a;}</style><clipPath id="clip-path"><rect class="cls-1" x="185.17" y="586.94" width="376.83" height="246.74"/></clipPath><clipPath id="clip-path-2"><rect class="cls-1" x="185.42" y="321.17" width="376.57" height="376.57"/></clipPath><clipPath id="clip-path-3"><rect class="cls-1" x="185.42" y="402.11" width="554.29" height="239.32"/></clipPath><clipPath id="clip-path-4"><rect class="cls-1" x="182.96" y="402.06" width="559.15" height="299.17"/></clipPath><clipPath id="clip-path-5"><rect class="cls-1" x="204.27" y="41.83" width="357.72" height="192.54"/></clipPath><clipPath id="clip-path-6"><rect class="cls-1" x="233.82" y="277.31" width="116" height="116"/></clipPath><clipPath id="clip-path-7"><rect class="cls-1" x="391.13" y="277.31" width="116" height="116"/></clipPath></defs><title>topPhone</title><g id="背景"><circle class="cls-2" cx="365.42" cy="431.38" r="299.93"/><circle class="cls-3" cx="365.42" cy="431.38" r="358.92"/></g><g id="物件"><rect class="cls-4" x="183.18" y="24.09" width="378.19" height="723.22"/><rect class="cls-1" x="198.7" y="135.11" width="368.87" height="655.19"/><g class="cls-5"><path id="大地" class="cls-6" d="M676,852.22c-.12,3.18-36.42,3.64-40,3.27-7.63-.8-3.84-1.63-11.69-3.23-24-4.91-57.3-7.42-84.33-7.51-49.83-.16-95.46,9.2-140.47,16.47-43.74,7.07-97.91,8.88-144.88,8.53-14.92-.11-147.14-7.42-148.18-3.76.65-2.29,19.65-2.41,20.84-5.13-.06.13-11.68-3.25-12.77-3.88-4-2.28-4-4.93-4.74-7.55-2.2-7.37.37-15.38,1.41-22.76,2.48-17.64,7.54-35.48,4.09-53.16-4-20.63-11-40.07-11.1-60.79-.11-22.3-.88-18.54-.29-40.84.18-6.8-1.7-14.32.27-21.09,3.79-13,39.79-21.27,62.23-26.48,54.27-12.6,184.23-10.27,287.79-12.23,55-1,86.12,2.91,108.4,5.78a249.41,249.41,0,0,0,33.83,1.87c9.27-.09,14.39-1.11,24.4-.83,5.82.17,38.74,1.27,41.85,2.73,6.39,3,3.25,17.77,4.09,21.77,2.49,11.8,5.1,23.59,7.53,35.39,5.67,27.58,11.58,55.3,11.47,83,0,8.75.09,17.84-5,26.4-12,20.1-39.06,38.83-52.74,59"/></g><g class="cls-7"><g class="cls-8"><g class="cls-9"><path class="cls-10" d="M145.65,556.37l478.47,33.95s1.4-13.12-1.59-13.61-34.34-11.18-41.08-11.79-113.25,2.32-120.17-1.2-10.17-7-13.79-7.41c-7.49-.9-12.33,4.34-17.93,4.27s-15.94-8.48-23.95-9.42-21.65,5-28.34,4.4-39-14.87-49.66-15.74-48.35,3.44-53.21,3.32-23.93-7.49-29.16-8-24.68,6.5-30,5.89-39.63-9.91-44-10.2"/><path class="cls-11" d="M249.05,488s35.83-7.73,43.14-8.51S312,480.61,320,504.69c-10,.41-75.91,10.7-75.91,10.7Z"/><path class="cls-12" d="M322.52,553s-2.58-29.32-3.61-43.29c-3.8-12.42-13.29-28.82-24.68-27.26s-30.37,5.18-43.31,7.25-21.05,25.54-21.05,25.54L226,553Z"/><line class="cls-13" x1="272.11" y1="514.69" x2="270.41" y2="548.4"/><path class="cls-13" d="M296,482.38c-20.9-.89-23.84,25.17-23.84,25.17"/><polygon class="cls-14" points="289.11 490.31 289.11 495.36 303.64 495.81 302.8 490.79 289.11 490.31"/><polygon class="cls-14" points="292.08 495.45 291.58 504.69 300.37 504.69 300.37 495.71 292.08 495.45"/><polygon class="cls-14" points="282.07 521.73 279.22 524.83 295.97 550.53 298.39 548.4 282.07 521.73"/><polygon class="cls-14" points="311.12 522.76 313.64 526.13 297.41 553.04 293.82 552.32 311.12 522.76"/><polygon class="cls-14" points="276.91 549.45 278.12 520.39 281.53 520.39 280.68 549.45 276.91 549.45"/><polygon class="cls-14" points="294.94 550.66 296.15 521.6 299.56 521.6 298.71 550.66 294.94 550.66"/><polygon class="cls-14" points="312.12 549.99 311.4 521.29 314.81 521.29 315.89 549.99 312.12 549.99"/><polygon class="cls-14" points="277.67 519.53 277.67 522.93 315.48 524.83 315.35 521.23 277.67 519.53"/><polygon class="cls-14" points="270.63 507.56 320.72 510.13 320.72 516.6 272.54 514.61 227.75 522.42 228.95 515.61 270.63 507.56"/><polygon class="cls-14" points="234.85 529.16 234.51 535.46 238.81 535.22 239.84 528.44 234.85 529.16"/><polygon class="cls-14" points="254.59 525.41 254.23 533.71 259.31 533.35 260.07 524.42 254.59 525.41"/><polygon class="cls-14" points="233.79 526.6 233.1 529.57 241.75 528.32 242.39 524.83 233.79 526.6"/><polygon class="cls-14" points="252.53 522.97 252.53 526.34 262.17 524.95 262.88 521.05 252.53 522.97"/><path class="cls-15" d="M292.19,479.45s-31.24,4.61-45.13,9.12-19.51,24.66-19.51,24.66l42.12-7.75S273.87,480,292.19,479.45Z"/><polygon class="cls-14" points="340.79 500.72 333.01 557.41 338.56 560 346.75 499.23 340.79 500.72"/><polygon class="cls-14" points="361.04 496.72 355.97 497.26 369.47 559.27 376.31 560.25 361.04 496.72"/><polygon class="cls-16" points="349.35 497.32 351.4 554.79 356.9 556.41 352.99 496.93 349.35 497.32"/><path class="cls-14" d="M337.52,478.75c-6.9,2.49-7,23.61,2.42,22.61s19.72-2.84,27.15-3.82,3.63-24.46-4.36-23.6S337.52,478.75,337.52,478.75Z"/><path class="cls-14" d="M359.68,479.61s-3.55,7.73,1.56,14.53"/><polygon class="cls-17" points="342.87 508.13 342.57 511.36 362.49 513.83 361.88 508.11 342.87 508.13"/><polygon class="cls-17" points="341.92 519.04 340.48 522.71 364.31 527.3 363.3 521.4 341.92 519.04"/><polygon class="cls-17" points="339.86 531.57 339.44 535.32 366.7 538.56 366.18 533.68 339.86 531.57"/><polygon class="cls-17" points="338.64 543.3 338.41 545.99 370.13 550.87 368.92 545.53 338.64 543.3"/><polygon class="cls-18" points="373.34 472.88 370.14 481.92 371.81 484.11 375.45 474.66 373.34 472.88"/><polygon class="cls-18" points="371.33 486.85 370.26 490.62 374.3 497.68 375.7 493.36 371.33 486.85"/><path class="cls-18" d="M365.24,480.69c-2.23.54-2.11,10.36,1.14,10.63s9.37-1.74,8.46-6.79S368.65,479.87,365.24,480.69Z"/><path class="cls-18" d="M363.6,476.92s3.53,6.42,4,6.49a1.71,1.71,0,0,0,1.69-1.41c.25-1.07-3.77-8.54-3.77-8.54Z"/><polygon class="cls-18" points="362.12 479.34 367.14 471.7 354.65 446.33 345.12 457.64 362.12 479.34"/><polygon class="cls-18" points="375.35 489.72 372.33 496.75 382.22 514.43 385.67 502.94 375.35 489.72"/><polygon class="cls-18" points="372.09 472.72 375.26 479.46 383.76 460.17 379.53 451.52 372.09 472.72"/><path class="cls-18" d="M363.55,496.33s2.81-6.57,3.4-6.87,1.72,2.13,1.72,2.13l-2.84,8Z"/><polygon class="cls-18" points="362.41 491.88 368.14 500 359.84 526.23 353.28 514.91 362.41 491.88"/><polygon class="cls-19" points="559.58 539.91 555.1 561.12 562.73 561.12 563.7 539.91 559.58 539.91"/><polygon class="cls-19" points="574.73 539.19 570.97 539.91 572.03 561.12 577.03 559.43 574.73 539.19"/><rect class="cls-19" x="535.1" y="539.19" width="3.51" height="14.91"/><polygon class="cls-19" points="545.92 541.18 544.79 557 551.1 557 551.1 539.91 545.92 541.18"/><polygon class="cls-19" points="609.51 537.25 609.51 554.09 614.12 554.09 614.12 536.16 609.51 537.25"/><polygon class="cls-19" points="646.96 537.98 646.96 554.7 652.54 555.91 651.2 537.98 646.96 537.98"/><polygon class="cls-19" points="634.36 535.55 629.39 536.76 629.39 556.4 632.66 555.18 634.36 535.55"/><polygon class="cls-19" points="622 533.85 619.33 534.7 620.24 554.94 624.66 554.09 622 533.85"/><polygon class="cls-19" points="584.06 537.25 584.06 551.31 588.18 552.38 586.73 537.98 584.06 537.25"/><path class="cls-19" d="M593.21,539.33s-2.43-.7-2.37,1,2.37,15,2.37,15l3.7-1Z"/><polygon class="cls-19" points="599.45 537.25 599.45 551.55 604.12 551.55 602.6 536.16 599.45 537.25"/><polygon class="cls-19" points="663.44 543.07 662.96 555.33 668.78 557.61 668.78 539.19 663.44 543.07"/><polygon class="cls-19" points="676.05 539.91 676.05 559.18 680.29 559.18 679.56 539.91 676.05 539.91"/><polygon class="cls-19" points="686.83 537.98 686.83 559.18 693.38 559.18 692.17 539.19 686.83 537.98"/><path class="cls-19" d="M699.92,540.52c-.61.12-1.09,20.6-1.09,20.6h3.27l.73-21.94Z"/><polygon class="cls-19" points="707.2 541 707.2 561.12 710.95 561.12 710.1 541 707.2 541"/><polygon class="cls-19" points="640.42 537.98 638.96 556.4 643.45 556.4 643.45 537.98 640.42 537.98"/><path class="cls-20" d="M586.94,525.15c.1-1.23-1.08-2.14-2.2-2.48s-2.36-.44-3.23-1.26c-.44-.41-.78-1-1.35-1.15s-1.19.25-1.8.31a6.91,6.91,0,0,1-2.34-.69c-.79-.22-1.9.16-1.87,1a10.13,10.13,0,0,0-5.77-2.67,2.78,2.78,0,0,0-1.86.3c-.44.29-.74.79-1.2,1-.79.4-1.72-.06-2.59,0-1.32.13-2.2,1.45-3.28,2.25-2.81,2.07-6.68.55-10,1.29-3.18.7-6,3.47-9.22,2.91-1.21-.21-2.56-.88-3.58-.14-.63.46-.89,1.35-1.51,1.85-1,.82-2.43.26-3.67,0s-3,.28-2.89,1.63a57.15,57.15,0,0,1-9.27.22,1.37,1.37,0,0,0-1.19.31c-.47.57.07,1.49-.19,2.19s-1.09.8-1.75,1c-1.95.64-3,2.77-4.22,4.53a18,18,0,0,1-5.11,5,3.14,3.14,0,0,0-1,.84c-.85,1.29.51,2.91,1.73,3.81-2.19,1.05-2.34,5-.23,6.19-1.92,1.84-2,5.27-.51,7.52a8.08,8.08,0,0,0,6.74,3.4,5,5,0,0,0-1,3.24c.39.74,1.44.24,2.09-.25s1.88-.67,2,.17c.51-1.61,2.53-2,4.1-1.62s3.15,1.1,4.69.67c-.44.88.72,1.82,1.65,1.65a16.16,16.16,0,0,0,2.55-1.24c2.82-1.07,5.6,2.14,8.59,2.07,1,0,2-.44,3-.37,1.52.09,2.83,1.21,4.34,1.5,2.13.4,4.16-.91,6.17-1.78,3.95-1.71,8.33-1.76,12.59-1.78a8,8,0,0,1,4.53.88,2.85,2.85,0,0,1,3.16-1.47,8.35,8.35,0,0,1,3.3,1.75,2.52,2.52,0,0,1,1.81-2.51,7.68,7.68,0,0,1,3.21-.07c4.78.48,9.58-.19,14.34-.86,4.26-.6,8.85-1.37,11.88-4.6a13.94,13.94,0,0,1,2.27-2.31,12.5,12.5,0,0,0,2.17-1.31c1.37-1.36.87-3.74.27-5.62"/><path class="cls-20" d="M704.64,504.23a5.41,5.41,0,0,0-6.28,1.77,3.39,3.39,0,0,0-2.29-3.57,3,3,0,0,0-3.3,2.3c-.49-3.21-3.64-5.52-6.38-4.68a14.88,14.88,0,0,1-2.5.87,5.65,5.65,0,0,1-2.84-.69l-8.22-3.59c-1.23-.54-3.32-.3-3,1.17.91-.57.78-2.25,0-3a4.48,4.48,0,0,0-2.91-1l-14.21-1.46c-1.69-.17-3.83,0-4.46,1.76a2,2,0,0,0-3.26.51c-3-3.79-9.15-3.06-11.41,1.35a10,10,0,0,0-10.13,0,10.68,10.68,0,0,1-9.34,1.48c-1.93-.62-3.72-1.79-5.7-2.1s-4.35.65-4.9,2.87c-2.32-2.85-7.25-1.39-8.1,2.39l-2.32-.6L592,502.64a11.1,11.1,0,0,0-9.15,1.36,5.2,5.2,0,0,0-2.88-1.87,2,2,0,0,0-2.09,2.27,3.13,3.13,0,0,0-2.91-1.82c.73,1.73-1.19,3.26-2.67,4.16s-2.85,3.45-1.4,4.41c-3.59,1.46-8,4.55-6.93,8.76-3.28-1.23-7,.59-9.29,3.52S551.11,530.2,550,534c-1.42-.23-2.74,1.1-3.24,2.64a12.64,12.64,0,0,0-.24,4.89l-6.72.44a4.5,4.5,0,0,1,2.33,4.07c0,.77-.2,1.53-.2,2.3a9.34,9.34,0,0,0,1.72,4.72c1.78,3,3.65,6.09,6.39,7.89s6.6,1.88,8.71-.81c4.34,2.52,9.56,1.66,14.27,3.07,4.31,1.28,8.25,4.47,12.7,4.4,3.95-.07,7.51-2.71,11.39-3.54a25.15,25.15,0,0,1,5.62-.34,44.6,44.6,0,0,1,10.7,1c6.07,1.59,12.86,5.57,18,1.48a8,8,0,0,0,6.65,3.45l1.11-1.91c-.06,3.21,3.69,4.28,6.48,4.29l8.42,0c2.51,0,6-1.31,5.41-4.12.56,3.76,4.6,5.33,7.9,5.06s6.67-1.6,9.85-.55a1.86,1.86,0,0,1,1.61-2.33,5.83,5.83,0,0,1,2.87,1c2.56,1.3,5.41,1.54,8.2,1.76l14.34,1.14c3.07.24,6.27.46,9.08-1s5-5.09,4.1-8.46l5.08-.79,0-24.12c0-5.39-.2-11.35-3.41-15.27-1.57-1.92-3.8-3.24-4.77-5.63-.8-2-.57-4.29-1-6.42-.64-3.23-2.3-2.79-4.25-4.08C707.41,507.2,706.57,505,704.64,504.23Z"/><path class="cls-21" d="M153.16,573.92c10.6-9.58,24.44-14.73,38.25-18.41,62-16.51,127.85-7.07,190.62,6.33s125.58,30.74,189.76,29.82c2.63,0,5.64.06,7.33,2.07,1.12,1.33,1.34,3.18,1.52,4.91L585,641c-28.83,7.19-59.08,3.29-88.67.73-96-8.29-192.65-1.92-289-.94-17.56.18-35.19.17-52.56-2.36-2.74-.4-5.58-.91-7.77-2.6s-3.47-4.42-4.47-7.06a77,77,0,0,1,0-53.91"/><path class="cls-22" d="M295.81,555.6c3.15,3.19,5.46,7.48,5.3,12-.2,5.53-4,10.18-6.57,15.07a38.81,38.81,0,0,0-2.12,31.27c1,2.81,2.53,5.64,5.1,7.2a15.86,15.86,0,0,0,6.81,1.75,251.17,251.17,0,0,0,30,1.13A46.75,46.75,0,0,1,320,608.8c-3.39-6.13-4.9-13.45-3.33-20.28,1.15-5,3.89-9.63,4.26-14.75.48-6.54-3-12.73-7.11-17.83-1.94-2.4-3.91-5.06-6.76-6.23-4.89-2-11.26-1.9-17.11-2.2-3.06-.16-3.45,1-1.1,2.83S293.72,553.48,295.81,555.6Z"/><path class="cls-23" d="M108.11,596.49c.08-5.29,10.44-7.75,18.56-7.3s16.83,2.22,24-.29c3.2-1.12,5.9-3,9.51-3.3,4.11-.29.23,13.88,32.23,19.56,22.31,4,47,14.18,90.17,12.29,5.09-.22,33.93-6.93,61.57-11.66,13.1-2.24,108.51-43.61,121.68-45.69,41.44-6.54,49.43-5.26,91.14-11,10-1.38,38.75-1.7,49-2.21,8.33-.41,53.78,4.6,62.05,5.36,53.32,4.88,58.14,9.76,111.5,5,9.61-.85-30.66,13.38-21.88,16,16.47,5,19,19.25,19.44,31.06,2.28,67.74-14.63,167.56-4.23,235,3.75,24.32,8,48.61,9.81,73,2.17,30,.55,303.82-1.07,333.79-.21,3.8-.51,7.81-3.67,11-5.24,5.3-16.16,6.49-25.8,7.13-208.84,13.88-419.41-.64-628.15-15.16-3.94-76.22-41.57-396.29-21.33-471.4,7.38-27.39,22.28-53.64,33.71-80.43,12.14-28.45,2.21-61.49,10.43-90.52"/><path class="cls-24" d="M558.94,615.35c58.89,59.32,25.89,123.88,27.34,124,19.19,2.21,81.32,10,100.63,9.57-1.1-6.41,8.28-109.16-95.79-162.71-26.7-13.74-56.9-37.11-73.26-35.73-5.46.46-31.38,2.57-35.1,7C487.46,558.58,527.11,583.29,558.94,615.35Z"/></g></g><path class="cls-25" d="M185.58,672.87s.2-5.68-2.14-7.49c3.14.07,7,0,7.88,3.8,1.88-3.87,3.35-7.34,7.16-9-1.4,5.08-1.34,9.89,0,11.23,1.74-6,2.54-9.16,6.15-10.7-.13,6,0,9.49,2.47,11.43.67-7.62,3.61-12,3.61-12s.6,5.4,1,9.15c3.28-6.74,6.35-6.41,8.16-4.6-2.47,1.54-4.88,8.16-4.88,8.16"/><path class="cls-25" d="M228.37,670.89c-1.47-2.54-2-6.08-5.15-6.15,3.94-1.87,8.76-1.09,9.76,3.33,1.47-6.27.67-9.28,4.81-11.29-.2,4.61-1.54,9,0,11.77,1.47-4.68,5.35-13.37,9.49-10.23-1.74,2.21-4.95,7.15-4,9.56,2.94-3.94,2.27-6.35,6.15-5.81-.13,2.34-2.14,7.76-2.14,7.76,3.61-2.74,4.61-10,8.22-8.82-1.6,2.29-2.74,4.66-1.74,7.08,3-4.54,4.88-5.74,7-3.27-2.34,2.34-4.61,3.41-4.35,6.08"/><path class="cls-25" d="M270.36,672.36s-1.55-8.15-4.26-8.15a8.27,8.27,0,0,1,8.88,6.42c.3-5,.45-8.77-2.11-10.78,6.62,3,5.57,7.62,6.22,10.23.85-3.86,2.46-9.38.85-11.23,3.86,4.61,3.93,8,4,11.73,1.12-6,3.62-13.79,7-12.84a44.71,44.71,0,0,0-2.75,11.36c2.75-5.55,4.71-8.85,7.37-8.46-2.16,2.71-4.06,5.57-3.11,9.43,2.26-5,3.71-7.07,6.19-7-.88,2.14-3,4.91-2,7.22,1.2-3.46,5.21-3.76,5.21-3.76s-2.31,3.52-2.71,5.84"/><path class="cls-25" d="M304.48,672.49s3.22-4.13-.85-11c5.61,3.32,8.15,4.16,8.45,8.39,0-4.29-.54-6.15,4.15-9.9a19.34,19.34,0,0,0,1.42,11.39c2.07-3.32,1.81-5.35,1.42-8.73,3,3,4,2.58,3.61,6.33,3-3.14,3-8.66,7.78-6.6-2.15,1.51-2.4,2.86-1.64,6.3,1.69-1.75,2.25-4.3,4.61-4.55a4.85,4.85,0,0,0,.31,4.25c2.25-1.29,2.55-2.89,2.7-6,2.46,1.91,3.2,4.07,2.35,8.42,0,0,3.24-7.58,9-4.59-2.47,1.92-4.68,3-5.35,7.06"/><path class="cls-25" d="M519.25,675.21s.33-3.88-3.81-8.76c4.95.67,6.7,1.68,8.6,4.75-.18-5.22.56-11.5,3.1-13.44-.13,5.82.06,11.58,2,14.08.6-4,2.61-4,1.41-8.27,3.68,2.34,5.19,4.72,4.27,8.51,2.49-4.5,1.08-11.72,6.63-10.38-.67,2.87-2.07,6.22-2.14,9.83,2.34-2.67,5.08-3.34,5.15-8.09.94,3.48,2.63,3.1.45,7.93,3.63-3.92,3.76-4.53,7.91-4.26-2.21,1.67-3.21.42-4.28,5.63"/><path class="cls-25" d="M471.89,673.57s1.64-7.77-.56-11.65c3.48,1.47,7.15,8.62,7.15,8.62a17.56,17.56,0,0,0-1.4-10.23c4.08,2.41,7.09,9.89,7.09,9.89s1.61-6.41-.8-11.57c4.55,4.95,6.32,12.23,6.32,12.23s1.5-6.15,1-9c3,1.94,2.81,3.54,2.87,8.36,1.34-7.29,2.81-8.76,5.08-11.63-.2,2.67.8,7.76-.4,11.43,2.41-3.88,2.67-7.29,4.95-7.76-.87,3-1.27,3.88-.27,7.09,2.61-3.74,3.88-3.61,7.09-2.67-1.6,1.14-4.19,3-4.19,6.84"/><path class="cls-25" d="M390.57,675.09s.4-5.46-1.47-9.48c3.74,2.53,5.88,1.64,7.09,7.5a89.83,89.83,0,0,0-2.33-12.95s7.94,5,8.08,12.95c1.2-5.64.8-14.16.8-14.16a36.85,36.85,0,0,1,5.08,13.77,44.28,44.28,0,0,1,5.08-11v10.76c1.2-1.93,2.94-9.82,7.62-9.15-1.74,2.41-2.27,5.54-2.14,9.79.8-2.83,6.69-7.5,6.69-7.5a29.53,29.53,0,0,0-1.74,8.81"/><path class="cls-25" d="M352.66,673.22s-.07-5.62-4.21-4c3.94-2.47,7.15-3.76,8.16,1.86,1.47-2.8,2.21-4.4,1.54-7.28,2.14,2.54,3.48,3.13,2.67,8.42,1.07-4.74,2-8.69,6.55-9.42-2.14,3.34-3.79,7.38-1.63,8.84,1.63-2.75,2.36-2,2.5-5.14,1.2,2.66,1.42,3.45,1.91,4.69.49-4.64,1.43-8.39,5-8.39-.87,1.87-2.19,3.22-1.7,7.73,2.43-2,2.7-2.22,2.9-5.44a7.11,7.11,0,0,1,1.6,5.54c1.14-2.67,1.4-2.67,4.81-2.61-1.6,1.54-2.21,1.34-3.28,5.21"/><path class="cls-25" d="M431.82,674.68s3.16-7.49,0-11.23c3.33,1.47,4.8,2.27,5.2,7,.8-4.55,3.68-3.81,2.74-8.36,2.27,3.81,1.6,4.47,2.47,9.23.47-3.81,1.81-11.83,6-11.7-.53,2.47-2.18,6.67-1.46,12.46,2.26-3.37,3.33-5.11,3.06-8.52,1.67,2.47,3.21,2.46,1.87,8.15,2.21-4.27,2.61-6.28,5.68-8.42-.47,4.21-1.4,4-1.2,8.78,2.21-3.3,2.47-3.58,3.74-5.48.86,2.58.33,3.74,0,6.14,1.81-3.22,3.54-3.15,6.08-2.62-1.4,1.34-3.14,1.54-3.41,5"/><path class="cls-26" d="M178.54,629.5c2.85-.36,19.79.46,23.15,0s38-.46,41.5-.08,38.52,0,41.5.18,37.67-.67,41.5-.47,37.25.63,41.54.5,38,1.05,43.53.79c4.29-.2,34.11-1.55,39.43-1.32s36.71,1,41.5.76,38.53.92,44.72.81,23.41.12,26.16,0,4.13,9.32,4.13,9.32a25.39,25.39,0,0,1-2.75,3.71c-.69.46-28.82,1.39-30.76,1.24s-40.15-.77-43.25-.77-32-1.24-39.75-.93-40.46,1.78-43.56,1-37.87-1-40.62-.85-37.18.77-42.34.46-33.16-.62-39.47-.62-36.75-.31-41.5-.31-40.38.46-41.5.46-20.39-1.37-23.15-1.84S176.87,629.71,178.54,629.5Z"/><path class="cls-26" d="M191.51,667s-2.76-42.56-2.24-46.41,7.92-14,10.67-14,13.77,8.26,13.77,10.16,1,48.37,0,50.26S193.4,668.25,191.51,667Z"/><path class="cls-26" d="M232.76,666.79s-2.62-46.36,0-49.57,9.55-9.52,11.43-10.38,8.62,8.78,9,10.84,3.37,46.36,0,48.19S232.86,668.66,232.76,666.79Z"/><path class="cls-26" d="M284.68,606.74c2.29.5,11.59,10.1,11.76,11.65s2.41,48.88-1.2,48.88-19.62,1.38-21-1.2-2.93-45.78-1.72-47.85S280.72,605.88,284.68,606.74Z"/><path class="cls-26" d="M314.66,667.25c1.39,2.15,20.65,3,22.2.71s2.58-47.36,1.55-49.77-9.57-12.39-11.67-12.39S315.69,617,314.66,619.4,312.76,664.32,314.66,667.25Z"/><path class="cls-26" d="M369,604.39c1.89,0,10.67,12.39,11,14.29s-.69,46.69-2.41,49.59-19.11,3.67-20.48,1.22-2.58-48.24-1.2-50.82S366.06,604.39,369,604.39Z"/><path class="cls-26" d="M410.72,604.24c2.72,0,11.13,16.28,11.13,18s.58,46.53-1.49,47.74-20.31,2.41-22.55,0-1.38-47,0-48.37S408.83,604.26,410.72,604.24Z"/><path class="cls-26" d="M492.17,603.63c2,0,10,9.55,11.82,13.59,1.54,3.38,2.33,53.33-1.36,54.39s-19.82.94-22.15-1.37-1.37-48.91,0-53.13C481,615.41,489.65,603.64,492.17,603.63Z"/><path class="cls-26" d="M449.7,602.39c3,0,11,10,12.47,13.95s1.93,53.52,0,54.69-20.83.8-22.42-1.4-2.67-48.58-1.13-51.52S446.72,602.39,449.7,602.39Z"/><path class="cls-26" d="M534,604.44c1.72,0,12.28,15,12.28,17s-.66,46.35-2.05,48.7-20.58,1.64-21.7,0-2.41-43.12,0-48.7S530.28,604.53,534,604.44Z"/></g><rect class="cls-27" x="180.88" y="23.13" width="385.96" height="810.35"/><g class="cls-28"><g id="雲"><path class="cls-29" d="M395.64,36.3c-9,.6-16.82,5.68-24,10.57-7,4.74-14,9.51-20.09,15.2a20.51,20.51,0,0,1-5.17,4c-2.56,1.2-5.57,1.26-8.44,1.6a39.61,39.61,0,0,0-22.79,10.56c-2,2-3.79,4.16-5.88,6.08-6.62,6.07-16,9-24.4,12.87s-16.88,9.73-18.58,18.06a3.55,3.55,0,0,0,.41,3,5.11,5.11,0,0,0,2.52,1.34c5.08,1.58,10.91,3.1,15.59.75,4.37-2.2,6.18-7.1,10.25-9.71,5.47-3.51,13.21-1.95,19.49-4.14,5.31-1.85,9-6.17,13.83-8.88s10.67-3.71,16.17-5.2c15.76-4.25,29.53-12.8,43-21.23l21.87-13.66c9.08-5.68,18.28-11.41,28.61-15,10.92-3.81,24-5.89,30.22-14.76"/><path class="cls-29" d="M504.65,40.16c-9.2-2.43-17,6.06-25.94,9.28-3.59,1.3-7.53,1.74-11.1,3.09-6.33,2.4-10.9,7.41-16.64,10.79-10.26,6-24.82,7.38-31,16.84-2.38,3.63-3.33,8.25-7.15,10.72-2.34,1.51-6.08,3.27-4.76,5.57a4.32,4.32,0,0,0,1.87,1.46c4.86,2.51,11,4.49,15.93,2.13,3.29-1.57,5.28-4.74,8.46-6.49,5.28-2.92,12.45-1.26,18-3.69,4.15-1.81,6.7-5.53,9.58-8.73a50.45,50.45,0,0,1,29.89-15.6c3.29-.49,6.69-.68,9.75-1.87,3.92-1.53,6.83-4.53,10-7.14,9.31-7.81,21.2-12.64,32.85-17.34"/><path class="cls-29" d="M560.19,68.88c-6.48.25-13.66.77-18.12,5-2.82,2.65-4.15,6.45-7.39,8.69-4.55,3.14-11.32,2.17-16.24,4.82a21.16,21.16,0,0,0-5.58,4.94l-9.4,10.59c-.57.64-1.17,1.41-1,2.2a2.62,2.62,0,0,0,1.42,1.39,17.19,17.19,0,0,0,17.33-.94c2.31-1.63,4.09-3.85,6.62-5.2,4.56-2.43,10.3-1.48,15.6-1.76,10.74-.58,20.11-6.41,28.83-12"/><path class="cls-29" d="M498.4,136.94c-6.62-.54-14.43,1.74-19.91,5.09-2.64,1.61-5,3.61-7.75,5s-18,2.75-20.56,4.22c-12.46,7.16-22.55,12.65-36.57,17.54-2.2.77-3,6.91-2.56,9,15.74,1.29,29-9.56,43.55-15.09,8.5-3.24,17.76-4.7,26.17-8.11s16.32-9.53,17.69-17.67"/><path class="cls-29" d="M259,121.92a23.92,23.92,0,0,0-14.08,7,4.47,4.47,0,0,0-1.09,1.59c-.48,1.46.65,3,2.18,3.72a9.64,9.64,0,0,0,5,.42,34.74,34.74,0,0,0,10.65-3.23,12.55,12.55,0,0,0,4.46-3.13,4.39,4.39,0,0,0,.74-4.81c-1.25-2.25-5-2.29-7.68-1.52"/><path class="cls-29" d="M374.3,104.6c-4.29,2.25-8.66,4.71-13.59,5.32a38.84,38.84,0,0,1-7.38,0c-2.32-.16-5.14-.65-5.87-2.62s1.12-3.76,2.87-5c6.79-4.84,15-7.84,23-10.77a23.43,23.43,0,0,1,7.54-1.82c3.26-.05,7.08,1.06,9.4-1,1.18-1,1.55-2.64,2.73-3.69,5.27-4.68,16.25,2.85,7.2,8.24C392.48,97.84,382.45,100.33,374.3,104.6Z"/><path class="cls-29" d="M523,111.66c-3.65-1.3-6.54,3.1-9,5.82s-4.43,6-7.91,7.66c-2.18,1-5.1,1.52-6,3.58s1.29,4.4,3.75,4.84,4.94-.44,7.21-1.4a82.59,82.59,0,0,0,16.38-9.2,17.74,17.74,0,0,0,4.95-4.81,6.11,6.11,0,0,0,.36-6.29c-1.9-3.12-7.79-3.27-9.88-.25"/></g></g><path class="cls-30" d="M521.34,0H221.52a61.15,61.15,0,0,0-61,61V794.42a61.15,61.15,0,0,0,61,61H521.34a61.15,61.15,0,0,0,61-61V61A61.15,61.15,0,0,0,521.34,0Zm35.35,789.89a40.46,40.46,0,0,1-40.34,40.34H225.05a40.46,40.46,0,0,1-40.34-40.34V65.2a40.46,40.46,0,0,1,40.34-40.34h39a1.77,1.77,0,0,1,1.76,1.8v3.92a22.56,22.56,0,0,0,22.49,22.49H451.93a22.56,22.56,0,0,0,22.49-22.49V26.66a1.8,1.8,0,0,1,1.8-1.8h40.12A40.46,40.46,0,0,1,556.69,65.2Z"/><path class="cls-31" d="M170.32,793.89c.54-5.51-.45-11-.45-16.49q.09-223.38,0-446.76,0-126.9.05-253.8c0-5.93.63-11.86,1-17.78,1.68-12.25,5.94-23.31,14.94-32.15.69-.68,1.49-1.25,2.24-1.86.08,1.5-1,2.42-1.76,3.47a55,55,0,0,0-7.24,14.15c-3.44,9.81-4.3,20.08-4.3,30.34q-.12,278.8,0,557.6c.07,56.37-1.46,112.75,1,169.1.35,8,3.17,15.29,6.21,22.56,1.26,3,3.48,5.49,4.41,8.64A35.15,35.15,0,0,1,178,820.46,56.17,56.17,0,0,1,170.32,793.89Z"/><path class="cls-32" d="M572.85,47.26c3.65,11.09,3.67,22.54,3.66,34q-.06,352.69-.09,705.39c0,5.21-.71,10.42-1.08,15.63-1,3.48-1.49,7.14-3.07,10.45-3.1,6.51-5.86,13.26-11.84,17.86a2.43,2.43,0,0,1,.6-2c2.63-3.29,4.11-7.24,5.63-11.05,4.23-10.59,5.39-21.83,5.4-33.08q.13-338.45,0-676.9c0-13,.42-25.94-.38-38.92-.48-7.7-1-15.28-3.16-22.78S563.58,31.57,558,26c-.61-.61-1.41-1.15-1.34-2.19,2.09.58,3.23,2.38,4.64,3.77A45.45,45.45,0,0,1,572.85,47.26Z"/><path class="cls-31" d="M528.94,11.66c.11,1.15-1.2.83-.92,1.85a10.12,10.12,0,0,1,1.72.28c1.14.38,1.57.48.59,2-2.2,3.5-4.95,3.1-8.37,2.79-4.93-.44-9.9-.71-14.88-.7Q371,18,234.87,17.95a143.76,143.76,0,0,0-18,1,4.82,4.82,0,0,1-5.51-5.42c-3.82-.26-7.09,1.86-11.35,2.9,1.59-1.91,3.41-1.79,4.63-2.73,5.51-4.24,12.13-4.12,18.59-4.86,7.37-.84,14.74-.45,22.1-.45q122.1-.07,244.19,0c7.16,0,14.32,0,21.49,0a66.17,66.17,0,0,1,11.87,1.16C524.93,9.9,526.54,11.91,528.94,11.66Zm-87.33.56q-69.65-.94-139.18,0c6.85-.6,13.66,1.66,20.51.45a1.41,1.41,0,0,1,1,.17c1.39,1.16,3,.81,4.61.82q47.64,0,95.27,0C429.82,13.74,435.63,11.7,441.61,12.22Zm2,.13a4,4,0,0,0,3,.05A4,4,0,0,0,443.65,12.35Zm-229.48.89c-.31-.22-.5-.46-.68-.45s-.4.22-.59.35c.16.16.31.43.5.45S213.8,13.41,214.17,13.23Zm236.16-.84a1.51,1.51,0,0,0-1.83,0A1.75,1.75,0,0,0,450.33,12.4Z"/><path class="cls-31" d="M518.88,843.53c-3.37-1.18-6-3.9-10-3.89q-136.38.09-272.75-.08A23.23,23.23,0,0,0,225,842.62c-.7.36-1.49.95-1.53,1.75-.05,1,1.07,1,1.71,1.42a4.94,4.94,0,0,0,2.6.4c10,.29,20.08-.52,30.1.48.91.09,2,.38,2.76-.49l99.58.07,85.7,0c.45-.76,1.21-.61,1.9-.62l35.37,0a7.9,7.9,0,0,1,1.3.21l1.18-.19-.36-.17a5.58,5.58,0,0,0-.72-.33,5.58,5.58,0,0,1,.72.33l.36.17c9.59.08,19.17.82,28.77.59,1.6,0,2.85-.9,4.33-1.21C520,844.76,519.47,843.73,518.88,843.53Z"/><path class="cls-32" d="M538.62,8.61A97.32,97.32,0,0,0,517,5.49c-4.79-.21-9.59-.26-14.38-.38-.62.86-1.55.78-2.43.73-1.94-.12-3.88-.43-5.81-.43q-127.59,0-255.19,0a135.28,135.28,0,0,0-28.59,2.71c-.31.3-.52,1.05-1.08.26l-1,.32c-.32.36-.57,1-1.15.3a56.22,56.22,0,0,0-15.55,7.33c2.44-.2,4.64-1.48,7-.6,1.18-.63,2.72-.29,3.74-1.36a81.29,81.29,0,0,1,24.86-4.79,10.58,10.58,0,0,1,4.47-.26c3.2-.08,6.4-.22,9.6-.22l251.72,0c1.15,0,2.3-.08,3.46-.13,1,.08,1.91.22,2.87.23,5.29.08,10.57.14,15.86.2a3.51,3.51,0,0,1,2.31.17L522,9.7c9.21.38,17.86,3.16,26.5,6a2.59,2.59,0,0,1,2.19-.25l1.84-1.17C547.9,12.35,543.48,9.94,538.62,8.61Z"/><path class="cls-32" d="M184.89,24.72c-5.33,3-8.89,7.68-12,12.72-1.16,1.85-2.53,3.63-2.85,5.9a69.61,69.61,0,0,0-5.4,24c-.55,8.71-.05,17.53-.05,26.3q0,70.69.05,141.39c0,.88-.1,1.77-.15,2.65l-.06,1.54,0,.58q0,9.6,0,19.2a1.92,1.92,0,0,1,0,1.61l.06,2.07c.05,4.17.15,8.33.15,12.5q0,19.45,0,38.89c0,.88-.11,1.76-.17,2.64l0,1a6.26,6.26,0,0,1-.05,3.21c0,1.87.09,3.73.09,5.6q0,215.58,0,431.16c0,4.27-.06,8.54-.08,12.81a13.47,13.47,0,0,1,0,6.45c.23,9-.1,18,1.39,26.87,1.72,10.27,5.8,19.3,13.29,26.67l0-.15h.15a5.53,5.53,0,0,0-.78-2.23,58.46,58.46,0,0,1-8.6-23.28,2.5,2.5,0,0,0-.35-.68c-.47.09-1,.47-1.12-.47a117.49,117.49,0,0,1-2.09-23.9c0-.76-.51-2.11.87-2,1.06.06.54,1.29.61,2,.26,2.62-.43,5.29.44,7.87l.23-11.19a15.16,15.16,0,0,1,0-5.36c0-1.24-.08-2.49-.08-3.73q0-336.65,0-673.31c0-.89.05-1.78.08-2.66a19.56,19.56,0,0,1,0-5.89q0-8,0-16l-.43-.24.44-.21,0,0,.25-1.09.45-4.8a1.3,1.3,0,0,1,.14-1.29,64.47,64.47,0,0,1,6.61-23.28c3.12-4.89,6.33-9.7,10.62-13.67.13-.12,0-.47.05-.71C185.83,23.89,185.41,24.43,184.89,24.72ZM165.72,431.2q0-167.92,0-335.85-.07,167.92,0,335.85t0,335.58Q165.69,599,165.72,431.2Z"/><path class="cls-33" d="M372.34,822.7H310.67c-.89,0-1.78-.07-2.66-.14a2.35,2.35,0,0,1-2.44-2.34c0-1.57,1-2.38,2.55-2.54a20.3,20.3,0,0,1,2.13-.07q61.94,0,123.87,0c2,0,4.67-.35,4.62,2.59s-2.76,2.48-4.73,2.48Q403.18,822.72,372.34,822.7Z"/><g class="cls-34"><path class="cls-29" d="M231.44,398.58q0-62.42,0-124.88H353.57V398.58Zm21.89-76a8.63,8.63,0,0,0,.35-3.09,2.48,2.48,0,0,0-2-1.29c-.65,0-1.76,1-1.78,1.51a3.49,3.49,0,0,0,1.25,2.36c.51.44,1.48.34,2.24.47a5.26,5.26,0,0,0,.5,2c.53.69,1.41,1.59,2.09,1.55a2.63,2.63,0,0,0,1.83-1.78C258.08,322.05,256.94,321.66,253.32,322.59ZM339,366.68l0-3.83c4.06-.07,4-.07,3.88-5.83,0-3.26-2.16-2.23-3.88-2.19a15.69,15.69,0,0,1-.21-2.36c.09-1.63-.88-2.14-2.14-1.78a3.55,3.55,0,0,0-1.87,1.79,5.91,5.91,0,0,0-.07,2.35c-4.16-.37-4.37-.16-3.77,3.76-4.3.38-4.3.38-4.31-3.88,0-.09,0-.18,0-.27,0-3.82,0-3.82-3.72-3.82-4.19,0-4.19,0-4.51-4,4.18-.21,4.16-.21,4.19-4.48,0-2.66.11-5.33.16-8,1.87.06,3.75.08,5.62.19,1.5.09,2.36-.32,2.36-2.05,0-.64.66-1.87,1-1.85,3.67.25,3.17-2.15,2.94-4.41,2,.31,4.86-.48,4.34,3.31a4,4,0,0,0,2.39.81,2.28,2.28,0,0,0,1.4-1.69c.15-2.77,0-5.55.09-8.33,0-1.49-.54-2.08-2-2.09s-2.17.58-2,2.07-.52,2.14-2,2a13.61,13.61,0,0,0-2.13.2c-.31-1.46,1.3-3.58-1.28-4.24s-3,.43-2.39,4.24c-1.5.07-4-1.32-4.15,1-.23,3.29-2,2.88-4.06,2.71-.05-2-.17-4-.14-5.93,0-1.44-.41-2.15-2-2.15s-2.25.48-2.09,2c.18,1.74-.75,2.14-2.28,2.1-2.61-.07-5.24.11-7.83-.11a2.9,2.9,0,0,1-1.92-1.76c-.4-1.26.11-2.35,1.77-2.2,1.91.18,2.29-.89,2.19-2.49a19.06,19.06,0,0,0-.1-3.76,2.76,2.76,0,0,0-1.88-1.77,2.57,2.57,0,0,0-2,1.61c-.11,1.68-.55,2.42-2.38,2.37-2-.06-1.77-1.34-1.78-2.6q-.08-6.75-.16-13.5h4.41c-.06.62-.13,1.23-.19,1.85-.17,1.76.85,2.05,2.32,2,1.72,0,1.86-1.14,1.69-2.36-.39-2.8-2.39-1.49-3.89-1.44q0-2.19.05-4.39c.63,0,1.26,0,1.89.05,1.56.11,2-.69,2-2.13,0-1.62-.81-2-2.2-1.91-3.17.31-1.58,2.51-1.61,4.07l-4.48-.05c.19-2,1-4.34-2.57-4.14-.4,0-1.26-1.05-1.23-1.58.12-2.21-1-2.56-2.84-2.41a16.72,16.72,0,0,1-3,0c-1.94-.18-2.59.75-2.39,2.55.07.62.05,1.25.07,1.88l.07-.07c-2.16-.37-4.47-1.08-4.33,2.58,0,.37-1.25,1.1-2,1.14-2.32.15-4.66,0-7,.06-3.21,0-3.39.28-2.62,4.09,1.77,0,3.64.07,5.49,0,1.64-.08,2.24.59,2.2,2.21-.07,3,0,5.92,0,8.89,0,4.52,0,4.52-4.23,5.53l-.24.08q.2-3.18.41-6.37c.09-1.36-.28-2.19-1.9-2.21s-2.25.66-2.16,2.24a26.71,26.71,0,0,1,0,3.48c-.12,1.63.35,2.59,2.2,2.45a5,5,0,0,1,1.49.36l.23,8c-2-.31-4.61.22-4-3.28,0-.24-.35-.8-.55-.81a36.37,36.37,0,0,0-6.84.22c-.38.07-.34,2.52-.49,3.87-3.78-.5-4.62-.06-4.13,2.34.55,2.7,2.66,1.14,4.13,1.33-.12,2.06-1,4.54,2.67,4.39.38,0,1.13,1.43,1.12,2.18a2.23,2.23,0,0,1-1.49,1.61c-2.23.17-4.48,0-6.73,0,.5-3.52,0-4.36-2.3-3.92-2.61.49-1.15,2.53-1.38,3.93l-8.1-.09a15.71,15.71,0,0,1-.08-1.88c.13-1.8-.92-2-2.38-2-1.8,0-1.84,1.22-1.65,2.39.48,3,2.64,1.38,4.2,1.41-.53,4.35-.53,4.34,3.75,4.35,1.42,0,2.84.06,4.26.09-.28,4.13-.19,4.22,3.76,3.77q.09,3.49.17,7c.15,6.18-1.14,5.35,5.65,5.43,1.35,0,2.47,0,2.48-1.92,0-1.66-.63-2.3-2.22-2.18s-2.14-1-1.75-2.22a2.92,2.92,0,0,1,2-1.73,53.13,53.13,0,0,1,6.17,0c0,4.76-.16,9.52-.07,14.27,0,.64,1,1.81,1.59,1.8,2.26-.05,2.5,1.18,2.39,2.93-.07,1.07,0,2.16,0,3.23-.08,1.46.47,2.23,2,2.08s2.18.54,2,2,.68,2.31,2.07,1.92c.76-.22,1.81-1.12,1.87-1.8.15-1.59.64-2.19,2.29-2.19,1.94,0,1.88,1.21,1.86,2.52a21.13,21.13,0,0,0,0,3c.29,2.25-.78,2.73-2.81,2.69-3.23-.08-6.46.1-9.68.17.1-.79.23-1.58.31-2.37.17-1.64-.81-1.91-2.16-1.91s-1.85.57-1.9,1.94c-.12,3.22,2.42,1.75,3.82,2.27-.05,1.14-.11,2.29-.15,3.45a8.36,8.36,0,0,1-1.95.47c-1.73,0-2,1.19-1.61,2.32a2.89,2.89,0,0,0,2,1.69c2.14.21,2.52-1,1.54-4.55l16.3.08-.05-.06c1.13,4.77,1.13,4.73,6.05,4.65,1.59,0,2.67-.3,2.47-2.22-.15-1.37.49-1.92,1.89-1.93s2.32.32,2.15,1.94.61,2.24,2.21,2.19c2.61-.07,5.22-.06,7.83,0,1.44,0,2.27-.45,2.11-2-.18-1.72.72-2.13,2.27-2.12,2,0,3.92-.22,5.87-.34,0,.89,0,1.79-.06,2.68-.08,1.7,1.06,2,2.27,1.71a2.83,2.83,0,0,0,1.71-1.69c.31-1.14.17-2.37-1.62-2.32a14.54,14.54,0,0,1-2.35-.31c0-.81,0-1.62,0-2.43.13-6.17-1-5.27,5.45-5.41,1.7,0,2.76.25,2.7,2.32a2.27,2.27,0,0,0,1.43,1.69,19.09,19.09,0,0,0,5.11,0,2.25,2.25,0,0,0,1.39-1.71c0-.75-.78-2.14-1.17-2.13-3.49.13-2.88-2.08-2.58-4.17,1.75-.19,4.32.82,3.84-2.61C342.49,365.72,340.2,367.45,339,366.68Zm-85.43-16.26a6.85,6.85,0,0,0,.31,2.63,3,3,0,0,0,2.11,1.51,2.53,2.53,0,0,0,1.74-1.82c0-.69-.85-1.67-1.58-2a6.89,6.89,0,0,0-2.65-.21,59.81,59.81,0,0,0,.18-6.39c0-.57-1.17-1.47-1.83-1.49s-2,.88-2,1.29c.22,2.79-1.49,2.77-3.41,2.67a7.43,7.43,0,0,0-2.92.08c-.76.29-1.73,1.22-1.75,1.89s1,2,1.61,2C246.78,350.64,250.18,350.48,253.58,350.42Zm81-8.27a2.39,2.39,0,0,0,.76.24c2.16-.1,4,.11,3.66,3.08,0,.27,1.51,1,2.28,1a2.24,2.24,0,0,0,1.53-1.57,67.8,67.8,0,0,0,0-8.61c0-.68-1.08-1.61-1.84-1.83-1.31-.38-2.15.23-2.18,1.85,0,.7-.76,2-1,2-3.32-.37-3,1.95-3.08,4-2.14.08-4.3.08-6.42.31a2.12,2.12,0,0,0-1.46,1.38c-.11.77.3,2.32.57,2.34a29.37,29.37,0,0,0,6.89-.19C334.54,346,334.45,343.52,334.56,342.15ZM270,299.88c0-4-.08-7.92,0-11.87.05-1.92-.69-2.48-2.53-2.47q-11.74.1-23.48,0c-1.71,0-2.41.53-2.39,2.32q.1,12,0,24c0,1.68.67,2.17,2.25,2.17,7.92,0,15.83-.07,23.75,0,2,0,2.44-.8,2.39-2.58C269.93,307.62,270,303.75,270,299.88Zm72.88-.05c0-4-.06-7.92,0-11.88,0-1.7-.51-2.43-2.3-2.41q-11.88.09-23.75,0c-1.76,0-2.35.63-2.34,2.38q.09,11.88,0,23.75c0,1.72.52,2.4,2.31,2.39q11.88-.09,23.75,0c1.75,0,2.38-.59,2.34-2.36C342.81,307.75,342.87,303.79,342.87,299.83ZM270,372.88c0-3.87-.06-7.74,0-11.61,0-1.79-.44-2.59-2.4-2.57-7.92.08-15.83.06-23.75,0-1.58,0-2.25.5-2.24,2.17q.09,12,0,24c0,1.8.7,2.33,2.4,2.32q11.74-.08,23.48,0c1.84,0,2.57-.57,2.52-2.48C269.92,380.8,270,376.84,270,372.88Zm8.41-84.52.05-1.2a8.16,8.16,0,0,0-2.28-1.53c-1.33-.34-2.17.27-2.15,1.86,0,1.39.35,2.4,1.92,2.09A10.12,10.12,0,0,0,278.4,288.37Zm-35.31,34.15h1.21a9.62,9.62,0,0,0,1.34-2.4c.34-1.48-.5-2-2-2s-2.29.63-2,2.07A9.35,9.35,0,0,0,243.09,322.51Zm100.14,63.2,0-1.21a9.28,9.28,0,0,0-2.38-1.32c-1.47-.32-2,.51-2,2s.63,2.29,2.06,2A8.85,8.85,0,0,0,343.23,385.72Z"/><path d="M339,371c-.3,2.09-.91,4.3,2.58,4.17.4,0,1.16,1.38,1.17,2.13a2.25,2.25,0,0,1-1.39,1.71,19.09,19.09,0,0,1-5.11,0,2.27,2.27,0,0,1-1.43-1.69c.06-2.07-1-2.35-2.7-2.32-6.49.14-5.32-.76-5.45,5.41,0,.81,0,1.62,0,2.43l.06-.07c-2,.13-3.92.36-5.87.35-1.55,0-2.44.4-2.27,2.12.16,1.57-.67,2-2.11,2-2.61-.05-5.22-.07-7.83,0-1.6,0-2.38-.53-2.21-2.19s-.74-1.94-2.15-1.94-2,.56-1.89,1.93c.2,1.91-.88,2.19-2.47,2.22-4.92.08-4.92.13-6-4.64.87.18,1.73.42,2.61.51,1.68.18,1.85-.9,1.86-2.23s-.75-1.73-2-1.82c-3.07-.22-1.41,2.53-2.39,3.6l-16.3-.08.05,0,.16-3.43-.08.08c3.23-.07,6.46-.26,9.69-.18,2,0,3.1-.44,2.81-2.69a21.13,21.13,0,0,1,0-3c0-1.31.08-2.51-1.86-2.52-1.64,0-2.14.6-2.29,2.19-.06.68-1.11,1.58-1.87,1.8-1.39.39-2.21-.38-2.07-1.92s-.54-2.18-2-2-2.1-.61-2-2.08c.06-1.07,0-2.16,0-3.23.11-1.74-.13-3-2.39-2.93-.54,0-1.57-1.16-1.59-1.8-.09-4.76,0-9.52.07-14.27l-.08.06c2.11-.29,4.29-.78,4.11,2.66,0,.38,1.25,1.2,1.9,1.18,3-.11,1.47,2.54,2.34,3.66s3.88-.66,3.71,2.33c-.09,1.6.51,2.38,2.18,2.21,1.39-.14,1.91.53,1.91,1.91s-.29,2.34-1.92,2.17-2.2.59-2.17,2.2,1,1.89,2.28,1.85c1.17,0,2.34-.05,3.51,0,1.5.07,2.48-.34,2.33-2.08-.13-1.53.63-2,2.1-2s2,.78,2,2.17a29,29,0,0,0,0,3.24c.13,1.77-.18,2.94-2.41,2.89-.53,0-1.46,1.29-1.52,2a2.42,2.42,0,0,0,1.55,1.79c5.9.87,6.26.52,6.39-5.48a2.32,2.32,0,0,0,0-.27c-.14-1.52.33-2.47,2.07-2.3,1.56.16,2-.64,2-2.09,0-4-.06-8.1,0-12.15,0-1.54-.59-2.12-2.08-2a16.86,16.86,0,0,1-2.15-.12c-.28-1.28-.6-3.68-.83-3.67-3.71.14-3.19-2.23-2.92-4.51,3.89.42,3.89.42,3.9-3.5q0-4.3,0-8.61c0-3.83,0-3.83-3.9-4q0-1.92,0-3.83c1.22-.73,3.5,1,3.89-1.64.52-3.53-2.23-2.3-3.89-2.66l.07-20.05-.07.07h3.84l-.07-.05q.08,6.75.16,13.5c0,1.26-.22,2.54,1.78,2.6,1.83.05,2.27-.69,2.38-2.37a2.57,2.57,0,0,1,2-1.61,2.76,2.76,0,0,1,1.88,1.77,19.06,19.06,0,0,1,.1,3.76c.09,1.6-.28,2.67-2.19,2.49-1.66-.16-2.17.94-1.77,2.2a2.9,2.9,0,0,0,1.92,1.76c2.6.21,5.22,0,7.83.11,1.53,0,2.46-.36,2.28-2.1-.16-1.55.62-2,2.09-2s2,.71,2,2.15c0,2,.09,4,.14,5.93l.08-.07a16.85,16.85,0,0,1-2.15.15c-1.42-.07-2.3.35-2.14,2,.14,1.45-.4,2.12-2,2.15-1.73,0-2.24-.76-2.09-2.3s-.71-1.81-2-1.8-2.16.27-2,1.78-.34,2.46-2.07,2.31c-1.58-.14-2,.73-2,2.14,0,4.05-.06,8.11.09,12.16,0,.66,1,1.82,1.56,1.82,1.93,0,2.48.82,2.51,2.62,0,.52,1.06,1.44,1.64,1.44.76,0,2.18-.76,2.17-1.14-.16-3.45,2-2.92,4.14-2.65l-.08-.06c.32,4,.32,4,4.51,4,3.72,0,3.72,0,3.72,3.82,0,.09,0,.18,0,.27,0,4.27,0,4.27,4.31,3.88l-.08-.06c-.84,1.4,1.24,4.3-2.34,4.39-.64,0-1.59,1.08-1.81,1.83-.38,1.31.24,2.26,1.84,2.12,1.4-.12,2.29.35,2.11,1.93-.21,1.94.95,2.17,2.49,2.14,2,0,3.93.06,5.89.1Zm-16.38-10.14c0-6.14,0-6.14-6.08-6.14h-.27c-5.79,0-5.79,0-5.79,5.88,0,6.29,0,6.29,6.21,6.29C322.63,366.86,322.63,366.86,322.63,360.83ZM318.68,371c-4.15,0-4.15,0-4.15,3.77,0,4.33,0,4.33,3.84,4.33,4.26,0,4.26,0,4.26-3.89C322.63,371,322.63,371,318.68,371Zm-12.23,3.63c0,1-.26,2,.07,2.63s1.28,1.7,1.95,1.7a2.64,2.64,0,0,0,1.9-1.7,12.3,12.3,0,0,0,0-4.55,2.56,2.56,0,0,0-1.79-1.62C305.33,370.75,306.85,373.37,306.45,374.58Z"/><path d="M270,299.88c0,3.87-.06,7.74,0,11.61,0,1.78-.43,2.6-2.39,2.58-7.92-.08-15.83-.06-23.75,0-1.57,0-2.26-.49-2.25-2.17q.09-12,0-24c0-1.79.69-2.34,2.39-2.32q11.74.08,23.48,0c1.84,0,2.58.55,2.53,2.47C269.92,292,270,295.92,270,299.88Zm-4.05-.09c0-2.61-.08-5.23,0-7.84.07-1.79-.67-2.35-2.39-2.33-5.23.07-10.45.07-15.68,0-1.63,0-2.24.6-2.22,2.23q.09,8,0,15.95c0,1.67.66,2.18,2.26,2.17q8-.09,15.95,0c1.51,0,2.1-.56,2.07-2.07C265.9,305.2,265.94,302.49,265.94,299.79Z"/><path d="M342.87,299.83c0,4-.07,7.92,0,11.88,0,1.76-.59,2.37-2.34,2.36q-11.88-.09-23.75,0c-1.78,0-2.32-.67-2.31-2.39q.1-11.88,0-23.75c0-1.74.58-2.39,2.34-2.38q11.88.09,23.75,0c1.8,0,2.34.71,2.3,2.41C342.82,291.91,342.87,295.87,342.87,299.83Zm-4.05,0c0-2.61-.07-5.23,0-7.84.06-1.78-.66-2.36-2.39-2.34q-7.84.11-15.68,0c-1.63,0-2.24.58-2.22,2.21q.09,8,0,15.95c0,1.66.64,2.2,2.24,2.18,5.32-.06,10.63-.05,15.95,0,1.49,0,2.12-.53,2.09-2.05C338.77,305.21,338.82,302.51,338.82,299.8Z"/><path d="M270,372.88c0,4-.08,7.92,0,11.87.05,1.91-.67,2.49-2.52,2.48q-11.74-.11-23.48,0c-1.7,0-2.41-.52-2.4-2.32q.1-12,0-24c0-1.67.66-2.18,2.24-2.17,7.92,0,15.83.07,23.75,0,2,0,2.45.79,2.4,2.57C269.93,365.14,270,369,270,372.88Zm-14-10.05c-2.79,0-5.59,0-8.38,0-1.36,0-2,.51-2,1.9q0,8.24,0,16.49c0,1.38.59,1.93,2,1.92,5.41,0,10.81,0,16.22,0,1.49,0,2.1-.55,2.09-2.06q-.07-8.11,0-16.22c0-1.52-.6-2.08-2.09-2C261.26,362.88,258.64,362.83,256,362.83Z"/><path d="M277.67,314.49a1.89,1.89,0,0,1,.25-.1c4.23-1,4.23-1,4.23-5.53,0-3-.06-5.93,0-8.89,0-1.61-.56-2.28-2.2-2.21-1.86.09-3.72,0-5.49,0-.77-3.81-.58-4.07,2.62-4.09,2.33,0,4.67.09,7-.06.7,0,2-.77,2-1.14-.13-3.66,2.17-3,4.33-2.59a13.09,13.09,0,0,0,.79,3.58c.16.32,2.08.23,2.6-.27a3.4,3.4,0,0,0,.32-2.58,18.25,18.25,0,0,0-3.79-.65c0-.63,0-1.26-.07-1.88-.2-1.8.45-2.73,2.39-2.55a16.72,16.72,0,0,0,3,0c1.79-.15,3,.21,2.84,2.41,0,.53.83,1.61,1.23,1.58,3.54-.2,2.75,2.13,2.57,4.14l.08-.07c-4.12.25-4.12.25-3.84,4.41l.07-.07c-3.5-.06-7-.22-10.48-.09-.64,0-1.55,1.13-1.77,1.9-.39,1.41.4,2.13,1.94,2.06a21.48,21.48,0,0,1,4.56.09,2.26,2.26,0,0,1,1.41,1.69c0,.75-.76,2.16-1.14,2.15-3.44-.13-2.9,2.06-2.62,4.15-4.23.16-4.21.16-4.23,4.44,0,2.68-.08,5.35-.12,8l-8.17-.07.06.08-.23-8Z"/><path d="M266.08,322.39c.15-1.35.11-3.8.49-3.87a36.37,36.37,0,0,1,6.84-.22c.2,0,.59.56.55.81-.62,3.5,2,3,4,3.28l-.06-.08c.38,2.15.77,4.23-2.61,4.07-.37,0-1.12,1.24-1.11,1.91s.77,1.9,1.14,1.88c3.43-.18,2.88,2,2.64,4.1-1.28.63-3.84-1.11-3.83,1.85,0,2-.86,2.38-2.59,2.34-3.29-.07-6.58,0-9.87.07l.07.07v-4.41l-.08.07c2.24,0,4.5.16,6.73,0a2.23,2.23,0,0,0,1.49-1.61c0-.76-.74-2.2-1.12-2.18-3.71.15-2.79-2.34-2.67-4.39l-.08.09c1.4-.33,3.65,1.2,3.94-1.56.37-3.45-2.22-2.22-3.95-2.29Z"/><path d="M274.19,346.64a53.13,53.13,0,0,0-6.17,0,2.92,2.92,0,0,0-2,1.73c-.39,1.23.08,2.34,1.75,2.22s2.22.52,2.22,2.18c0,1.9-1.13,1.94-2.48,1.92-6.79-.08-5.5.75-5.65-5.43q-.08-3.49-.17-7l-.06.08c3.21,0,6.42.18,9.62.08,2-.06,3.11.43,2.79,2.66a9.32,9.32,0,0,0,0,1.6Z"/><path d="M322.79,334.17c-.06,2.66-.14,5.33-.16,8,0,4.27,0,4.27-4.19,4.48l.08.06c.1-2.23.63-4.73-3.07-4.39-.25,0-.87-1.07-.87-1.65,0-1.56-.49-2.41-2.19-2.24s-1.95-.71-2-2.14c0-1.62.77-2,2.17-2,3.42,0,6.83,0,10.25-.08Z"/><path d="M334.67,326.06c.22,2.26.72,4.66-2.94,4.41-.29,0-1,1.2-1,1.85,0,1.73-.86,2.14-2.36,2.05-1.87-.11-3.75-.13-5.62-.19l.07.08v-8.18l-.08.07c2.05.17,3.83.58,4.06-2.71.17-2.36,2.65-1,4.15-1l-.11-.09c-.42,4-.38,4,3.85,3.85Z"/><path d="M334.63,342.23c.11-2-.24-4.34,3.09-4,.29,0,1-1.29,1-2,0-1.62.87-2.23,2.18-1.85.76.22,1.79,1.16,1.84,1.83a67.8,67.8,0,0,1,0,8.61,2.24,2.24,0,0,1-1.53,1.57c-.77,0-2.31-.69-2.28-1,.31-3-1.5-3.18-3.66-3.08a2.39,2.39,0,0,1-.76-.24Z"/><path d="M334.67,322.38a13.61,13.61,0,0,1,2.13-.2c1.51.09,2.18-.55,2-2s.52-2.08,2-2.07,2.08.6,2,2.09c-.07,2.78.06,5.56-.09,8.33a2.28,2.28,0,0,1-1.4,1.69,4,4,0,0,1-2.39-.81c.52-3.78-2.31-3-4.34-3.31l.08.09v-3.85Z"/><path d="M253.58,350.42c-3.39.06-6.79.22-10.18.08-.61,0-1.62-1.3-1.61-2s1-1.6,1.75-1.89a7.43,7.43,0,0,1,2.92-.08c1.92.1,3.63.12,3.41-2.67,0-.41,1.31-1.31,2-1.29s1.79.92,1.83,1.49a59.81,59.81,0,0,1-.18,6.39Z"/><path d="M249.88,334.16l8.09.1-.08-.07q0,2.21,0,4.41l.08-.07c-1.42,0-2.84-.08-4.26-.09-4.28,0-4.28,0-3.75-4.35Z"/><path d="M334.56,342.15c-.11,1.37,0,3.87-.35,3.93a29.37,29.37,0,0,1-6.89.19c-.27,0-.68-1.57-.57-2.34a2.12,2.12,0,0,1,1.46-1.38c2.13-.24,4.28-.23,6.42-.32Z"/><path d="M339,354.82c1.72,0,3.83-1.07,3.88,2.19.09,5.76.19,5.76-3.88,5.83l.06.08v-8.18Z"/><path d="M277.73,314.43a5,5,0,0,0-1.49-.36c-1.86.14-2.32-.82-2.2-2.45a26.71,26.71,0,0,0,0-3.48c-.1-1.58.5-2.26,2.16-2.24s2,.85,1.9,2.21c-.14,2.12-.27,4.25-.42,6.38Z"/><path d="M306.63,298h-4.41l.07.05q0-2.2,0-4.41l-.08.07,4.48.05-.08-.08-.06,4.39Z"/><path d="M334.75,354.82a5.91,5.91,0,0,1,.07-2.35,3.55,3.55,0,0,1,1.87-1.79c1.26-.36,2.23.15,2.14,1.78a15.68,15.68,0,0,0,.21,2.36l.05-.07h-4.41Z"/><path d="M253.51,350.48a6.89,6.89,0,0,1,2.65.21c.73.38,1.6,1.36,1.58,2a2.53,2.53,0,0,1-1.74,1.82,3,3,0,0,1-2.11-1.51,6.87,6.87,0,0,1-.31-2.63Z"/><path d="M326.66,382.81a14.54,14.54,0,0,0,2.35.31c1.79,0,1.93,1.19,1.62,2.32a2.83,2.83,0,0,1-1.71,1.69c-1.21.33-2.35,0-2.27-1.71,0-.89,0-1.79.06-2.68Z"/><path d="M339,362.85l0,3.83.09-.06c-.8.08-1.72.43-2.37.16a3.46,3.46,0,0,1-1.89-1.83c-.39-1.31.23-2.28,1.84-2.15.8.06,1.61.09,2.42.13Z"/><path d="M331,322.39c-.63-3.81-.07-4.86,2.39-4.24s1,2.78,1.28,4.24l.08-.09H330.9Z"/><path d="M253.31,322.61c3.63-.95,4.77-.55,4.47,1.71a2.63,2.63,0,0,1-1.83,1.78c-.68,0-1.55-.86-2.09-1.55a5.26,5.26,0,0,1-.5-2Z"/><path d="M277.63,382.57c1,3.52.61,4.76-1.54,4.55a2.89,2.89,0,0,1-2-1.69c-.37-1.13-.11-2.32,1.61-2.32a7.67,7.67,0,0,0,1.94-.48Z"/><path d="M339,366.68c1.19.77,3.48-1,3.84,1.67.48,3.43-2.09,2.43-3.84,2.61l.08.07q0-2.21,0-4.42Z"/><path d="M253.37,322.55c-.76-.14-1.73,0-2.24-.47a3.49,3.49,0,0,1-1.25-2.36c0-.56,1.12-1.48,1.78-1.51a2.48,2.48,0,0,1,2,1.29,8.53,8.53,0,0,1-.36,3.1Z"/><path d="M277.84,379.19c-1.4-.52-3.94,1-3.82-2.27,0-1.36.52-1.93,1.9-1.94s2.33.27,2.16,1.91c-.08.79-.21,1.58-.31,2.37Z"/><path d="M278.4,288.37a10.12,10.12,0,0,1-2.46,1.23c-1.57.31-1.9-.71-1.92-2.09,0-1.59.82-2.2,2.15-1.86a8.16,8.16,0,0,1,2.28,1.53Z"/><path d="M250,334.08c-1.56,0-3.72,1.61-4.2-1.41-.19-1.17-.15-2.38,1.65-2.39,1.46,0,2.5.21,2.38,2a15.06,15.06,0,0,0,.09,1.87Z"/><path d="M266.08,326.06c-1.47-.19-3.58,1.37-4.13-1.33-.49-2.4.35-2.83,4.13-2.34l-.09-.1v3.85Z"/><path d="M243.09,322.51a9.35,9.35,0,0,1-1.38-2.38c-.34-1.45.45-2.07,2-2.07s2.32.57,2,2a9.62,9.62,0,0,1-1.34,2.4Z"/><path d="M343.23,385.72a8.85,8.85,0,0,1-2.37,1.43c-1.43.33-2.06-.45-2.06-2s.55-2.31,2-2a9.28,9.28,0,0,1,2.38,1.32Z"/><path d="M306.56,298.06c1.49,0,3.5-1.35,3.89,1.44.17,1.22,0,2.33-1.69,2.36-1.47,0-2.49-.27-2.32-2,.06-.62.13-1.23.19-1.85Z"/><path d="M306.7,293.75c0-1.56-1.56-3.76,1.61-4.07,1.39-.13,2.21.29,2.2,1.91,0,1.44-.44,2.25-2,2.13-.63,0-1.26,0-1.88-.05Z"/><path d="M258,334.25c.24-1.39-1.23-3.43,1.38-3.93,2.34-.44,2.8.39,2.3,3.92l.08-.07h-3.84Z"/><path d="M261.73,342.29c-4,.45-4,.36-3.76-3.77l-.08.07h3.84l-.07-.07v3.84Z"/><path d="M331,358.58c-.6-3.91-.39-4.12,3.77-3.76l-.07-.08c.24,4.18.16,4.26-3.77,3.78Z"/><path class="cls-29" d="M261.67,342.36v-3.84c3.29,0,6.58-.13,9.87-.07,1.73,0,2.6-.36,2.59-2.34,0-3,2.54-1.22,3.83-1.85l-.06-.08a14.32,14.32,0,0,0,.26,2.67c.16.57.77,1.5,1.1,1.46,3.44-.37,2.91,2,2.91,4,0,4,0,4,3.9,4.39l-.07-.07c.49,4,.49,4,4.5,4,1.24,0,2.47-.08,3.71-.12l-.08-.08c.06,2.07.16,4.13.16,6.2,0,1.4.36,2.18,2,2.17s2.1-.51,2.15-2c0-.66.65-1.89.94-1.87,3.71.25,3.15-2.21,3-4.46l-.07.07a16.85,16.85,0,0,0,2.15.12c1.49-.1,2.1.48,2.08,2-.07,4-.05,8.1,0,12.15,0,1.45-.45,2.25-2,2.09-1.74-.18-2.21.78-2.07,2.3a2.32,2.32,0,0,1,0,.27c-.13,6-.49,6.35-6.39,5.48a2.42,2.42,0,0,1-1.55-1.79c.06-.76,1-2.06,1.52-2,2.24,0,2.54-1.12,2.41-2.89a29,29,0,0,1,0-3.24c.06-1.39-.34-2.18-2-2.17s-2.24.49-2.1,2c.15,1.75-.83,2.16-2.33,2.08-1.17-.06-2.34,0-3.51,0-1.32,0-2.25-.16-2.28-1.85s.51-2.38,2.17-2.2,1.92-.79,1.92-2.17-.52-2-1.91-1.91c-1.66.17-2.27-.61-2.18-2.21.17-3-2.77-1.12-3.71-2.33s.7-3.77-2.34-3.66c-.65,0-1.92-.8-1.9-1.18.18-3.43-2-2.95-4.11-2.66a9.32,9.32,0,0,1,0-1.6c.32-2.23-.79-2.72-2.79-2.66C268.09,342.54,264.88,342.4,261.67,342.36Z"/><path class="cls-29" d="M322.87,326.07v8.18c-3.42,0-6.83.1-10.25.08-1.4,0-2.19.34-2.17,2,0,1.42.38,2.3,2,2.14s2.18.68,2.19,2.24c0,.58.62,1.67.87,1.65,3.7-.34,3.17,2.16,3.07,4.39-2.1-.27-4.29-.8-4.14,2.65,0,.38-1.41,1.14-2.17,1.14-.57,0-1.63-.92-1.64-1.44,0-1.8-.58-2.61-2.51-2.62-.55,0-1.54-1.17-1.56-1.82-.15-4,0-8.11-.09-12.16,0-1.42.41-2.29,2-2.14,1.73.16,2.21-.78,2.07-2.31s.76-1.77,2-1.78,2.14.32,2,1.8.36,2.34,2.09,2.3c1.57,0,2.11-.7,2-2.15-.16-1.61.72-2,2.14-2A16.85,16.85,0,0,0,322.87,326.07Z"/><path class="cls-29" d="M322.63,360.83c0,6,0,6-5.94,6-6.21,0-6.21,0-6.21-6.29,0-5.88,0-5.88,5.79-5.88h.27C322.63,354.69,322.63,354.69,322.63,360.83Zm-6.84,2.29,1.2.06a8.47,8.47,0,0,0,1.53-2.3c.35-1.33-.22-2.2-1.83-2.17-1.36,0-2.42.31-2.1,1.91A10.72,10.72,0,0,0,315.79,363.12Z"/><path class="cls-29" d="M290.42,309.91c-.28-2.09-.82-4.28,2.62-4.15.39,0,1.14-1.4,1.14-2.15a2.26,2.26,0,0,0-1.41-1.69,21.48,21.48,0,0,0-4.56-.09c-1.54.07-2.33-.65-1.94-2.06.21-.77,1.13-1.87,1.77-1.9,3.49-.13,7,0,10.48.09L298.45,318l.08-.06c-4.24.3-4.24.3-4.24-3.92,0-3.94,0-3.94-3.95-4.19Z"/><path class="cls-29" d="M330.91,358.52c3.93.49,4,.41,3.77-3.78h4.41v8.18c-.81,0-1.61-.07-2.42-.13-1.61-.12-2.23.85-1.84,2.15a3.46,3.46,0,0,0,1.89,1.83c.66.27,1.57-.08,2.37-.16V371c-2,0-3.93-.14-5.89-.1-1.54,0-2.7-.2-2.49-2.14.17-1.59-.71-2.06-2.11-1.93-1.6.14-2.22-.81-1.84-2.12.22-.75,1.16-1.82,1.81-1.83C332.15,362.82,330.07,359.92,330.91,358.52Z"/><path class="cls-29" d="M298.47,326.15c3.9.2,3.9.2,3.9,4q0,4.3,0,8.61c0,3.92,0,3.92-3.9,3.5l.06.08c-.44-1.3-.94-3.74-1.31-3.72-3.27.17-3-1.88-2.94-4,0-1.41-.05-2.83-.08-4.25l-.08.08a3.67,3.67,0,0,1,1-.15c2.54.37,3.59-.69,3.23-3.23a3.66,3.66,0,0,1,.15-1Z"/><path class="cls-29" d="M318.68,371c4,0,4,0,3.95,4.21,0,3.89,0,3.89-4.26,3.89-3.85,0-3.85,0-3.84-4.33C314.54,371,314.54,371,318.68,371Z"/><path class="cls-29" d="M298.47,342.29c-.27,2.28-.78,4.66,2.92,4.51.23,0,.55,2.39.83,3.67l.07-.07h-8.19l.08.08c0-1.15.09-2.3.1-3.45,0-4.37,0-4.37,4.24-4.67Z"/><path class="cls-29" d="M298.45,322.31q0,1.92,0,3.83l.06-.08c-4,.35-4,.35-4.42,4.42l.08-.08c-3.94-.28-4-.28-3.93-4.42,0-1.23.1-2.46.15-3.69l-.07.07h8.19Z"/><path class="cls-29" d="M306.45,374.58c.4-1.21-1.12-3.83,2.12-3.55a2.56,2.56,0,0,1,1.79,1.62,12.3,12.3,0,0,1,0,4.55,2.64,2.64,0,0,1-1.9,1.7c-.67,0-1.57-1-1.95-1.7S306.45,375.63,306.45,374.58Z"/><path class="cls-29" d="M302.3,293.62q0,2.2,0,4.41h-3.84C298.18,293.87,298.18,293.87,302.3,293.62Z"/><path class="cls-29" d="M298.45,318c1.66.36,4.41-.88,3.89,2.66-.39,2.66-2.67.91-3.89,1.64l.08.06V318Z"/><path class="cls-29" d="M293.93,382.65c1-1.07-.68-3.82,2.39-3.6,1.28.09,2,.34,2,1.82s-.18,2.41-1.86,2.23c-.87-.09-1.73-.33-2.61-.51Z"/><path class="cls-29" d="M265.94,299.79c0,2.7,0,5.41,0,8.11,0,1.5-.56,2.08-2.07,2.07q-8-.08-15.95,0c-1.59,0-2.28-.5-2.26-2.17q.1-8,0-15.95c0-1.62.58-2.24,2.22-2.23,5.23.06,10.45.07,15.68,0,1.72,0,2.46.53,2.39,2.33C265.87,294.56,265.94,297.18,265.94,299.79Zm-4,.13c0-6.22,0-6.22-6.23-6.22-5.91,0-5.91,0-5.91,6,0,6.21,0,6.21,6.23,6.21C261.9,305.91,261.9,305.91,261.9,299.92Z"/><path class="cls-29" d="M338.82,299.8c0,2.7,0,5.41,0,8.11,0,1.52-.6,2.07-2.09,2.05-5.32,0-10.63-.06-15.95,0-1.6,0-2.26-.52-2.24-2.18q.1-8,0-15.95c0-1.63.59-2.23,2.22-2.21q7.84.09,15.68,0c1.73,0,2.45.56,2.39,2.34C338.75,294.57,338.82,297.19,338.82,299.8Zm-4-.08c0-6,0-6-5.89-6-6.25,0-6.25,0-6.25,6.2,0,6,0,6,5.89,6C334.78,305.91,334.78,305.91,334.78,299.72Z"/><path class="cls-29" d="M256,362.83c2.61,0,5.23,0,7.84,0,1.49,0,2.1.52,2.09,2q-.07,8.11,0,16.22c0,1.52-.6,2.08-2.09,2.06-5.41,0-10.81,0-16.22,0-1.36,0-2-.54-2-1.92q0-8.24,0-16.49c0-1.39.59-1.93,2-1.9C250.44,362.86,253.24,362.83,256,362.83Zm-6.28,10c0,6.27,0,6.27,6.19,6.27,6,0,6,0,6-6,0-6.25,0-6.25-6.19-6.25C249.75,366.86,249.75,366.86,249.75,372.81Z"/><path class="cls-29" d="M277.95,334.26c.24-2.07.8-4.28-2.64-4.1-.38,0-1.14-1.22-1.14-1.88s.74-1.93,1.11-1.91c3.38.16,3-1.92,2.61-4.07l8.17.07-.06-.07c-.27,1.28-.61,3.68-.8,3.67-3.75-.23-3.06,2.35-3.07,4.52,0,4.11,0,4.11-4.26,3.69Z"/><path class="cls-29" d="M286.06,322.37c0-2.68.11-5.35.12-8,0-4.27,0-4.27,4.23-4.44l-.08-.06v12.52l.07-.07H286Z"/><path class="cls-29" d="M290.31,290a18.25,18.25,0,0,1,3.79.65,3.4,3.4,0,0,1-.32,2.58c-.52.51-2.43.59-2.6.27a13.09,13.09,0,0,1-.79-3.58Z"/><path class="cls-29" d="M261.73,338.59h-3.84q0-2.21,0-4.41h3.84Q261.73,336.39,261.73,338.59Z"/><path class="cls-29" d="M266,326.15v-3.85c1.72.07,4.31-1.16,3.95,2.29C269.65,327.35,267.4,325.82,266,326.15Z"/><path class="cls-29" d="M330.9,322.29h3.86v3.85C330.52,326.31,330.48,326.27,330.9,322.29Z"/><path d="M286,322.3h4.41c-.05,1.23-.15,2.46-.15,3.69,0,4.14,0,4.14,3.93,4.42,0,1.42.13,2.84.08,4.25-.07,2.11-.33,4.16,2.94,4,.37,0,.87,2.42,1.31,3.72-4.23.3-4.22.3-4.24,4.67,0,1.15-.06,2.3-.1,3.45-1.24,0-2.47.12-3.71.12-4,0-4,0-4.5-4a6.23,6.23,0,0,1,1.34-.08c2.44.37,3.14-.74,3-3a59.37,59.37,0,0,1,0-7c.06-1.62-.52-2.23-2.17-2.21s-1.92.8-1.92,2.18c0,3.4-.08,6.8-.12,10.2-3.9-.35-3.91-.35-3.9-4.39,0-2,.53-4.39-2.91-4-.32,0-.94-.89-1.1-1.46a14.32,14.32,0,0,1-.26-2.67c4.25.42,4.25.42,4.26-3.69,0-2.16-.68-4.75,3.07-4.52C285.4,326,285.74,323.58,286,322.3Z"/><path d="M294.11,350.4h8.19c.19,2.25.74,4.71-3,4.46-.29,0-.91,1.21-.94,1.87-.05,1.52-.67,2-2.15,2s-2-.77-2-2.17C294.27,354.53,294.17,352.46,294.11,350.4Z"/><path d="M315.79,363.12a10.72,10.72,0,0,1-1.21-2.49c-.32-1.6.75-1.89,2.1-1.91,1.61,0,2.17.84,1.83,2.17a8.47,8.47,0,0,1-1.53,2.3Z"/><path d="M290.34,322.37V309.85c3.95.25,3.95.25,3.95,4.19,0,4.22,0,4.22,4.24,3.92v4.42Z"/><path d="M294.11,330.49c.41-4.06.41-4.06,4.42-4.42a3.66,3.66,0,0,0-.15,1c.37,2.54-.69,3.59-3.23,3.23A3.67,3.67,0,0,0,294.11,330.49Z"/><path d="M261.9,299.92c0,6,0,6-5.91,6-6.23,0-6.23,0-6.23-6.21,0-6,0-6,5.91-6C261.9,293.69,261.9,293.69,261.9,299.92Z"/><path d="M334.78,299.72c0,6.19,0,6.19-6.25,6.19-5.89,0-5.89,0-5.89-6,0-6.2,0-6.2,6.25-6.2C334.78,293.69,334.78,293.69,334.78,299.72Z"/><path d="M249.75,372.81c0-5.94,0-5.94,6-5.94,6.19,0,6.19,0,6.19,6.25,0,6,0,6-6,6C249.75,379.08,249.75,379.08,249.75,372.81Z"/><path class="cls-29" d="M286,346.71c0-3.4.14-6.8.12-10.2,0-1.39.3-2.16,1.92-2.18s2.23.59,2.17,2.21a59.37,59.37,0,0,0,0,7c.18,2.31-.52,3.42-3,3a6.23,6.23,0,0,0-1.34.08Z"/></g><g class="cls-35"><path class="cls-29" d="M389.65,275.73H509.7q0,60.84,0,121.68H389.65Q389.65,336.57,389.65,275.73Zm13.55,54.6q0,1.91,0,3.82c-1.28.63-3.65-1.08-3.87,1.88-.25,3.37,2.39,1.93,3.87,2.41.07,4.65.16,9.3.19,14,0,1.34.22,2.26,1.88,2.23,1.35,0,2.35-.25,2.19-1.89s.45-2.27,2.13-2.24,2,.81,1.91,2.19c-.14,1.6.74,1.93,2.14,1.95,1.6,0,2-.78,1.94-2.18-.05-2,0-3.94,0-5.91,1.32.37,3.78.75,3.78,1.12,0,3.62,2.24,3,4.41,2.64.24,1.47-1.32,3.57,1.24,4.23s3-.39,2.43-4.24h4.45c-.05,1.59-.14,3.18-.15,4.77,0,3.81.06,3.86,3.9,3.35.22,2.22.89,4.68-2.86,4.45-.31,0-1,1.34-1,2.08-.1,3.84,0,7.69-.09,11.53-.07,2.09.8,2.66,2.7,2.54s3.75,0,5.63-.06c-.06,2.14-.21,4.28-.12,6.4a2.15,2.15,0,0,0,1.21,1.62c.77.17,2.37-.18,2.39-.42a29.7,29.7,0,0,0,0-6.86c-.05-.39-2.33-.46-3.58-.67,0-2-.13-4-.08-5.93,0-1.54-.41-2.45-2.13-2.27s-2-.67-2-2.11c0-1.59.7-2,2.14-2,1.26.07,2.52.05,3.78,0s2.35.27,2.19,1.91.52,2.36,2.18,2.19c1.41-.15,2,.58,1.88,1.92s.45,2.13,2,2.13,2-.58,2.15-2.05c.08-.72,1.11-1.88,1.75-1.9,4.13-.17,8.28-.16,12.41,0,.65,0,1.82,1,1.81,1.57,0,2.23,1.15,2.53,2.92,2.39a22.81,22.81,0,0,1,3,0c1.48.08,2.51-.27,2.34-2-.15-1.54.62-2,2.09-2s2.07.48,1.94,1.88c-.15,1.64.57,2.32,2.19,2.18s2.14,1,1.75,2.22a3,3,0,0,1-1.94,1.75c-1.38.29-2.89-.06-4.29.16-.65.11-1.67.95-1.68,1.46,0,3.05-1.62,2.91-3.72,2.08,0-3.65-2.2-4-5.09-3.66-2,.2-4,0-5.94,0-6.31.12-5.5-1.15-5.56,5.87,0,.18-.07.43,0,.53.59.6,1.24,1.66,1.81,1.62.77-.05,2.12-1,2.09-1.5-.13-2.5,1.33-2.45,3.1-2.49,3.21-.07,6.43-.32,9.64-.49-.19,1.73-1.92,4.4,1.4,4.51,8.18.28,16.37.14,24.56,0a2.68,2.68,0,0,0,1.82-1.86c.22-2.68.09-5.39.09-8.09,0-5.92,0-5.9-6-6.28-.69,0-2-.65-1.94-.85.52-3.42-2-3.15-4-3.42l.06.06-.08-3.82c2,0,4,0,5.94,0,1.33,0,2.09.44,2,1.85-.13,1.61.53,2.24,2.18,2.21,1.91,0,1.9-1.21,1.88-2.54a19.93,19.93,0,0,1,0-2.7c.26-2.19-.52-3.07-2.83-3-3,.14-6.11-.06-9.16-.12.07-1.22.13-2.43.19-3.66a11.88,11.88,0,0,1,1.85-.21c1.68.06,2.15-1,1.75-2.25a2.92,2.92,0,0,0-1.92-1.76c-2.17-.24-2.53.85-1.6,4.3-4.57-.88-4.57-.88-4.49-5.73a4.77,4.77,0,0,1,.09-1.59c.16-.42.68-1,1-1,3.52.38,2.95-2.06,3-4.14,0-1.33.11-2.66.17-4,3.84-.22,3.84-.22,3.85,3.66a8.82,8.82,0,0,0,.08,2.68c.22.66,1,1.59,1.54,1.59,1.86,0,2.5.69,2.58,2.54,0,.56,1.34,1.43,2.1,1.47.57,0,1.47-.93,1.75-1.64a8.6,8.6,0,0,0,.09-2.67c.08-2,.32-4.12-2.85-3.82-.35,0-1.13-1.1-1.12-1.68s.68-2.09,1-2.07c3.57.31,3-2.16,3-4.25,0-1.89-.07-3.78,0-5.66.08-1.63-.33-2.55-2.21-2.53-.6,0-1.75-.73-1.74-1.09.17-3.58-2.08-3.05-4.28-2.67.27-4.31.27-4.31-4-4.31H476c-4.11,0-4.16.07-3.55,4.31-1.79-.07-3.58-.12-5.37-.23s-3.23,0-3.07,2.49c0,.48-1,1.44-1.6,1.45-.76,0-2.21-.72-2.2-1.08.14-3.35-1.87-3.08-4.07-2.65q0-2.21,0-4.42c3.92.33,3.94.33,3.92-3.54,0-1.53-.11-3.05-.16-4.58,4.21.35,4.21.35,4.22,4.56,0,.63-.23,1.41.06,1.85.48.73,1.29,1.71,2,1.71a2.59,2.59,0,0,0,1.92-1.68,62,62,0,0,0,0-8.61,2.48,2.48,0,0,0-1.74-1.66,63.09,63.09,0,0,0-6.43.15c.44-4.31.44-4.31-3.76-4.36q0-1.91,0-3.82c4.15-.51,4.15-.51,3.77-4.37,1.41.69,4.24-1.3,4.19,2.1,0,1.76.82,2.08,2.32,2.07,1.74,0,1.79-1.09,1.76-2.35a17.18,17.18,0,0,0-.09-3.75c-.2-.77-1.1-1.87-1.76-1.92a53.93,53.93,0,0,0-6.43.17,10.76,10.76,0,0,0,.08-2.94,2.16,2.16,0,0,0-1.53-1.33c-.75-.05-2.07.35-2.21.82a11.62,11.62,0,0,0,0,3.45c-7.45-1.25-8-.92-8.28,5.77-.07,1.46-.49,2.14-2,2.09-2.7-.07-5.4-.05-8.11,0-1.28,0-2.16-.31-2-1.79.17-1.77-.59-2.41-2.35-2.33-2,.09-1.71,1.46-1.71,2.69q0,8,0,15.94c0,5.66,0,5.67,5.63,5.78,1.33,0,2.5,0,2.5,1.89,0,1.63-.54,2.36-2.19,2.19-1.41-.15-1.9.56-1.91,1.91s.32,2.33,2,2.14,2.1.67,2.21,2.23c0,.65,1.05,1.74,1.62,1.74,2,0,2.46,1,2.34,2.71-.07,1.08.07,2.17,0,3.24-.17,1.81.65,2.45,2.37,2.29a13.42,13.42,0,0,1,1.89.08c.25,1.29.55,3.71.75,3.7,3.62-.15,3.27,2.17,3,4.48-3.94-.38-3.94-.38-3.95,3.5,0,.72.06,1.45,0,2.16-.18,1.79.63,2.38,2.35,2.34,3.24-.07,6.48,0,9.72,0q0,1.91,0,3.82a11.53,11.53,0,0,0-2.62.25,2,2,0,0,0-1.26,1.29c-.08.79.06,2.14.52,2.34a10.65,10.65,0,0,0,3.35.41c.13,4,.13,4-3.8,4-1.88,0-3.76,0-5.64,0-1.25,0-2.54.18-2.63-1.77s.71-2.24,2.37-2.39c.62-.05,1.4-1.24,1.62-2,.36-1.29-.41-1.94-1.79-1.94-2.14,0-4.29-.09-6.43-.15.07-3.91.16-7.83.19-11.74,0-4.19,0-4.19-4-4.49,0-1.87-.12-3.75,0-5.61.07-1.64-.39-2.48-2.22-2.47-.61,0-1.78-.89-1.75-1.3.19-2.72-1.45-2.81-3.4-2.68-1.69.11-3.38.14-5.06.21.6-4.14.6-4.14-3.76-4.36-.05-2-.6-4.35,2.83-4.12.33,0,1.22-1.57,1-2.19a2.77,2.77,0,0,0-2-1.66c-5.31-.14-10.62-.06-15.93-.09-1.37,0-2.34.3-2.18,1.93s-.58,2.26-2.2,2.19a11.47,11.47,0,0,0-2.35.39,8.61,8.61,0,0,0,.37-3.09,2.48,2.48,0,0,0-2-1.3c-.66,0-1.77.94-1.79,1.5A3.5,3.5,0,0,0,400.7,322c.5.44,1.47.34,2.24.48l.26,3.58c-1.67.32-4.36-.8-3.84,2.66C399.74,331.33,402,329.67,403.2,330.33Zm24.48-30.45c0-4,0-8.1,0-12.15,0-1.58-.49-2.28-2.16-2.27q-12,.07-24,0c-1.64,0-2.21.62-2.2,2.23q.07,12,0,24c0,1.6.5,2.26,2.16,2.25q12-.07,24,0c1.61,0,2.24-.56,2.21-2.21C427.62,307.8,427.67,303.84,427.67,299.88Zm72.88.12c0-4-.06-8.1,0-12.15,0-1.72-.53-2.42-2.32-2.4q-11.88.09-23.75,0c-1.78,0-2.34.66-2.33,2.39q.09,11.88,0,23.75c0,1.73.55,2.39,2.32,2.38q11.88-.09,23.75,0c1.76,0,2.37-.62,2.33-2.37C500.49,307.74,500.55,303.87,500.55,300ZM399.33,372.81c0,3.87.07,7.74,0,11.61-.05,1.89.42,2.77,2.54,2.74,7.83-.1,15.65-.07,23.48,0,1.71,0,2.4-.54,2.38-2.33-.07-7.92-.08-15.83,0-23.75,0-1.95-.74-2.45-2.54-2.44-7.74.06-15.47.08-23.21,0-1.95,0-2.74.52-2.67,2.59C399.43,365.07,399.33,368.94,399.33,372.81Zm36.78,12.87v-1.21a8.91,8.91,0,0,0-2.34-1.38c-1.42-.32-2.07.42-2.06,1.95s.55,2.33,2,2A9.06,9.06,0,0,0,436.11,385.68Zm6.21-96.47-1.18,0a9.63,9.63,0,0,0-1.27,2.43c-.3,1.51.65,1.95,2.06,2s2.2-.78,1.87-2.13A8.51,8.51,0,0,0,442.33,289.21Z"/><path d="M472.63,382.56c2.08.85,3.68,1,3.7-2.06,0-.52,1-1.36,1.68-1.46,1.4-.23,2.91.12,4.29-.16a3,3,0,0,0,1.94-1.75c.39-1.23-.07-2.37-1.75-2.22s-2.35-.54-2.19-2.18c.13-1.4-.59-1.86-1.94-1.88s-2.24.47-2.09,2c.17,1.78-.86,2.13-2.34,2a22.81,22.81,0,0,0-3,0c-1.77.14-3-.16-2.92-2.39,0-.54-1.16-1.55-1.81-1.57-4.13-.14-8.28-.16-12.41,0-.64,0-1.66,1.18-1.75,1.9-.17,1.47-.65,2-2.15,2.05s-2.12-.67-2-2.13-.47-2.07-1.88-1.92c-1.65.17-2.33-.58-2.18-2.19s-.83-2-2.19-1.91-2.52.06-3.78,0c-1.44-.08-2.16.38-2.14,2,0,1.44.4,2.28,2,2.11s2.17.73,2.13,2.27c0,2,0,4,.08,5.93L440,379c-1.88,0-3.76-.06-5.63.06s-2.77-.45-2.7-2.54c.13-3.84,0-7.69.09-11.53,0-.73.69-2.09,1-2.08,3.75.22,3.08-2.24,2.86-4.45l-.06.08H440l-.07-.07a7.19,7.19,0,0,0,0,2.63c.27.68,1.21,1.58,1.78,1.53a3,3,0,0,0,2.06-1.54c.34-.71,0-1.73,0-2.61l-.08.07c2.14.05,4.29.15,6.43.15,1.38,0,2.15.65,1.79,1.94-.22.8-1,2-1.62,2-1.65.15-2.45.57-2.37,2.39s1.38,1.76,2.63,1.77c1.88,0,3.76,0,5.64,0,3.93,0,3.93,0,3.8-4l-.08.07a17.65,17.65,0,0,1,2.11-.12c1.4.08,2.11-.35,2.13-1.92s-.51-2.3-2.15-2.17a11.76,11.76,0,0,1-2.1-.2l.08.06v-3.82l-.08.07a5.41,5.41,0,0,1,1.32-.13c2.4.36,3.14-.72,2.93-3a43.55,43.55,0,0,1,.09-5c2.12-.22,4.3-.63,4.07,2.78,0,.34,1.44,1.09,2.21,1.07a2.24,2.24,0,0,0,1.6-1.49c.26-2.22.24-4.47.32-6.71l-.08.08c3.91.23,3.91.23,3.85-3.85l-.08.08,4.42-.07c-.5,3.47,0,4.35,2.3,3.91,2.58-.49,1.11-2.54,1.39-3.92l4.42.08-.08-.07c-.06,1.33-.16,2.66-.17,4,0,2.08.55,4.52-3,4.14-.3,0-.82.59-1,1a4.77,4.77,0,0,0-.09,1.59c-.08,4.85-.08,4.85,4.49,5.73l-.07-.07-.2,3.65.08-.06a16.42,16.42,0,0,1-2.4.21c-1.63-.09-2.21.85-1.82,2.15a3.66,3.66,0,0,0,1.84,1.86,6.51,6.51,0,0,0,2.38.2l-.08-.07q0,1.91.08,3.82a6.87,6.87,0,0,0-2.64.26,3,3,0,0,0-1.53,2.08,2.51,2.51,0,0,0,1.76,1.77,3,3,0,0,0,2.08-1.53,6.9,6.9,0,0,0,.28-2.63c2.07.26,4.55,0,4,3.42,0,.19,1.25.8,1.94.85,6,.38,6,.36,6,6.28,0,2.7.12,5.41-.09,8.09a2.68,2.68,0,0,1-1.82,1.86c-8.18.13-16.38.27-24.56,0-3.32-.11-1.59-2.78-1.4-4.51Zm1.68-15.79c6,0,6,0,6-6v-.27c0-5.93,0-5.93-6-5.93s-6.13,0-6.13,6.09S468.16,366.77,474.31,366.77ZM496.75,379l-.24-.05c0-.54,0-1.08,0-1.62.07-1.38,0-2.45-1.93-2.46-1.7,0-2.27.69-2.13,2.26s-.94,1.76-2.23,1.94a2.42,2.42,0,0,0-1.71,1.43c-.15.7.37,2.23.68,2.25a24.07,24.07,0,0,0,6.65-.14C496.37,382.5,496.46,380.25,496.75,379Z"/><path d="M448.1,338.43a13.4,13.4,0,0,0-1.89-.08c-1.72.16-2.53-.48-2.37-2.29.1-1.07,0-2.16,0-3.24.12-1.72-.31-2.72-2.34-2.71-.57,0-1.58-1.1-1.62-1.74-.11-1.55-.51-2.41-2.21-2.23s-2-.75-2-2.14.5-2.06,1.91-1.91c1.65.17,2.19-.56,2.19-2.19,0-1.94-1.16-1.86-2.5-1.89-5.63-.11-5.63-.13-5.63-5.78q0-8,0-15.94c0-1.23-.28-2.59,1.71-2.69,1.76-.08,2.52.56,2.35,2.33-.14,1.48.73,1.81,2,1.79,2.7,0,5.41-.07,8.11,0,1.55,0,2-.63,2-2.09.33-6.69.83-7,8.28-5.77l-.1-.1v3.85l.08-.08a19.68,19.68,0,0,1-2.13.09c-1.4-.09-2.13.34-2.14,1.92s.54,2.29,2.17,2.18a11.18,11.18,0,0,1,2.1.23l-.08-.06v3.82l.08-.07c-3.33,0-6.66.12-10,.1-1.44,0-2.4.18-2.39,2s.76,2.18,2.3,2.09a20.28,20.28,0,0,1,4,.05c.63.09,1.62.73,1.67,1.2a30.18,30.18,0,0,1,0,5.65c0,.43-.89.95-1.46,1.14a11.52,11.52,0,0,1-2.38.31,22.36,22.36,0,0,1-.09-2.4c.11-1.6-.79-2.23-2.12-1.84a3.14,3.14,0,0,0-1.86,1.79c-.37,1.22,0,2.3,1.73,2.21a17.65,17.65,0,0,1,2.39.18l-.06,3.81.08-.08A17.14,17.14,0,0,1,446,318c-1.39-.08-2.13.33-2.14,1.92s.51,2.31,2.15,2.18a12.12,12.12,0,0,1,2.11.19l-.08-.08c0,2.07-.14,4.14,0,6.19,0,.61.78,1.7,1.15,1.68,3.39-.18,3,1.95,2.65,4.09l.07-.07c-4.06.44-4.06.44-3.84,4.41Zm-8.28-30.68c0-1.35-.06-2.7,0-4,.09-1.6-.72-2-2.14-2s-2,.51-1.93,1.91c.05,2.7.08,5.4,0,8.1-.05,1.6.47,2.26,2.15,2.24s2-.78,1.93-2.18S439.82,309.1,439.82,307.75Z"/><path d="M427.67,299.88c0,4-.06,7.92,0,11.88,0,1.65-.6,2.22-2.21,2.21q-12-.07-24,0c-1.66,0-2.17-.66-2.16-2.25q.08-12,0-24c0-1.61.57-2.24,2.2-2.23q12,.07,24,0c1.67,0,2.18.69,2.16,2.27C427.63,291.78,427.67,295.83,427.67,299.88Zm-14.11,10c2.7,0,5.42.13,8.1-.09a2.67,2.67,0,0,0,1.86-1.8q.22-8.24,0-16.49a2.66,2.66,0,0,0-1.84-1.84c-5.4-.15-10.81-.06-16.22-.1-1.48,0-2.12.54-2.11,2.05q.06,8.11,0,16.22c0,1.52.59,2.09,2.09,2.05C408.16,309.81,410.86,309.86,413.56,309.86Z"/><path d="M500.55,300c0,3.87-.06,7.74,0,11.61,0,1.75-.57,2.38-2.33,2.37q-11.88-.09-23.75,0c-1.77,0-2.33-.65-2.32-2.38q.1-11.88,0-23.75c0-1.73.55-2.4,2.33-2.39q11.88.09,23.75,0c1.79,0,2.35.68,2.32,2.4C500.5,291.9,500.55,296,500.55,300Zm-14.11,9.85c2.7,0,5.41,0,8.11,0,1.36,0,2-.51,2-1.9q0-8.24,0-16.49c0-1.38-.59-1.93-2-1.92-5.41,0-10.81,0-16.22,0-1.49,0-2.1.55-2.09,2.06q.07,8.11,0,16.22c0,1.52.59,2.08,2.09,2C481,309.81,483.74,309.86,486.45,309.86Z"/><path d="M399.33,372.81c0-3.87.1-7.74,0-11.6-.08-2.07.72-2.61,2.67-2.59,7.74.08,15.47.07,23.21,0,1.8,0,2.56.49,2.54,2.44-.09,7.92-.08,15.83,0,23.75,0,1.79-.67,2.34-2.38,2.33-7.83-.05-15.66-.08-23.48,0-2.12,0-2.59-.85-2.54-2.74C399.4,380.55,399.33,376.68,399.33,372.81Zm24.29.24c0-2.7-.06-5.41,0-8.11,0-1.61-.53-2.25-2.19-2.23q-8,.1-15.95,0c-1.7,0-2.16.72-2.14,2.28.05,5.23.07,10.45,0,15.68,0,1.72.56,2.41,2.34,2.39q7.84-.11,15.68,0c1.85,0,2.33-.78,2.27-2.44C423.56,378.1,423.62,375.57,423.62,373.05Z"/><path d="M431.88,350.3h-4.45l.1.09c.29-3.57-.14-4.3-2.4-3.89-2.58.47-1.07,2.55-1.45,3.88l.09-.09c-2.17.34-4.41,1-4.41-2.64,0-.37-2.46-.75-3.78-1.12l.07.08V342.2l-.08.08c2.84,0,5.68.09,8.52.1,3.8,0,3.86-.08,3.36-3.94a6.41,6.41,0,0,0,2.37-.18,3.63,3.63,0,0,0,1.82-1.85c.38-1.28-.16-2.26-1.79-2.15a22,22,0,0,1-2.4-.1l.08-3.85-.1.09c1.69-.07,3.38-.11,5.06-.21,2-.12,3.59,0,3.4,2.68,0,.41,1.14,1.3,1.75,1.3,1.83,0,2.29.83,2.22,2.47-.08,1.87,0,3.74,0,5.61l.08-.06c-1.9.46-5-.66-4.33,3.25,0,.26-.71,1-1.05.93-3.38-.32-2.93,2-2.81,4Z"/><path d="M451.86,346.62c.26-2.32.61-4.63-3-4.48-.2,0-.5-2.41-.75-3.7l-.08.07c4.06-.44,4.06-.44,3.84-4.41l-.07.07c4.22.23,4.2.23,4.23-4,0-2.66.12-5.31.18-8l-.06.07c2.2-.44,4.21-.7,4.07,2.65,0,.36,1.44,1.09,2.2,1.08.57,0,1.63-1,1.6-1.45-.16-2.45,1.28-2.59,3.07-2.49s3.58.15,5.37.23l-.1-.09v3.86l.08-.08a11.14,11.14,0,0,0-2.67.23c-.61.2-1.54.92-1.51,1.34.22,2.53-1.18,2.85-3.15,2.68-.89-.08-1.8,0-2.7,0-1.25,0-2.34,0-2.36,1.76,0,1.52.34,2.47,2.08,2.3,1.55-.16,2.09.63,2,2.09a17.3,17.3,0,0,0,.12,2.15l.07-.07c-4.1-.23-4.1-.23-4.35,3.85-2,.14-4.51-.4-4.07,3.09,0,.29-.91.9-1.47,1a13.59,13.59,0,0,1-2.63.13Z"/><path d="M472.46,322.3c-.61-4.24-.55-4.3,3.55-4.31h12.36c4.25,0,4.25,0,4,4.31l.08-.09c-2.07,0-4.14-.11-6.21-.12-5.72,0-5.76,0-5.89,5.8,0,1.49-.28,2.51-2.06,2.32s-2,.9-2,2.36c0,2-.07,4-.11,5.94l.08-.08c-4.19-.21-4.19-.21-3.85,3.85l.08-.08-8.17.08.05-3.85-.07.07c2.07-.2,4.58.17,4.05-3.32,0-.21,1.24-.87,1.91-.87,1.55,0,2-.69,2-2.14,0-2.06.13-4.12.21-6.18l-.08.08c1.35-.31,3.39,1.15,3.85-1.43.4-2.27-.29-2.68-3.85-2.43Z"/><path d="M402.87,322.52a10.84,10.84,0,0,1,2.36-.41c1.62.07,2.37-.54,2.2-2.19s.81-1.94,2.18-1.93c5.31,0,10.62-.05,15.93.09a2.77,2.77,0,0,1,2,1.66c.17.62-.71,2.21-1,2.19-3.43-.23-2.88,2.08-2.83,4.12l.08-.06c-1.41.05-2.81.15-4.22.16-4.12,0-4.12,0-3.89,4.27l-4.42-.09.07.07c.46-4.24.46-4.23-3.64-4.25-1.51,0-3-.1-4.54-.16l.08.07-.26-3.58Z"/><path d="M492.35,322.3c2.21-.38,4.45-.91,4.28,2.67,0,.35,1.14,1.1,1.74,1.09,1.88,0,2.28.9,2.21,2.53-.09,1.88,0,3.78,0,5.66,0,2.09.59,4.56-3,4.25-.29,0-1,1.34-1,2.07s.77,1.72,1.12,1.68c3.18-.29,2.93,1.79,2.85,3.82a8.6,8.6,0,0,1-.09,2.67c-.28.71-1.17,1.67-1.75,1.64-.76,0-2.08-.91-2.1-1.47-.08-1.85-.73-2.54-2.58-2.54-.54,0-1.32-.94-1.54-1.59a8.82,8.82,0,0,1-.08-2.68c0-3.88,0-3.88-3.85-3.66l.08.07c-.63-4.18-.57-4.24,3.6-4.25a8.09,8.09,0,0,0,2.67-.09c.64-.24,1.46-1.09,1.45-1.66,0-.76-.8-2.19-1.13-2.16-3.26.32-2.86-1.85-2.83-3.83,0-1.44,0-2.87,0-4.31Z"/><path d="M415.58,346.54c0,2-.06,3.94,0,5.91,0,1.4-.34,2.19-1.94,2.18-1.4,0-2.28-.35-2.14-1.95.12-1.38-.3-2.16-1.91-2.19s-2.28.66-2.13,2.24-.85,1.87-2.19,1.89c-1.66,0-1.87-.89-1.88-2.23,0-4.65-.12-9.3-.19-14l-.08.07c1.51-.06,3-.16,4.54-.17,4.11,0,4.11,0,3.65-4.24l-.07.07,4.42-.08-.08,8.2.08-.08c-2.05.07-4.1.2-6.15.17-1.48,0-2.06.53-2.06,2s.57,2.07,2.06,2.05c2.05,0,4.1.09,6.16.15Z"/><path d="M439.9,342.26c4,.3,4,.3,4,4.49,0,3.91-.12,7.83-.19,11.74l.08-.07h-3.84l.07.07a19.11,19.11,0,0,1-.15-2.13c.05-1.47-.76-1.77-2-1.78s-2.07.32-2,1.78a16.63,16.63,0,0,1-.19,2.12l.06-.08c-3.84.51-3.92.46-3.9-3.35,0-1.59.1-3.18.15-4.77l-.09.09a50,50,0,0,0,6.13,0,2.71,2.71,0,0,0,1.81-1.83,57.94,57.94,0,0,0,.25-6.39Z"/><path d="M472.68,382.5c-3.21.17-6.42.42-9.64.49-1.77,0-3.23,0-3.1,2.49,0,.5-1.33,1.44-2.09,1.5-.57,0-1.23-1-1.81-1.62-.09-.09,0-.35,0-.53.06-7-.75-5.75,5.56-5.87,2,0,4,.16,5.94,0,2.88-.29,5.13,0,5.1,3.65Z"/><path d="M488.58,358.48c3.06.05,6.12.25,9.16.12,2.31-.1,3.09.77,2.83,3a19.93,19.93,0,0,0,0,2.7c0,1.33,0,2.51-1.88,2.54-1.65,0-2.32-.61-2.18-2.21.11-1.42-.65-1.89-2-1.85-2,.06-4,0-5.94,0l.08.07v-4.42Z"/><path d="M460,354.66c-3.24,0-6.48-.1-9.72,0-1.73,0-2.54-.56-2.35-2.34.07-.71,0-1.44,0-2.16,0-3.88,0-3.88,3.95-3.5l-.07-.08c.42,4,.42,4,4.34,4,4.15,0,4.15,0,3.77,4.21Z"/><path d="M459.89,306.07a63.09,63.09,0,0,1,6.43-.15,2.48,2.48,0,0,1,1.74,1.66,62,62,0,0,1,0,8.61,2.59,2.59,0,0,1-1.92,1.68c-.67,0-1.48-1-2-1.71-.29-.44-.06-1.22-.06-1.85,0-4.21,0-4.21-4.22-4.56l.09.08V306Z"/><path d="M459.89,289.85a53.92,53.92,0,0,1,6.43-.17c.66.05,1.56,1.15,1.76,1.92a17.18,17.18,0,0,1,.09,3.75c0,1.25,0,2.33-1.76,2.35-1.5,0-2.35-.31-2.32-2.07,0-3.4-2.78-1.41-4.19-2.1l.09.08v-3.85Z"/><path d="M456.13,317.86q0,2.21,0,4.42l.06-.07H448l.08.08v-4.42l-.08.08h8.19Z"/><path d="M439.94,379c1.25.22,3.52.29,3.58.67a29.7,29.7,0,0,1,0,6.86c0,.24-1.63.59-2.39.42a2.15,2.15,0,0,1-1.21-1.62c-.09-2.13.06-4.27.12-6.41Z"/><path d="M459.89,309.75c.06,1.53.16,3.05.16,4.58,0,3.87,0,3.87-3.92,3.54l.07.08c-.06-1.33-.17-2.65-.18-4,0-4.05,0-4.05,4-4.13Z"/><path d="M403.2,334.15v-3.82l-.08.06h8.19l-.07-.07v3.84l.07-.07h-8.19Z"/><path d="M423.68,326c4.36.22,4.36.22,3.76,4.36l.1-.09-3.84.08.07-4.42Z"/><path d="M456.23,289.85a11.62,11.62,0,0,1,0-3.45c.14-.48,1.46-.87,2.21-.82a2.16,2.16,0,0,1,1.53,1.33,10.76,10.76,0,0,1-.08,2.94l.09-.09h-3.86Z"/><path d="M427.43,350.3c.56,3.85,0,4.87-2.43,4.24s-1-2.76-1.24-4.23l-.09.09h3.86Z"/><path d="M460,362.77a10.65,10.65,0,0,1-3.35-.41c-.46-.21-.61-1.55-.52-2.34a2,2,0,0,1,1.26-1.29,11.53,11.53,0,0,1,2.62-.25l-.08-.06v4.42Z"/><path d="M456.13,301.71c4.2.05,4.2.05,3.76,4.36L460,306c-4.23-.42-4.23-.42-3.78-4.34Z"/><path d="M459.89,293.53c.38,3.85.38,3.85-3.77,4.37l.08.06v-4.42l-.08.08H460Z"/><path d="M403.2,338.44c-1.49-.48-4.12,1-3.87-2.41.22-3,2.59-1.25,3.87-1.88l-.08-.07v4.42Z"/><path d="M403.2,330.33c-1.23-.66-3.46,1-3.84-1.63-.51-3.46,2.17-2.34,3.84-2.66l-.08-.07v4.42Z"/><path d="M402.93,322.46c-.76-.14-1.73,0-2.24-.48a3.5,3.5,0,0,1-1.24-2.37c0-.56,1.13-1.47,1.79-1.5a2.48,2.48,0,0,1,2,1.3,8.51,8.51,0,0,1-.38,3.1Z"/><path d="M436.11,385.68a9.06,9.06,0,0,1-2.4,1.37c-1.47.32-2-.54-2-2s.64-2.27,2.06-1.95a8.91,8.91,0,0,1,2.34,1.38Z"/><path d="M488.85,354.91c-.93-3.45-.56-4.54,1.6-4.3a2.92,2.92,0,0,1,1.92,1.76c.39,1.24-.08,2.31-1.75,2.25a11,11,0,0,0-1.85.22Z"/><path d="M442.33,289.21a8.51,8.51,0,0,1,1.48,2.31c.33,1.35-.31,2.14-1.87,2.13s-2.36-.44-2.06-2a9.63,9.63,0,0,1,1.27-2.43Z"/><path class="cls-29" d="M492.43,322.2c0,1.44,0,2.87,0,4.31,0,2-.43,4.15,2.83,3.83.34,0,1.13,1.4,1.13,2.16,0,.58-.82,1.42-1.45,1.66a8.09,8.09,0,0,1-2.67.09c-4.18,0-4.23.07-3.6,4.25l-4.42-.08.07.07a10.08,10.08,0,0,0,0-2.63,2.28,2.28,0,0,0-1.32-1.5c-.76-.14-2.21.11-2.33.5a13.65,13.65,0,0,0-.17,3.62l.08-.06-4.42.07c0-2,.14-4,.11-5.94,0-1.45.22-2.55,2-2.36s2-.84,2.06-2.32c.14-5.81.18-5.82,5.89-5.8C488.29,322.09,490.36,322.16,492.43,322.2Zm-6.8,8.32,1.24,0a8.61,8.61,0,0,0,1.47-2.3c.34-1.35-.23-2.19-1.86-2.16-1.4,0-2.42.37-2.1,2A10.31,10.31,0,0,0,485.63,330.52Z"/><path class="cls-29" d="M474.31,366.77c-6.15,0-6.15,0-6.15-6.08s0-6.09,6.13-6.09,6,0,6,5.93v.27C480.31,366.77,480.31,366.77,474.31,366.77Zm-.59-3.68,1.2,0a10.14,10.14,0,0,0,1.29-2.45c.33-1.54-.62-2-2-2s-2.24.72-1.89,2.11A9,9,0,0,0,473.72,363.09Z"/><path class="cls-29" d="M459.9,354.73c.39-4.21.39-4.21-3.77-4.21-3.93,0-3.93,0-4.34-4a13.59,13.59,0,0,0,2.63-.13c.57-.13,1.51-.74,1.47-1-.44-3.49,2-3,4.07-3.09l-.06-.08c.34,4.06.34,4.06,4.42,4.42l-.08-.06a43.56,43.56,0,0,0-.09,5c.21,2.29-.53,3.37-2.93,3A5.41,5.41,0,0,0,459.9,354.73Z"/><path class="cls-29" d="M464.26,342.28l8.17-.08c-.08,2.24-.05,4.49-.32,6.71a2.24,2.24,0,0,1-1.6,1.49c-.76,0-2.23-.73-2.21-1.07.23-3.4-1.95-3-4.07-2.78l.08.06q0-2.21,0-4.42Z"/><path class="cls-29" d="M496.75,379c-.29,1.26-.37,3.51-.9,3.62a24.07,24.07,0,0,1-6.65.14c-.32,0-.84-1.55-.68-2.25a2.42,2.42,0,0,1,1.71-1.43c1.28-.18,2.38-.26,2.23-1.94s.43-2.27,2.13-2.26c1.89,0,2,1.07,1.93,2.46,0,.54,0,1.08,0,1.62Z"/><path class="cls-29" d="M488.66,358.42v4.42a6.51,6.51,0,0,1-2.38-.2,3.66,3.66,0,0,1-1.84-1.86c-.39-1.31.2-2.24,1.82-2.15A16.42,16.42,0,0,0,488.66,358.42Z"/><path class="cls-29" d="M459.9,362.84v-4.42a11.76,11.76,0,0,0,2.1.2c1.63-.12,2.16.59,2.15,2.17s-.73,2-2.13,1.92A17.65,17.65,0,0,0,459.9,362.84Z"/><path class="cls-29" d="M488.6,366.53a6.9,6.9,0,0,1-.28,2.63,3,3,0,0,1-2.08,1.53,2.51,2.51,0,0,1-1.76-1.77,3,3,0,0,1,1.53-2.08,6.87,6.87,0,0,1,2.64-.26Z"/><path class="cls-29" d="M439.91,358.43h3.84c0,.88.36,1.91,0,2.61a3,3,0,0,1-2.06,1.54c-.57,0-1.51-.85-1.78-1.53A7.19,7.19,0,0,1,439.91,358.43Z"/><path class="cls-29" d="M435.57,358.49a16.63,16.63,0,0,0,.19-2.12c0-1.47.75-1.79,2-1.78s2.09.3,2,1.78a19.11,19.11,0,0,0,.15,2.13Z"/><path class="cls-29" d="M484.24,338.43c-.29,1.37,1.19,3.43-1.39,3.92-2.31.44-2.8-.44-2.3-3.91l-.08.06h3.84Z"/><path class="cls-29" d="M472.35,342.28c-.34-4.06-.33-4.06,3.85-3.85C476.26,342.51,476.26,342.51,472.35,342.28Z"/><path class="cls-29" d="M456.21,301.65c-.45,3.92-.45,3.92,3.78,4.34v3.85c-4,.07-4,.08-4,4.13,0,1.33.12,2.65.18,4H448l.06-3.81-.06.07a11.59,11.59,0,0,0,2.38-.32c.57-.19,1.42-.71,1.46-1.14a30.18,30.18,0,0,0,0-5.65c0-.47-1-1.11-1.67-1.2a20.28,20.28,0,0,0-4-.05c-1.55.09-2.3-.36-2.3-2.09s.95-2,2.39-2C449.55,301.76,452.88,301.68,456.21,301.65Z"/><path class="cls-29" d="M448,322.2h8.19c-.06,2.65-.16,5.31-.18,8,0,4.21,0,4.21-4.23,4,.34-2.14.74-4.27-2.65-4.09-.37,0-1.11-1.07-1.15-1.68C447.87,326.34,448,324.27,448,322.2Z"/><path class="cls-29" d="M439.82,307.75c0,1.35,0,2.7,0,4s-.3,2.16-1.93,2.18-2.2-.64-2.15-2.24c.09-2.7.06-5.4,0-8.1,0-1.39.55-1.9,1.93-1.91s2.23.36,2.14,2C439.76,305,439.82,306.4,439.82,307.75Z"/><path class="cls-29" d="M448.1,317.87v4.42a12.12,12.12,0,0,0-2.11-.19c-1.64.13-2.16-.59-2.15-2.18s.75-2,2.14-1.92A17.14,17.14,0,0,0,448.1,317.87Z"/><path class="cls-29" d="M456.21,293.53V298a11.18,11.18,0,0,0-2.1-.23c-1.63.12-2.18-.57-2.17-2.18s.74-2,2.14-1.92A19.68,19.68,0,0,0,456.21,293.53Z"/><path class="cls-29" d="M448.08,314.14a17.65,17.65,0,0,0-2.39-.18c-1.7.1-2.1-1-1.73-2.21a3.14,3.14,0,0,1,1.86-1.79c1.33-.39,2.22.23,2.12,1.84a22.36,22.36,0,0,0,.09,2.4Z"/><path class="cls-29" d="M451.86,334.09c.22,4,.22,4-3.84,4.41C447.8,334.53,447.8,334.53,451.86,334.09Z"/><path class="cls-29" d="M460,293.61h-3.85v-3.85H460Z"/><path class="cls-29" d="M413.56,309.86c-2.7,0-5.41,0-8.11,0-1.49,0-2.1-.54-2.09-2.05q.07-8.11,0-16.22c0-1.52.63-2.06,2.11-2.05,5.41,0,10.81,0,16.22.1a2.66,2.66,0,0,1,1.84,1.84q.22,8.24,0,16.49a2.67,2.67,0,0,1-1.86,1.8C419,310,416.27,309.86,413.56,309.86Zm0-16.25c-6.1,0-6.1,0-6.1,6.1s0,6.12,6.05,6.12,6.09,0,6.09-6.08S419.58,293.6,413.52,293.6Z"/><path class="cls-29" d="M486.45,309.86c-2.7,0-5.41,0-8.11,0-1.49,0-2.1-.53-2.09-2q.07-8.11,0-16.22c0-1.52.6-2.07,2.09-2.06,5.41,0,10.81,0,16.22,0,1.36,0,2,.54,2,1.92q0,8.24,0,16.49c0,1.39-.59,1.93-2,1.9C491.85,309.82,489.15,309.86,486.45,309.86Zm-.24-4c6.26,0,6.26,0,6.26-6.18v-.27c0-5.76,0-5.76-5.89-5.76-6.26,0-6.26,0-6.26,6.2C480.31,305.82,480.31,305.82,486.2,305.82Z"/><path class="cls-29" d="M423.62,373.05c0,2.52-.06,5,0,7.57.06,1.67-.42,2.47-2.27,2.44q-7.84-.13-15.68,0c-1.78,0-2.36-.67-2.34-2.39.07-5.23.06-10.45,0-15.68,0-1.56.44-2.3,2.14-2.28q8,.1,15.95,0c1.65,0,2.24.62,2.19,2.23C423.56,367.64,423.62,370.35,423.62,373.05Zm-4-.19c0-6.09,0-6.09-6.09-6.09s-6.06,0-6.06,6.11,0,6.11,6.09,6.11S419.58,379,419.58,372.86Z"/><path class="cls-29" d="M415.57,342.28l.08-8.2-.08.09c1.32.39,3.8.85,3.78,1.17-.19,3.46,2.07,3,4.2,3,1.33,0,2.65.1,4,.15l-.07-.06c.5,3.86.44,4-3.36,3.94C421.25,342.37,418.41,342.31,415.57,342.28Z"/><path class="cls-29" d="M440,342.2a57.94,57.94,0,0,1-.25,6.39,2.71,2.71,0,0,1-1.81,1.83,50,50,0,0,1-6.13,0c-.12-2.07-.56-4.34,2.81-4,.34,0,1.09-.66,1.05-.93C435,341.54,438.09,342.66,440,342.2Z"/><path class="cls-29" d="M415.64,346.62c-2.05-.06-4.1-.18-6.16-.15-1.49,0-2.05-.54-2.06-2.05s.58-2.06,2.06-2c2,0,4.1-.11,6.15-.17Z"/><path class="cls-29" d="M427.45,334.16a22,22,0,0,0,2.4.1c1.64-.1,2.18.87,1.79,2.15a3.63,3.63,0,0,1-1.82,1.85,6.41,6.41,0,0,1-2.37.18l.07.06v-4.41Z"/><path class="cls-29" d="M427.53,350.39h-3.86c.39-1.34-1.12-3.42,1.45-3.88C427.39,346.1,427.82,346.82,427.53,350.39Z"/><path class="cls-29" d="M423.69,330.4l3.84-.08-.08,3.85.08-.07c-4,.37-4,.34-3.77-3.77Z"/><path class="cls-29" d="M472.44,326c-.08,2.06-.22,4.12-.21,6.18,0,1.45-.47,2.13-2,2.14-.67,0-1.94.67-1.91.87.53,3.49-2,3.12-4.05,3.32a17.3,17.3,0,0,1-.12-2.15c.09-1.47-.45-2.25-2-2.09-1.75.18-2.1-.77-2.08-2.3,0-1.75,1.11-1.78,2.36-1.76.9,0,1.81-.06,2.7,0,2,.17,3.38-.15,3.15-2.68,0-.42.9-1.14,1.51-1.34A11.14,11.14,0,0,1,472.44,326Z"/><path class="cls-29" d="M464.32,338.43l-.05,3.85.06-.08H459.9l.06.08C460.21,338.2,460.21,338.2,464.32,338.43Z"/><path class="cls-29" d="M472.35,322.2c3.56-.25,4.25.16,3.85,2.43-.46,2.57-2.5,1.12-3.85,1.43Q472.35,324.13,472.35,322.2Z"/><path class="cls-29" d="M403.11,330.39V326c1.51.06,3,.15,4.54.16,4.11,0,4.11,0,3.64,4.25Z"/><path class="cls-29" d="M423.76,326l-.07,4.42.06-.08h-8.19l.08.09c-.24-4.26-.24-4.25,3.89-4.27C420.94,326.13,422.35,326,423.76,326Z"/><path class="cls-29" d="M411.23,334.16v-3.84l4.42.09-.08-.09v3.85l.08-.09Z"/><path class="cls-29" d="M403.11,338.51v-4.42h8.19c.46,4.23.46,4.21-3.65,4.24C406.14,338.34,404.62,338.45,403.11,338.51Z"/><path d="M485.63,330.52a10.31,10.31,0,0,1-1.25-2.47c-.32-1.59.69-1.93,2.1-2,1.62,0,2.2.81,1.86,2.16a8.61,8.61,0,0,1-1.47,2.3Z"/><path d="M484.32,338.5h-3.84a13.65,13.65,0,0,1,.17-3.62c.12-.4,1.57-.64,2.33-.5a2.28,2.28,0,0,1,1.32,1.5A10.08,10.08,0,0,1,484.32,338.5Z"/><path d="M473.72,363.09a9,9,0,0,1-1.45-2.35c-.35-1.39.34-2.13,1.89-2.11s2.37.44,2,2a10.14,10.14,0,0,1-1.29,2.45Z"/><path d="M459.9,342.2h4.42q0,2.21,0,4.42C460.24,346.26,460.24,346.26,459.9,342.2Z"/><path d="M413.52,293.6c6.05,0,6.05,0,6.05,6.14s0,6.08-6.09,6.08-6.05,0-6.05-6.12S407.43,293.6,413.52,293.6Z"/><path d="M486.2,305.82c-5.89,0-5.89,0-5.89-6,0-6.2,0-6.2,6.26-6.2,5.89,0,5.89,0,5.89,5.76v.27C492.46,305.82,492.46,305.82,486.2,305.82Z"/><path d="M419.58,372.86c0,6.13,0,6.13-6.06,6.13s-6.09,0-6.09-6.11,0-6.11,6.06-6.11S419.58,366.77,419.58,372.86Z"/><path d="M415.57,334.17v-3.85h8.19c-.24,4.12-.21,4.14,3.77,3.77v4.41c-1.33-.05-2.65-.16-4-.15-2.13,0-4.39.45-4.2-3C419.37,335,416.89,334.56,415.57,334.17Z"/></g><text class="cls-36" transform="translate(237.92 415.85)">And<tspan class="cls-37" x="36.67" y="0">r</tspan><tspan x="44.35" y="0">oid下載</tspan></text><text class="cls-36" transform="translate(416.53 415.85)">iOS下載</text><path class="cls-1" d="M278.93,188.83l-.18.7H281l-1.11-4.39C279.55,186.41,279.23,187.65,278.93,188.83Z"/><path class="cls-1" d="M438.22,189.83c-.34,1.21-.68,2.47-1,3.67l-.18.7h2.24l-.18-.7C438.88,192.5,438.56,191.21,438.22,189.83Z"/><path class="cls-38" d="M349.47,162.5h-4.15a2.2,2.2,0,0,0-2.19,2.19s0,21.85,0,27.13a1.39,1.39,0,0,1-2.67.54L333,174.73a2.19,2.19,0,0,0-2-1.34h-5.53a2.2,2.2,0,0,0-2.19,2.19v35.16a2.2,2.2,0,0,0,2.19,2.19h4.15a2.2,2.2,0,0,0,2.19-2.19l0-16.23a1.38,1.38,0,0,1,1.11-1.36l.29,0a1.38,1.38,0,0,1,1.27.85l7.46,17.63a2.19,2.19,0,0,0,2,1.34h5.53a2.2,2.2,0,0,0,2.19-2.19v-46A2.2,2.2,0,0,0,349.47,162.5Z"/><path class="cls-39" d="M349.47,160.13h-4.15a4.56,4.56,0,0,0-4.56,4.56s0,14,0,22.32l-5.58-13.21A4.55,4.55,0,0,0,331,171h-5.53a4.56,4.56,0,0,0-4.56,4.56v35.16a4.56,4.56,0,0,0,4.56,4.56h4.15a4.56,4.56,0,0,0,4.56-4.56V199.31l5.58,13.2a4.55,4.55,0,0,0,4.2,2.78h5.53a4.56,4.56,0,0,0,4.56-4.56v-46A4.56,4.56,0,0,0,349.47,160.13Zm2.19,50.61a2.2,2.2,0,0,1-2.19,2.19h-5.53a2.19,2.19,0,0,1-2-1.34L334.47,194a1.38,1.38,0,0,0-1.27-.85l-.29,0a1.38,1.38,0,0,0-1.11,1.36l0,16.23a2.2,2.2,0,0,1-2.19,2.19h-4.15a2.2,2.2,0,0,1-2.19-2.19V175.58a2.2,2.2,0,0,1,2.19-2.19H331a2.19,2.19,0,0,1,2,1.34l7.46,17.63a1.39,1.39,0,0,0,2.67-.54c0-5.28,0-27.13,0-27.13a2.2,2.2,0,0,1,2.19-2.19h4.15a2.2,2.2,0,0,1,2.19,2.19Z"/><path class="cls-38" d="M394.15,205.43h-17.3a2.2,2.2,0,0,1-2.19-2.19v-31a2.2,2.2,0,0,1,2.19-2.19h4.85a2.2,2.2,0,0,0,2.19-2.19v-3.12a2.2,2.2,0,0,0-2.19-2.19h-23a2.2,2.2,0,0,0-2.19,2.19v3.12a2.2,2.2,0,0,0,2.19,2.19h4.85a2.2,2.2,0,0,1,2.19,2.19v31a2.2,2.2,0,0,1-2.19,2.19h-4.85a2.2,2.2,0,0,0-2.19,2.19v3.12a2.2,2.2,0,0,0,2.19,2.19h35.48a2.2,2.2,0,0,0,2.19-2.19v-3.12A2.2,2.2,0,0,0,394.15,205.43Z"/><path class="cls-39" d="M394.15,203.07H377v-30.7h4.68a4.56,4.56,0,0,0,4.56-4.56v-3.12a4.56,4.56,0,0,0-4.56-4.56h-23a4.56,4.56,0,0,0-4.56,4.56v3.12a4.56,4.56,0,0,0,4.56,4.56h4.68v30.7h-4.68a4.56,4.56,0,0,0-4.56,4.56v3.12a4.56,4.56,0,0,0,4.56,4.56h35.48a4.56,4.56,0,0,0,4.56-4.56v-3.12A4.56,4.56,0,0,0,394.15,203.07Zm2.19,7.68a2.2,2.2,0,0,1-2.19,2.19H358.67a2.2,2.2,0,0,1-2.19-2.19v-3.12a2.2,2.2,0,0,1,2.19-2.19h4.85a2.2,2.2,0,0,0,2.19-2.19v-31a2.2,2.2,0,0,0-2.19-2.19h-4.85a2.2,2.2,0,0,1-2.19-2.19v-3.12a2.2,2.2,0,0,1,2.19-2.19h23a2.2,2.2,0,0,1,2.19,2.19v3.12A2.2,2.2,0,0,1,381.7,170h-4.85a2.2,2.2,0,0,0-2.19,2.19v31a2.2,2.2,0,0,0,2.19,2.19h17.3a2.2,2.2,0,0,1,2.19,2.19Z"/><path class="cls-38" d="M444.18,174.93a2.19,2.19,0,0,0-2.1-1.55h-7.49a2.19,2.19,0,0,0-2.1,1.55l-10.95,35.15a2.2,2.2,0,0,0,2.1,2.85h4.47a2.2,2.2,0,0,0,2.13-1.65l1.57-6.1a2.2,2.2,0,0,1,2.13-1.65h8.49a2.2,2.2,0,0,1,2.13,1.66l1.55,6.09a2.2,2.2,0,0,0,2.13,1.66H453a2.2,2.2,0,0,0,2.1-2.85Zm-2.93,20.77a2.18,2.18,0,0,1-1.74.85h-2.67a2.2,2.2,0,0,1-2.13-2.75l.23-.9c.37-1.44.78-3,1.17-4.37a2.19,2.19,0,0,1,4.23.06c.39,1.62.77,3.17,1.06,4.31l.23.9A2.18,2.18,0,0,1,441.25,195.71Z"/><path class="cls-39" d="M457.52,210a4.67,4.67,0,0,0-.14-.61l-10.95-35.15h0a4.54,4.54,0,0,0-4.36-3.21h-7.49a4.54,4.54,0,0,0-4.36,3.21l-10.95,35.15a4.56,4.56,0,0,0,4.36,5.92h4.47a4.56,4.56,0,0,0,4.42-3.43l1.53-6h8.23l1.52,6a4.56,4.56,0,0,0,4.42,3.43H453a4.57,4.57,0,0,0,4.53-4,4.57,4.57,0,0,1,0-.54ZM454.8,212a2.18,2.18,0,0,1-1.77.9h-4.79a2.2,2.2,0,0,1-2.13-1.66l-1.55-6.09a2.2,2.2,0,0,0-2.13-1.66h-8.49a2.2,2.2,0,0,0-2.13,1.65l-1.57,6.1a2.2,2.2,0,0,1-2.13,1.65h-4.47a2.2,2.2,0,0,1-2.1-2.85l10.95-35.15a2.19,2.19,0,0,1,2.1-1.55h7.49a2.19,2.19,0,0,1,2.1,1.55l10.95,35.15A2.18,2.18,0,0,1,454.8,212Z"/><path class="cls-39" d="M441.42,192.91c-.29-1.14-.67-2.69-1.06-4.31a2.19,2.19,0,0,0-4.23-.06c-.39,1.42-.81,2.93-1.17,4.37l-.23.9a2.2,2.2,0,0,0,2.13,2.75h2.67a2.2,2.2,0,0,0,2.13-2.74Zm-4.36,1.28.18-.7c.3-1.2.64-2.45,1-3.67.34,1.38.66,2.68.91,3.67l.18.7Z"/><path class="cls-38" d="M484.23,205.43H471a2.2,2.2,0,0,1-2.2-2.2V167.81a2.2,2.2,0,0,0-2.2-2.2h-4.54a2.2,2.2,0,0,0-2.2,2.2v42.93a2.2,2.2,0,0,0,2.2,2.2h22.14a2.2,2.2,0,0,0,2.2-2.2v-3.11A2.2,2.2,0,0,0,484.23,205.43Z"/><path class="cls-39" d="M484.23,203.07h-13V167.81a4.57,4.57,0,0,0-4.56-4.56h-4.54a4.57,4.57,0,0,0-4.56,4.56v42.93a4.59,4.59,0,0,0,4.56,4.56h22.14a4.57,4.57,0,0,0,4.56-4.56v-3.11A4.57,4.57,0,0,0,484.23,203.07Zm2.2,7.67a2.2,2.2,0,0,1-2.2,2.2H462.09a2.2,2.2,0,0,1-2.2-2.2V167.81a2.2,2.2,0,0,1,2.2-2.2h4.54a2.2,2.2,0,0,1,2.2,2.2v35.42a2.2,2.2,0,0,0,2.2,2.2h13.21a2.2,2.2,0,0,1,2.2,2.2Z"/><path class="cls-38" d="M416.13,163.44h-5.52a2.2,2.2,0,0,0-2.12,1.61L405,177.47l-1.43,5.45-1.45-5.48-3.43-12.39a2.2,2.2,0,0,0-2.12-1.61H391.1a2.2,2.2,0,0,0-2.2,2.2v32a2.2,2.2,0,0,0,2.2,2.2h3.05a2.2,2.2,0,0,0,2.2-2.2V186.08a1.39,1.39,0,0,1,2.71-.43l1.76,5.36a2.19,2.19,0,0,0,2.09,1.51h1.15a2.19,2.19,0,0,0,2.09-1.52l1.88-5.83a1.38,1.38,0,0,1,1.32-1l.22,0a1.39,1.39,0,0,1,1.17,1.37v15.19A2.2,2.2,0,0,0,413,203h3.18a2.2,2.2,0,0,0,2.2-2.2V165.64A2.2,2.2,0,0,0,416.13,163.44Z"/><path class="cls-39" d="M420.69,200.79V165.64a4.57,4.57,0,0,0-4.56-4.56h-5.52a4.57,4.57,0,0,0-4.39,3.34l-2.61,9.39-2.6-9.39a4.57,4.57,0,0,0-4.4-3.35H391.1a4.57,4.57,0,0,0-4.56,4.56v32a4.57,4.57,0,0,0,4.56,4.56h3.05a4.57,4.57,0,0,0,4.56-4.56V192.1a4.55,4.55,0,0,0,4.2,2.78h1.15a4.55,4.55,0,0,0,4.33-3.12v9a4.57,4.57,0,0,0,4.56,4.56h3.18A4.57,4.57,0,0,0,420.69,200.79Zm-2.36,0a2.2,2.2,0,0,1-2.2,2.2H413a2.2,2.2,0,0,1-2.2-2.2V185.59a1.39,1.39,0,0,0-1.17-1.37l-.22,0a1.38,1.38,0,0,0-1.32,1L406.16,191a2.19,2.19,0,0,1-2.09,1.52h-1.15a2.19,2.19,0,0,1-2.09-1.51l-1.76-5.36a1.39,1.39,0,0,0-2.71.43v11.59a2.2,2.2,0,0,1-2.2,2.2H391.1a2.2,2.2,0,0,1-2.2-2.2v-32a2.2,2.2,0,0,1,2.2-2.2h5.52a2.2,2.2,0,0,1,2.12,1.61l3.43,12.39,1.45,5.48,1.43-5.45L408.49,165a2.2,2.2,0,0,1,2.12-1.61h5.52a2.2,2.2,0,0,1,2.2,2.2Z"/><circle class="cls-38" cx="297.77" cy="174.94" r="2.98"/><path class="cls-39" d="M297.77,180.29a5.34,5.34,0,1,0-5.34-5.34A5.35,5.35,0,0,0,297.77,180.29Zm0-8.32a3,3,0,1,1-3,3A3,3,0,0,1,297.77,172Z"/><circle class="cls-38" cx="314.11" cy="174.94" r="2.98"/><path class="cls-39" d="M314.11,180.29h0a5.34,5.34,0,1,0-5.34-5.34A5.35,5.35,0,0,0,314.11,180.29Zm3-5.34a3,3,0,1,1-3-3A3,3,0,0,1,317.08,174.94Z"/><path class="cls-38" d="M316.66,207H311.4a2,2,0,0,1-1.8-2.19V194a2.87,2.87,0,0,1,.13-.93l.13-.38.34-.22a5.35,5.35,0,0,1,2.1-.69,2.83,2.83,0,0,0,1.22-.38l.05,0a1.52,1.52,0,0,0,.36-.46v0a3.44,3.44,0,0,0,.17-1.15v-.12a25.28,25.28,0,0,0,0-3.12,2.51,2.51,0,0,0-1.8-2.19,19,19,0,0,0-6.24-.88,19.79,19.79,0,0,0-6.46.88,2.67,2.67,0,0,0-1.8,2.19,12.79,12.79,0,0,0,0,2.26c0,.34,0,.63,0,.86a2.46,2.46,0,0,0,.48,1.48l0,0a1.3,1.3,0,0,0,.19.2l.18.15a3,3,0,0,0,1.11.35,6.16,6.16,0,0,1,1.83.58l.48.26.12.53a3.75,3.75,0,0,1,.07.81v10.81a2,2,0,0,1-1.8,2.19H296l-10.1-36.74a2.18,2.18,0,0,0-2.09-1.52h-7.5a2.18,2.18,0,0,0-2.09,1.52l-11,39.83a2.19,2.19,0,0,0,2.09,2.86h4.48a2.17,2.17,0,0,0,2.11-1.61l3.14-10.85a2.18,2.18,0,0,1,2.11-1.61h5.38a2.22,2.22,0,0,1,2.13,1.69l3.09,10.7a2.2,2.2,0,0,0,2.13,1.69h26.74a2,2,0,0,0,1.8-2.19v-1.56A2,2,0,0,0,316.66,207ZM282.95,191a2.18,2.18,0,0,1-1.73.85h-2.68a2.19,2.19,0,0,1-2.12-2.74h0l.23-.91c.31-1.21.64-2.48,1-3.79l.14-.55a2.19,2.19,0,0,1,4.25,0l1.33,5.24A2.18,2.18,0,0,1,282.95,191Z"/><path class="cls-39" d="M316.66,204.62H312V194.24c.23-.06.49-.1.74-.15a4.71,4.71,0,0,0,2.29-.86l.16-.13a3.86,3.86,0,0,0,.92-1.22l0-.06a5.48,5.48,0,0,0,.37-2v-.12a27.9,27.9,0,0,0-.05-3.44,4.86,4.86,0,0,0-3.29-4.17,25.32,25.32,0,0,0-14.46,0,5,5,0,0,0-3.24,4,14.55,14.55,0,0,0-.05,2.76c0,.27,0,.52,0,.72a4.84,4.84,0,0,0,.95,2.9,3.49,3.49,0,0,0,.52.57,4.38,4.38,0,0,0,.38.32,4.87,4.87,0,0,0,2,.76l.58.12v10.36h-2.12l-9.63-35v0a4.54,4.54,0,0,0-4.35-3.2h-7.5a4.54,4.54,0,0,0-4.35,3.2l-11,39.85a4.56,4.56,0,0,0,4.36,5.88h4.48a4.52,4.52,0,0,0,4.39-3.35l3.11-10.72h5.13l3.08,10.64a4.55,4.55,0,0,0,4.41,3.43h26.74a4.38,4.38,0,0,0,4.16-4.56v-1.56A4.38,4.38,0,0,0,316.66,204.62Zm1.8,6.12a2,2,0,0,1-1.8,2.19H289.92a2.2,2.2,0,0,1-2.13-1.69l-3.09-10.7a2.22,2.22,0,0,0-2.13-1.69h-5.38a2.18,2.18,0,0,0-2.11,1.61l-3.14,10.85a2.17,2.17,0,0,1-2.11,1.61h-4.48a2.19,2.19,0,0,1-2.09-2.86l11-39.83a2.18,2.18,0,0,1,2.09-1.52h7.5a2.18,2.18,0,0,1,2.09,1.52L296,207h4.48a2,2,0,0,0,1.8-2.19V194a3.75,3.75,0,0,0-.07-.81l-.12-.53-.48-.26a6.16,6.16,0,0,0-1.83-.58,3,3,0,0,1-1.11-.35l-.18-.15a1.3,1.3,0,0,1-.19-.2l0,0a2.46,2.46,0,0,1-.48-1.48c0-.23,0-.51,0-.86a12.79,12.79,0,0,1,0-2.26,2.67,2.67,0,0,1,1.8-2.19,19.79,19.79,0,0,1,6.46-.88,19,19,0,0,1,6.24.88,2.51,2.51,0,0,1,1.8,2.19,25.28,25.28,0,0,1,0,3.12v.12a3.44,3.44,0,0,1-.17,1.15v0a1.52,1.52,0,0,1-.36.46l-.05,0a2.83,2.83,0,0,1-1.22.38,5.35,5.35,0,0,0-2.1.69l-.34.22-.13.38a2.87,2.87,0,0,0-.13.93v10.81a2,2,0,0,0,1.8,2.19h5.26a2,2,0,0,1,1.8,2.19Z"/><path class="cls-39" d="M282,183.91a2.19,2.19,0,0,0-4.25,0l-.14.55c-.34,1.31-.67,2.58-1,3.79l-.23.91h0a2.19,2.19,0,0,0,2.12,2.74h2.68a2.19,2.19,0,0,0,2.13-2.73Zm-3.26,5.61.18-.7c.3-1.18.62-2.42,1-3.69l1.11,4.39Z"/></g></svg>