<svg xmlns="http://www.w3.org/2000/svg" viewBox="0 0 59.75 60"><defs><style>.cls-1{fill:#f0efef;}</style></defs><title>phoneIcon</title><g id="物件"><path class="cls-1" d="M59.68,30C61,46.28,45.25,59.92,30.57,60A30.16,30.16,0,0,1,0,30.26,30.17,30.17,0,0,1,29.62,0C44.91-.35,60.92,13.42,59.68,30Zm-27-12.11c-.05-1.16,0-2.34-.18-3.49a25.63,25.63,0,0,0-1-3.52C30.48,7.6,28,5.8,25.32,6.8c-3.44,1.29-6.63,3.18-8.68,6.49-3,4.93-2.83,10.13-1.51,15.5a49.17,49.17,0,0,0,7,15.86c5.39,8,12.77,9.77,21.25,5.94a3.3,3.3,0,0,0,2.2-3.65c-.48-4.7-3-8.3-6.48-11.22a4.83,4.83,0,0,0-6-.27c-1.29.82-2.92,1.13-3.94-.17A14.17,14.17,0,0,1,26,28.49a2.68,2.68,0,0,1,1.91-3.24C31.37,24,33.46,21.91,32.63,17.92Z"/><path class="cls-1" d="M17.49,22.49c-.7-6.08,2.5-9.62,7.57-12.17,2.07-1,3.18.12,3.46,1.53C29,14.09,30,16.22,29.8,18.63c-.12,1.58-.55,2.58-2.14,3.12-2.82,1-5,2.84-4.88,5.94a14,14,0,0,0,3,8.07c3,3.92,4.81,4.51,9.23,2.33a2.13,2.13,0,0,1,2.82.41c2.37,2.12,3.43,5.06,4.84,7.77.58,1.11-.55,1.37-1.31,1.73-7.94,3.71-13,.27-17.35-6.37a51.34,51.34,0,0,1-6.17-14.27A22.73,22.73,0,0,1,17.49,22.49Z"/></g></svg>